<svg width="1364" height="1304" viewBox="0 0 1364 1304" fill="none" xmlns="http://www.w3.org/2000/svg">
<g opacity="0.015">
<line x1="-2" y1="7" x2="1364" y2="7" stroke="white" stroke-width="2"/>
<line x1="-2" y1="15" x2="1364" y2="15" stroke="white" stroke-width="2"/>
<line x1="-2" y1="23" x2="1364" y2="23" stroke="white" stroke-width="2"/>
<line x1="-2" y1="31" x2="1364" y2="31" stroke="white" stroke-width="2"/>
<line x1="-2" y1="39" x2="1364" y2="39" stroke="white" stroke-width="2"/>
<line x1="-2" y1="47" x2="1364" y2="47" stroke="white" stroke-width="2"/>
<line x1="-2" y1="55" x2="1364" y2="55" stroke="white" stroke-width="2"/>
<line x1="-2" y1="63" x2="1364" y2="63" stroke="white" stroke-width="2"/>
<line x1="-2" y1="71" x2="1364" y2="71" stroke="white" stroke-width="2"/>
<line x1="-2" y1="79" x2="1364" y2="79" stroke="white" stroke-width="2"/>
<line x1="-2" y1="87" x2="1364" y2="87" stroke="white" stroke-width="2"/>
<line x1="-2" y1="95" x2="1364" y2="95" stroke="white" stroke-width="2"/>
<line x1="-2" y1="103" x2="1364" y2="103" stroke="white" stroke-width="2"/>
<line x1="-2" y1="111" x2="1364" y2="111" stroke="white" stroke-width="2"/>
<line x1="-2" y1="119" x2="1364" y2="119" stroke="white" stroke-width="2"/>
<line x1="-2" y1="127" x2="1364" y2="127" stroke="white" stroke-width="2"/>
<line x1="-2" y1="135" x2="1364" y2="135" stroke="white" stroke-width="2"/>
<line x1="-2" y1="143" x2="1364" y2="143" stroke="white" stroke-width="2"/>
<line x1="-2" y1="151" x2="1364" y2="151" stroke="white" stroke-width="2"/>
<line x1="-2" y1="159" x2="1364" y2="159" stroke="white" stroke-width="2"/>
<line x1="-2" y1="167" x2="1364" y2="167" stroke="white" stroke-width="2"/>
<line x1="-2" y1="175" x2="1364" y2="175" stroke="white" stroke-width="2"/>
<line x1="-2" y1="183" x2="1364" y2="183" stroke="white" stroke-width="2"/>
<line x1="-2" y1="191" x2="1364" y2="191" stroke="white" stroke-width="2"/>
<line x1="-2" y1="199" x2="1364" y2="199" stroke="white" stroke-width="2"/>
<line x1="-2" y1="207" x2="1364" y2="207" stroke="white" stroke-width="2"/>
<line x1="-2" y1="215" x2="1364" y2="215" stroke="white" stroke-width="2"/>
<line x1="-2" y1="223" x2="1364" y2="223" stroke="white" stroke-width="2"/>
<line x1="-2" y1="231" x2="1364" y2="231" stroke="white" stroke-width="2"/>
<line x1="-2" y1="239" x2="1364" y2="239" stroke="white" stroke-width="2"/>
<line x1="-2" y1="247" x2="1364" y2="247" stroke="white" stroke-width="2"/>
<line x1="-2" y1="255" x2="1364" y2="255" stroke="white" stroke-width="2"/>
<line x1="-2" y1="263" x2="1364" y2="263" stroke="white" stroke-width="2"/>
<line x1="-2" y1="271" x2="1364" y2="271" stroke="white" stroke-width="2"/>
<line x1="-2" y1="279" x2="1364" y2="279" stroke="white" stroke-width="2"/>
<line x1="-2" y1="287" x2="1364" y2="287" stroke="white" stroke-width="2"/>
<line x1="-2" y1="295" x2="1364" y2="295" stroke="white" stroke-width="2"/>
<line x1="-2" y1="303" x2="1364" y2="303" stroke="white" stroke-width="2"/>
<line x1="-2" y1="311" x2="1364" y2="311" stroke="white" stroke-width="2"/>
<line x1="-2" y1="319" x2="1364" y2="319" stroke="white" stroke-width="2"/>
<line x1="-2" y1="327" x2="1364" y2="327" stroke="white" stroke-width="2"/>
<line x1="-2" y1="335" x2="1364" y2="335" stroke="white" stroke-width="2"/>
<line x1="-2" y1="343" x2="1364" y2="343" stroke="white" stroke-width="2"/>
<line x1="-2" y1="351" x2="1364" y2="351" stroke="white" stroke-width="2"/>
<line x1="-2" y1="359" x2="1364" y2="359" stroke="white" stroke-width="2"/>
<line x1="-2" y1="367" x2="1364" y2="367" stroke="white" stroke-width="2"/>
<line x1="-2" y1="375" x2="1364" y2="375" stroke="white" stroke-width="2"/>
<line x1="-2" y1="383" x2="1364" y2="383" stroke="white" stroke-width="2"/>
<line x1="-2" y1="391" x2="1364" y2="391" stroke="white" stroke-width="2"/>
<line x1="-2" y1="399" x2="1364" y2="399" stroke="white" stroke-width="2"/>
<line x1="-2" y1="407" x2="1364" y2="407" stroke="white" stroke-width="2"/>
<line x1="-2" y1="415" x2="1364" y2="415" stroke="white" stroke-width="2"/>
<line x1="-2" y1="423" x2="1364" y2="423" stroke="white" stroke-width="2"/>
<line x1="-2" y1="431" x2="1364" y2="431" stroke="white" stroke-width="2"/>
<line x1="-2" y1="439" x2="1364" y2="439" stroke="white" stroke-width="2"/>
<line x1="-2" y1="447" x2="1364" y2="447" stroke="white" stroke-width="2"/>
<line x1="-2" y1="455" x2="1364" y2="455" stroke="white" stroke-width="2"/>
<line x1="-2" y1="463" x2="1364" y2="463" stroke="white" stroke-width="2"/>
<line x1="-2" y1="471" x2="1364" y2="471" stroke="white" stroke-width="2"/>
<line x1="-2" y1="479" x2="1364" y2="479" stroke="white" stroke-width="2"/>
<line x1="-2" y1="487" x2="1364" y2="487" stroke="white" stroke-width="2"/>
<line x1="-2" y1="495" x2="1364" y2="495" stroke="white" stroke-width="2"/>
<line x1="-2" y1="503" x2="1364" y2="503" stroke="white" stroke-width="2"/>
<line x1="-2" y1="511" x2="1364" y2="511" stroke="white" stroke-width="2"/>
<line x1="-2" y1="519" x2="1364" y2="519" stroke="white" stroke-width="2"/>
<line x1="-2" y1="527" x2="1364" y2="527" stroke="white" stroke-width="2"/>
<line x1="-2" y1="535" x2="1364" y2="535" stroke="white" stroke-width="2"/>
<line x1="-2" y1="543" x2="1364" y2="543" stroke="white" stroke-width="2"/>
<line x1="-2" y1="551" x2="1364" y2="551" stroke="white" stroke-width="2"/>
<line x1="-2" y1="559" x2="1364" y2="559" stroke="white" stroke-width="2"/>
<line x1="-2" y1="567" x2="1364" y2="567" stroke="white" stroke-width="2"/>
<line x1="-2" y1="575" x2="1364" y2="575" stroke="white" stroke-width="2"/>
<line x1="-2" y1="583" x2="1364" y2="583" stroke="white" stroke-width="2"/>
<line x1="-2" y1="591" x2="1364" y2="591" stroke="white" stroke-width="2"/>
<line x1="-2" y1="599" x2="1364" y2="599" stroke="white" stroke-width="2"/>
<line x1="-2" y1="607" x2="1364" y2="607" stroke="white" stroke-width="2"/>
<line x1="-2" y1="615" x2="1364" y2="615" stroke="white" stroke-width="2"/>
<line x1="-2" y1="623" x2="1364" y2="623" stroke="white" stroke-width="2"/>
<line x1="-2" y1="631" x2="1364" y2="631" stroke="white" stroke-width="2"/>
<line x1="-2" y1="639" x2="1364" y2="639" stroke="white" stroke-width="2"/>
<line x1="-2" y1="647" x2="1364" y2="647" stroke="white" stroke-width="2"/>
<line x1="-2" y1="655" x2="1364" y2="655" stroke="white" stroke-width="2"/>
<line x1="-2" y1="663" x2="1364" y2="663" stroke="white" stroke-width="2"/>
<line x1="-2" y1="671" x2="1364" y2="671" stroke="white" stroke-width="2"/>
<line x1="-2" y1="679" x2="1364" y2="679" stroke="white" stroke-width="2"/>
<line x1="-2" y1="687" x2="1364" y2="687" stroke="white" stroke-width="2"/>
<line x1="-2" y1="695" x2="1364" y2="695" stroke="white" stroke-width="2"/>
<line x1="-2" y1="703" x2="1364" y2="703" stroke="white" stroke-width="2"/>
<line x1="-2" y1="711" x2="1364" y2="711" stroke="white" stroke-width="2"/>
<line x1="-2" y1="719" x2="1364" y2="719" stroke="white" stroke-width="2"/>
<line x1="-2" y1="727" x2="1364" y2="727" stroke="white" stroke-width="2"/>
<line x1="-2" y1="735" x2="1364" y2="735" stroke="white" stroke-width="2"/>
<line x1="-2" y1="743" x2="1364" y2="743" stroke="white" stroke-width="2"/>
<line x1="-2" y1="751" x2="1364" y2="751" stroke="white" stroke-width="2"/>
<line x1="-2" y1="759" x2="1364" y2="759" stroke="white" stroke-width="2"/>
<line x1="-2" y1="767" x2="1364" y2="767" stroke="white" stroke-width="2"/>
<line x1="-2" y1="775" x2="1364" y2="775" stroke="white" stroke-width="2"/>
<line x1="-2" y1="783" x2="1364" y2="783" stroke="white" stroke-width="2"/>
<line x1="-2" y1="791" x2="1364" y2="791" stroke="white" stroke-width="2"/>
<line x1="-2" y1="799" x2="1364" y2="799" stroke="white" stroke-width="2"/>
<line x1="-2" y1="807" x2="1364" y2="807" stroke="white" stroke-width="2"/>
<line x1="-2" y1="815" x2="1364" y2="815" stroke="white" stroke-width="2"/>
<line x1="-2" y1="823" x2="1364" y2="823" stroke="white" stroke-width="2"/>
<line x1="-2" y1="831" x2="1364" y2="831" stroke="white" stroke-width="2"/>
<line x1="-2" y1="839" x2="1364" y2="839" stroke="white" stroke-width="2"/>
<line x1="-2" y1="847" x2="1364" y2="847" stroke="white" stroke-width="2"/>
<line x1="-2" y1="855" x2="1364" y2="855" stroke="white" stroke-width="2"/>
<line x1="-2" y1="863" x2="1364" y2="863" stroke="white" stroke-width="2"/>
<line x1="-2" y1="871" x2="1364" y2="871" stroke="white" stroke-width="2"/>
<line x1="-2" y1="879" x2="1364" y2="879" stroke="white" stroke-width="2"/>
<line x1="-2" y1="887" x2="1364" y2="887" stroke="white" stroke-width="2"/>
<line x1="-2" y1="895" x2="1364" y2="895" stroke="white" stroke-width="2"/>
<line x1="-2" y1="903" x2="1364" y2="903" stroke="white" stroke-width="2"/>
<line x1="-2" y1="911" x2="1364" y2="911" stroke="white" stroke-width="2"/>
<line x1="-2" y1="919" x2="1364" y2="919" stroke="white" stroke-width="2"/>
<line x1="-2" y1="927" x2="1364" y2="927" stroke="white" stroke-width="2"/>
<line x1="-2" y1="935" x2="1364" y2="935" stroke="white" stroke-width="2"/>
<line x1="-2" y1="943" x2="1364" y2="943" stroke="white" stroke-width="2"/>
<line x1="-2" y1="951" x2="1364" y2="951" stroke="white" stroke-width="2"/>
<line x1="-2" y1="959" x2="1364" y2="959" stroke="white" stroke-width="2"/>
<line x1="-2" y1="967" x2="1364" y2="967" stroke="white" stroke-width="2"/>
<line x1="-2" y1="975" x2="1364" y2="975" stroke="white" stroke-width="2"/>
<line x1="-2" y1="983" x2="1364" y2="983" stroke="white" stroke-width="2"/>
<line x1="-2" y1="991" x2="1364" y2="991" stroke="white" stroke-width="2"/>
<line x1="-2" y1="999" x2="1364" y2="999" stroke="white" stroke-width="2"/>
<line x1="-2" y1="1007" x2="1364" y2="1007" stroke="white" stroke-width="2"/>
<line x1="-2" y1="1015" x2="1364" y2="1015" stroke="white" stroke-width="2"/>
<line x1="-2" y1="1023" x2="1364" y2="1023" stroke="white" stroke-width="2"/>
<line x1="-2" y1="1031" x2="1364" y2="1031" stroke="white" stroke-width="2"/>
<line x1="-2" y1="1039" x2="1364" y2="1039" stroke="white" stroke-width="2"/>
<line x1="-2" y1="1047" x2="1364" y2="1047" stroke="white" stroke-width="2"/>
<line x1="-2" y1="1055" x2="1364" y2="1055" stroke="white" stroke-width="2"/>
<line x1="-2" y1="1063" x2="1364" y2="1063" stroke="white" stroke-width="2"/>
<line x1="-2" y1="1071" x2="1364" y2="1071" stroke="white" stroke-width="2"/>
<line x1="-2" y1="1079" x2="1364" y2="1079" stroke="white" stroke-width="2"/>
<line x1="-2" y1="1087" x2="1364" y2="1087" stroke="white" stroke-width="2"/>
<line x1="-2" y1="1095" x2="1364" y2="1095" stroke="white" stroke-width="2"/>
<line x1="-2" y1="1103" x2="1364" y2="1103" stroke="white" stroke-width="2"/>
<line x1="-2" y1="1111" x2="1364" y2="1111" stroke="white" stroke-width="2"/>
<line x1="-2" y1="1119" x2="1364" y2="1119" stroke="white" stroke-width="2"/>
<line x1="-2" y1="1127" x2="1364" y2="1127" stroke="white" stroke-width="2"/>
<line x1="-2" y1="1135" x2="1364" y2="1135" stroke="white" stroke-width="2"/>
<line x1="-2" y1="1143" x2="1364" y2="1143" stroke="white" stroke-width="2"/>
<line x1="-2" y1="1151" x2="1364" y2="1151" stroke="white" stroke-width="2"/>
<line x1="-2" y1="1159" x2="1364" y2="1159" stroke="white" stroke-width="2"/>
<line x1="-2" y1="1167" x2="1364" y2="1167" stroke="white" stroke-width="2"/>
<line x1="-2" y1="1175" x2="1364" y2="1175" stroke="white" stroke-width="2"/>
<line x1="-2" y1="1183" x2="1364" y2="1183" stroke="white" stroke-width="2"/>
<line x1="-2" y1="1191" x2="1364" y2="1191" stroke="white" stroke-width="2"/>
<line x1="-2" y1="1199" x2="1364" y2="1199" stroke="white" stroke-width="2"/>
<line x1="-2" y1="1207" x2="1364" y2="1207" stroke="white" stroke-width="2"/>
<line x1="-2" y1="1215" x2="1364" y2="1215" stroke="white" stroke-width="2"/>
<line x1="-2" y1="1223" x2="1364" y2="1223" stroke="white" stroke-width="2"/>
<line x1="-2" y1="1231" x2="1364" y2="1231" stroke="white" stroke-width="2"/>
<line x1="-2" y1="1239" x2="1364" y2="1239" stroke="white" stroke-width="2"/>
<line x1="-2" y1="1247" x2="1364" y2="1247" stroke="white" stroke-width="2"/>
<line x1="-2" y1="1255" x2="1364" y2="1255" stroke="white" stroke-width="2"/>
<line x1="-2" y1="1263" x2="1364" y2="1263" stroke="white" stroke-width="2"/>
<line x1="-2" y1="1271" x2="1364" y2="1271" stroke="white" stroke-width="2"/>
<line x1="-2" y1="1279" x2="1364" y2="1279" stroke="white" stroke-width="2"/>
<line x1="-2" y1="1287" x2="1364" y2="1287" stroke="white" stroke-width="2"/>
<line x1="-2" y1="1295" x2="1364" y2="1295" stroke="white" stroke-width="2"/>
<line x1="-2" y1="1303" x2="1364" y2="1303" stroke="white" stroke-width="2"/>
</g>
</svg>
