<svg xmlns="http://www.w3.org/2000/svg" width="1364" height="1304" fill="none" viewBox="0 0 1364 1304"><g opacity=".015"><line x1="-2" x2="1364" y1="7" y2="7" stroke="#fff" stroke-width="2"/><line x1="-2" x2="1364" y1="15" y2="15" stroke="#fff" stroke-width="2"/><line x1="-2" x2="1364" y1="23" y2="23" stroke="#fff" stroke-width="2"/><line x1="-2" x2="1364" y1="31" y2="31" stroke="#fff" stroke-width="2"/><line x1="-2" x2="1364" y1="39" y2="39" stroke="#fff" stroke-width="2"/><line x1="-2" x2="1364" y1="47" y2="47" stroke="#fff" stroke-width="2"/><line x1="-2" x2="1364" y1="55" y2="55" stroke="#fff" stroke-width="2"/><line x1="-2" x2="1364" y1="63" y2="63" stroke="#fff" stroke-width="2"/><line x1="-2" x2="1364" y1="71" y2="71" stroke="#fff" stroke-width="2"/><line x1="-2" x2="1364" y1="79" y2="79" stroke="#fff" stroke-width="2"/><line x1="-2" x2="1364" y1="87" y2="87" stroke="#fff" stroke-width="2"/><line x1="-2" x2="1364" y1="95" y2="95" stroke="#fff" stroke-width="2"/><line x1="-2" x2="1364" y1="103" y2="103" stroke="#fff" stroke-width="2"/><line x1="-2" x2="1364" y1="111" y2="111" stroke="#fff" stroke-width="2"/><line x1="-2" x2="1364" y1="119" y2="119" stroke="#fff" stroke-width="2"/><line x1="-2" x2="1364" y1="127" y2="127" stroke="#fff" stroke-width="2"/><line x1="-2" x2="1364" y1="135" y2="135" stroke="#fff" stroke-width="2"/><line x1="-2" x2="1364" y1="143" y2="143" stroke="#fff" stroke-width="2"/><line x1="-2" x2="1364" y1="151" y2="151" stroke="#fff" stroke-width="2"/><line x1="-2" x2="1364" y1="159" y2="159" stroke="#fff" stroke-width="2"/><line x1="-2" x2="1364" y1="167" y2="167" stroke="#fff" stroke-width="2"/><line x1="-2" x2="1364" y1="175" y2="175" stroke="#fff" stroke-width="2"/><line x1="-2" x2="1364" y1="183" y2="183" stroke="#fff" stroke-width="2"/><line x1="-2" x2="1364" y1="191" y2="191" stroke="#fff" stroke-width="2"/><line x1="-2" x2="1364" y1="199" y2="199" stroke="#fff" stroke-width="2"/><line x1="-2" x2="1364" y1="207" y2="207" stroke="#fff" stroke-width="2"/><line x1="-2" x2="1364" y1="215" y2="215" stroke="#fff" stroke-width="2"/><line x1="-2" x2="1364" y1="223" y2="223" stroke="#fff" stroke-width="2"/><line x1="-2" x2="1364" y1="231" y2="231" stroke="#fff" stroke-width="2"/><line x1="-2" x2="1364" y1="239" y2="239" stroke="#fff" stroke-width="2"/><line x1="-2" x2="1364" y1="247" y2="247" stroke="#fff" stroke-width="2"/><line x1="-2" x2="1364" y1="255" y2="255" stroke="#fff" stroke-width="2"/><line x1="-2" x2="1364" y1="263" y2="263" stroke="#fff" stroke-width="2"/><line x1="-2" x2="1364" y1="271" y2="271" stroke="#fff" stroke-width="2"/><line x1="-2" x2="1364" y1="279" y2="279" stroke="#fff" stroke-width="2"/><line x1="-2" x2="1364" y1="287" y2="287" stroke="#fff" stroke-width="2"/><line x1="-2" x2="1364" y1="295" y2="295" stroke="#fff" stroke-width="2"/><line x1="-2" x2="1364" y1="303" y2="303" stroke="#fff" stroke-width="2"/><line x1="-2" x2="1364" y1="311" y2="311" stroke="#fff" stroke-width="2"/><line x1="-2" x2="1364" y1="319" y2="319" stroke="#fff" stroke-width="2"/><line x1="-2" x2="1364" y1="327" y2="327" stroke="#fff" stroke-width="2"/><line x1="-2" x2="1364" y1="335" y2="335" stroke="#fff" stroke-width="2"/><line x1="-2" x2="1364" y1="343" y2="343" stroke="#fff" stroke-width="2"/><line x1="-2" x2="1364" y1="351" y2="351" stroke="#fff" stroke-width="2"/><line x1="-2" x2="1364" y1="359" y2="359" stroke="#fff" stroke-width="2"/><line x1="-2" x2="1364" y1="367" y2="367" stroke="#fff" stroke-width="2"/><line x1="-2" x2="1364" y1="375" y2="375" stroke="#fff" stroke-width="2"/><line x1="-2" x2="1364" y1="383" y2="383" stroke="#fff" stroke-width="2"/><line x1="-2" x2="1364" y1="391" y2="391" stroke="#fff" stroke-width="2"/><line x1="-2" x2="1364" y1="399" y2="399" stroke="#fff" stroke-width="2"/><line x1="-2" x2="1364" y1="407" y2="407" stroke="#fff" stroke-width="2"/><line x1="-2" x2="1364" y1="415" y2="415" stroke="#fff" stroke-width="2"/><line x1="-2" x2="1364" y1="423" y2="423" stroke="#fff" stroke-width="2"/><line x1="-2" x2="1364" y1="431" y2="431" stroke="#fff" stroke-width="2"/><line x1="-2" x2="1364" y1="439" y2="439" stroke="#fff" stroke-width="2"/><line x1="-2" x2="1364" y1="447" y2="447" stroke="#fff" stroke-width="2"/><line x1="-2" x2="1364" y1="455" y2="455" stroke="#fff" stroke-width="2"/><line x1="-2" x2="1364" y1="463" y2="463" stroke="#fff" stroke-width="2"/><line x1="-2" x2="1364" y1="471" y2="471" stroke="#fff" stroke-width="2"/><line x1="-2" x2="1364" y1="479" y2="479" stroke="#fff" stroke-width="2"/><line x1="-2" x2="1364" y1="487" y2="487" stroke="#fff" stroke-width="2"/><line x1="-2" x2="1364" y1="495" y2="495" stroke="#fff" stroke-width="2"/><line x1="-2" x2="1364" y1="503" y2="503" stroke="#fff" stroke-width="2"/><line x1="-2" x2="1364" y1="511" y2="511" stroke="#fff" stroke-width="2"/><line x1="-2" x2="1364" y1="519" y2="519" stroke="#fff" stroke-width="2"/><line x1="-2" x2="1364" y1="527" y2="527" stroke="#fff" stroke-width="2"/><line x1="-2" x2="1364" y1="535" y2="535" stroke="#fff" stroke-width="2"/><line x1="-2" x2="1364" y1="543" y2="543" stroke="#fff" stroke-width="2"/><line x1="-2" x2="1364" y1="551" y2="551" stroke="#fff" stroke-width="2"/><line x1="-2" x2="1364" y1="559" y2="559" stroke="#fff" stroke-width="2"/><line x1="-2" x2="1364" y1="567" y2="567" stroke="#fff" stroke-width="2"/><line x1="-2" x2="1364" y1="575" y2="575" stroke="#fff" stroke-width="2"/><line x1="-2" x2="1364" y1="583" y2="583" stroke="#fff" stroke-width="2"/><line x1="-2" x2="1364" y1="591" y2="591" stroke="#fff" stroke-width="2"/><line x1="-2" x2="1364" y1="599" y2="599" stroke="#fff" stroke-width="2"/><line x1="-2" x2="1364" y1="607" y2="607" stroke="#fff" stroke-width="2"/><line x1="-2" x2="1364" y1="615" y2="615" stroke="#fff" stroke-width="2"/><line x1="-2" x2="1364" y1="623" y2="623" stroke="#fff" stroke-width="2"/><line x1="-2" x2="1364" y1="631" y2="631" stroke="#fff" stroke-width="2"/><line x1="-2" x2="1364" y1="639" y2="639" stroke="#fff" stroke-width="2"/><line x1="-2" x2="1364" y1="647" y2="647" stroke="#fff" stroke-width="2"/><line x1="-2" x2="1364" y1="655" y2="655" stroke="#fff" stroke-width="2"/><line x1="-2" x2="1364" y1="663" y2="663" stroke="#fff" stroke-width="2"/><line x1="-2" x2="1364" y1="671" y2="671" stroke="#fff" stroke-width="2"/><line x1="-2" x2="1364" y1="679" y2="679" stroke="#fff" stroke-width="2"/><line x1="-2" x2="1364" y1="687" y2="687" stroke="#fff" stroke-width="2"/><line x1="-2" x2="1364" y1="695" y2="695" stroke="#fff" stroke-width="2"/><line x1="-2" x2="1364" y1="703" y2="703" stroke="#fff" stroke-width="2"/><line x1="-2" x2="1364" y1="711" y2="711" stroke="#fff" stroke-width="2"/><line x1="-2" x2="1364" y1="719" y2="719" stroke="#fff" stroke-width="2"/><line x1="-2" x2="1364" y1="727" y2="727" stroke="#fff" stroke-width="2"/><line x1="-2" x2="1364" y1="735" y2="735" stroke="#fff" stroke-width="2"/><line x1="-2" x2="1364" y1="743" y2="743" stroke="#fff" stroke-width="2"/><line x1="-2" x2="1364" y1="751" y2="751" stroke="#fff" stroke-width="2"/><line x1="-2" x2="1364" y1="759" y2="759" stroke="#fff" stroke-width="2"/><line x1="-2" x2="1364" y1="767" y2="767" stroke="#fff" stroke-width="2"/><line x1="-2" x2="1364" y1="775" y2="775" stroke="#fff" stroke-width="2"/><line x1="-2" x2="1364" y1="783" y2="783" stroke="#fff" stroke-width="2"/><line x1="-2" x2="1364" y1="791" y2="791" stroke="#fff" stroke-width="2"/><line x1="-2" x2="1364" y1="799" y2="799" stroke="#fff" stroke-width="2"/><line x1="-2" x2="1364" y1="807" y2="807" stroke="#fff" stroke-width="2"/><line x1="-2" x2="1364" y1="815" y2="815" stroke="#fff" stroke-width="2"/><line x1="-2" x2="1364" y1="823" y2="823" stroke="#fff" stroke-width="2"/><line x1="-2" x2="1364" y1="831" y2="831" stroke="#fff" stroke-width="2"/><line x1="-2" x2="1364" y1="839" y2="839" stroke="#fff" stroke-width="2"/><line x1="-2" x2="1364" y1="847" y2="847" stroke="#fff" stroke-width="2"/><line x1="-2" x2="1364" y1="855" y2="855" stroke="#fff" stroke-width="2"/><line x1="-2" x2="1364" y1="863" y2="863" stroke="#fff" stroke-width="2"/><line x1="-2" x2="1364" y1="871" y2="871" stroke="#fff" stroke-width="2"/><line x1="-2" x2="1364" y1="879" y2="879" stroke="#fff" stroke-width="2"/><line x1="-2" x2="1364" y1="887" y2="887" stroke="#fff" stroke-width="2"/><line x1="-2" x2="1364" y1="895" y2="895" stroke="#fff" stroke-width="2"/><line x1="-2" x2="1364" y1="903" y2="903" stroke="#fff" stroke-width="2"/><line x1="-2" x2="1364" y1="911" y2="911" stroke="#fff" stroke-width="2"/><line x1="-2" x2="1364" y1="919" y2="919" stroke="#fff" stroke-width="2"/><line x1="-2" x2="1364" y1="927" y2="927" stroke="#fff" stroke-width="2"/><line x1="-2" x2="1364" y1="935" y2="935" stroke="#fff" stroke-width="2"/><line x1="-2" x2="1364" y1="943" y2="943" stroke="#fff" stroke-width="2"/><line x1="-2" x2="1364" y1="951" y2="951" stroke="#fff" stroke-width="2"/><line x1="-2" x2="1364" y1="959" y2="959" stroke="#fff" stroke-width="2"/><line x1="-2" x2="1364" y1="967" y2="967" stroke="#fff" stroke-width="2"/><line x1="-2" x2="1364" y1="975" y2="975" stroke="#fff" stroke-width="2"/><line x1="-2" x2="1364" y1="983" y2="983" stroke="#fff" stroke-width="2"/><line x1="-2" x2="1364" y1="991" y2="991" stroke="#fff" stroke-width="2"/><line x1="-2" x2="1364" y1="999" y2="999" stroke="#fff" stroke-width="2"/><line x1="-2" x2="1364" y1="1007" y2="1007" stroke="#fff" stroke-width="2"/><line x1="-2" x2="1364" y1="1015" y2="1015" stroke="#fff" stroke-width="2"/><line x1="-2" x2="1364" y1="1023" y2="1023" stroke="#fff" stroke-width="2"/><line x1="-2" x2="1364" y1="1031" y2="1031" stroke="#fff" stroke-width="2"/><line x1="-2" x2="1364" y1="1039" y2="1039" stroke="#fff" stroke-width="2"/><line x1="-2" x2="1364" y1="1047" y2="1047" stroke="#fff" stroke-width="2"/><line x1="-2" x2="1364" y1="1055" y2="1055" stroke="#fff" stroke-width="2"/><line x1="-2" x2="1364" y1="1063" y2="1063" stroke="#fff" stroke-width="2"/><line x1="-2" x2="1364" y1="1071" y2="1071" stroke="#fff" stroke-width="2"/><line x1="-2" x2="1364" y1="1079" y2="1079" stroke="#fff" stroke-width="2"/><line x1="-2" x2="1364" y1="1087" y2="1087" stroke="#fff" stroke-width="2"/><line x1="-2" x2="1364" y1="1095" y2="1095" stroke="#fff" stroke-width="2"/><line x1="-2" x2="1364" y1="1103" y2="1103" stroke="#fff" stroke-width="2"/><line x1="-2" x2="1364" y1="1111" y2="1111" stroke="#fff" stroke-width="2"/><line x1="-2" x2="1364" y1="1119" y2="1119" stroke="#fff" stroke-width="2"/><line x1="-2" x2="1364" y1="1127" y2="1127" stroke="#fff" stroke-width="2"/><line x1="-2" x2="1364" y1="1135" y2="1135" stroke="#fff" stroke-width="2"/><line x1="-2" x2="1364" y1="1143" y2="1143" stroke="#fff" stroke-width="2"/><line x1="-2" x2="1364" y1="1151" y2="1151" stroke="#fff" stroke-width="2"/><line x1="-2" x2="1364" y1="1159" y2="1159" stroke="#fff" stroke-width="2"/><line x1="-2" x2="1364" y1="1167" y2="1167" stroke="#fff" stroke-width="2"/><line x1="-2" x2="1364" y1="1175" y2="1175" stroke="#fff" stroke-width="2"/><line x1="-2" x2="1364" y1="1183" y2="1183" stroke="#fff" stroke-width="2"/><line x1="-2" x2="1364" y1="1191" y2="1191" stroke="#fff" stroke-width="2"/><line x1="-2" x2="1364" y1="1199" y2="1199" stroke="#fff" stroke-width="2"/><line x1="-2" x2="1364" y1="1207" y2="1207" stroke="#fff" stroke-width="2"/><line x1="-2" x2="1364" y1="1215" y2="1215" stroke="#fff" stroke-width="2"/><line x1="-2" x2="1364" y1="1223" y2="1223" stroke="#fff" stroke-width="2"/><line x1="-2" x2="1364" y1="1231" y2="1231" stroke="#fff" stroke-width="2"/><line x1="-2" x2="1364" y1="1239" y2="1239" stroke="#fff" stroke-width="2"/><line x1="-2" x2="1364" y1="1247" y2="1247" stroke="#fff" stroke-width="2"/><line x1="-2" x2="1364" y1="1255" y2="1255" stroke="#fff" stroke-width="2"/><line x1="-2" x2="1364" y1="1263" y2="1263" stroke="#fff" stroke-width="2"/><line x1="-2" x2="1364" y1="1271" y2="1271" stroke="#fff" stroke-width="2"/><line x1="-2" x2="1364" y1="1279" y2="1279" stroke="#fff" stroke-width="2"/><line x1="-2" x2="1364" y1="1287" y2="1287" stroke="#fff" stroke-width="2"/><line x1="-2" x2="1364" y1="1295" y2="1295" stroke="#fff" stroke-width="2"/><line x1="-2" x2="1364" y1="1303" y2="1303" stroke="#fff" stroke-width="2"/></g></svg>