<svg xmlns="http://www.w3.org/2000/svg" width="1350" height="1767" fill="none" viewBox="0 0 1350 1767"><g clip-path="url(#clip0)"><rect width="1350" height="1767" fill="#fff"/><rect width="1350" height="1767" fill="#000"/><mask id="mask0" width="58" height="2100" x="0" y="0" mask-type="alpha" maskUnits="userSpaceOnUse"><path fill="#000A0F" d="M51.5 303V57L50.5 0H44H0V2100H50.5L51 768L58 759V311L51.5 303Z"/></mask><g mask="url(#mask0)"><path fill="#000A0F" d="M50.5 303V57.5V0H44H0V2100H50.5V768L57.5 759V311.5L50.5 303Z"/><line x1="50.5" x2="50.5" y1="57" y2="303" stroke="#405C6B"/><line x1="50.5" x2="50.5" y1="768" y2="1262" stroke="#405C6B"/><line x1="57.5" x2="57.5" y1="311" y2="760" stroke="#405C6B"/><line x1="50.395" x2="57.395" y1="302.693" y2="311.693" stroke="#405C6B"/><line x2="11.402" y1="-.5" y2="-.5" stroke="#405C6B" transform="matrix(0.613941 -0.789352 -0.789352 -0.613941 50 768)"/><g opacity=".015"><line x2="1366" y1="7" y2="7" stroke="#fff" stroke-width="2"/><line x2="1366" y1="15" y2="15" stroke="#fff" stroke-width="2"/><line x2="1366" y1="23" y2="23" stroke="#fff" stroke-width="2"/><line x2="1366" y1="31" y2="31" stroke="#fff" stroke-width="2"/><line x2="1366" y1="39" y2="39" stroke="#fff" stroke-width="2"/><line x2="1366" y1="47" y2="47" stroke="#fff" stroke-width="2"/><line x2="1366" y1="55" y2="55" stroke="#fff" stroke-width="2"/><line x2="1366" y1="63" y2="63" stroke="#fff" stroke-width="2"/><line x2="1366" y1="71" y2="71" stroke="#fff" stroke-width="2"/><line x2="1366" y1="79" y2="79" stroke="#fff" stroke-width="2"/><line x2="1366" y1="87" y2="87" stroke="#fff" stroke-width="2"/><line x2="1366" y1="95" y2="95" stroke="#fff" stroke-width="2"/><line x2="1366" y1="103" y2="103" stroke="#fff" stroke-width="2"/><line x2="1366" y1="111" y2="111" stroke="#fff" stroke-width="2"/><line x2="1366" y1="119" y2="119" stroke="#fff" stroke-width="2"/><line x2="1366" y1="127" y2="127" stroke="#fff" stroke-width="2"/><line x2="1366" y1="135" y2="135" stroke="#fff" stroke-width="2"/><line x2="1366" y1="143" y2="143" stroke="#fff" stroke-width="2"/><line x2="1366" y1="151" y2="151" stroke="#fff" stroke-width="2"/><line x2="1366" y1="159" y2="159" stroke="#fff" stroke-width="2"/><line x2="1366" y1="167" y2="167" stroke="#fff" stroke-width="2"/><line x2="1366" y1="175" y2="175" stroke="#fff" stroke-width="2"/><line x2="1366" y1="183" y2="183" stroke="#fff" stroke-width="2"/><line x2="1366" y1="191" y2="191" stroke="#fff" stroke-width="2"/><line x2="1366" y1="199" y2="199" stroke="#fff" stroke-width="2"/><line x2="1366" y1="207" y2="207" stroke="#fff" stroke-width="2"/><line x2="1366" y1="215" y2="215" stroke="#fff" stroke-width="2"/><line x2="1366" y1="223" y2="223" stroke="#fff" stroke-width="2"/><line x2="1366" y1="231" y2="231" stroke="#fff" stroke-width="2"/><line x2="1366" y1="239" y2="239" stroke="#fff" stroke-width="2"/><line x2="1366" y1="247" y2="247" stroke="#fff" stroke-width="2"/><line x2="1366" y1="255" y2="255" stroke="#fff" stroke-width="2"/><line x2="1366" y1="263" y2="263" stroke="#fff" stroke-width="2"/><line x2="1366" y1="271" y2="271" stroke="#fff" stroke-width="2"/><line x2="1366" y1="279" y2="279" stroke="#fff" stroke-width="2"/><line x2="1366" y1="287" y2="287" stroke="#fff" stroke-width="2"/><line x2="1366" y1="295" y2="295" stroke="#fff" stroke-width="2"/><line x2="1366" y1="303" y2="303" stroke="#fff" stroke-width="2"/><line x2="1366" y1="311" y2="311" stroke="#fff" stroke-width="2"/><line x2="1366" y1="319" y2="319" stroke="#fff" stroke-width="2"/><line x2="1366" y1="327" y2="327" stroke="#fff" stroke-width="2"/><line x2="1366" y1="335" y2="335" stroke="#fff" stroke-width="2"/><line x2="1366" y1="343" y2="343" stroke="#fff" stroke-width="2"/><line x2="1366" y1="351" y2="351" stroke="#fff" stroke-width="2"/><line x2="1366" y1="359" y2="359" stroke="#fff" stroke-width="2"/><line x2="1366" y1="367" y2="367" stroke="#fff" stroke-width="2"/><line x2="1366" y1="375" y2="375" stroke="#fff" stroke-width="2"/><line x2="1366" y1="383" y2="383" stroke="#fff" stroke-width="2"/><line x2="1366" y1="391" y2="391" stroke="#fff" stroke-width="2"/><line x2="1366" y1="399" y2="399" stroke="#fff" stroke-width="2"/><line x2="1366" y1="407" y2="407" stroke="#fff" stroke-width="2"/><line x2="1366" y1="415" y2="415" stroke="#fff" stroke-width="2"/><line x2="1366" y1="423" y2="423" stroke="#fff" stroke-width="2"/><line x2="1366" y1="431" y2="431" stroke="#fff" stroke-width="2"/><line x2="1366" y1="439" y2="439" stroke="#fff" stroke-width="2"/><line x2="1366" y1="447" y2="447" stroke="#fff" stroke-width="2"/><line x2="1366" y1="455" y2="455" stroke="#fff" stroke-width="2"/><line x2="1366" y1="463" y2="463" stroke="#fff" stroke-width="2"/><line x2="1366" y1="471" y2="471" stroke="#fff" stroke-width="2"/><line x2="1366" y1="479" y2="479" stroke="#fff" stroke-width="2"/><line x2="1366" y1="487" y2="487" stroke="#fff" stroke-width="2"/><line x2="1366" y1="495" y2="495" stroke="#fff" stroke-width="2"/><line x2="1366" y1="503" y2="503" stroke="#fff" stroke-width="2"/><line x2="1366" y1="511" y2="511" stroke="#fff" stroke-width="2"/><line x2="1366" y1="519" y2="519" stroke="#fff" stroke-width="2"/><line x2="1366" y1="527" y2="527" stroke="#fff" stroke-width="2"/><line x2="1366" y1="535" y2="535" stroke="#fff" stroke-width="2"/><line x2="1366" y1="543" y2="543" stroke="#fff" stroke-width="2"/><line x2="1366" y1="551" y2="551" stroke="#fff" stroke-width="2"/><line x2="1366" y1="559" y2="559" stroke="#fff" stroke-width="2"/><line x2="1366" y1="567" y2="567" stroke="#fff" stroke-width="2"/><line x2="1366" y1="575" y2="575" stroke="#fff" stroke-width="2"/><line x2="1366" y1="583" y2="583" stroke="#fff" stroke-width="2"/><line x2="1366" y1="591" y2="591" stroke="#fff" stroke-width="2"/><line x2="1366" y1="599" y2="599" stroke="#fff" stroke-width="2"/><line x2="1366" y1="607" y2="607" stroke="#fff" stroke-width="2"/><line x2="1366" y1="615" y2="615" stroke="#fff" stroke-width="2"/><line x2="1366" y1="623" y2="623" stroke="#fff" stroke-width="2"/><line x2="1366" y1="631" y2="631" stroke="#fff" stroke-width="2"/><line x2="1366" y1="639" y2="639" stroke="#fff" stroke-width="2"/><line x2="1366" y1="647" y2="647" stroke="#fff" stroke-width="2"/><line x2="1366" y1="655" y2="655" stroke="#fff" stroke-width="2"/><line x2="1366" y1="663" y2="663" stroke="#fff" stroke-width="2"/><line x2="1366" y1="671" y2="671" stroke="#fff" stroke-width="2"/><line x2="1366" y1="679" y2="679" stroke="#fff" stroke-width="2"/><line x2="1366" y1="687" y2="687" stroke="#fff" stroke-width="2"/><line x2="1366" y1="695" y2="695" stroke="#fff" stroke-width="2"/><line x2="1366" y1="703" y2="703" stroke="#fff" stroke-width="2"/><line x2="1366" y1="711" y2="711" stroke="#fff" stroke-width="2"/><line x2="1366" y1="719" y2="719" stroke="#fff" stroke-width="2"/><line x2="1366" y1="727" y2="727" stroke="#fff" stroke-width="2"/><line x2="1366" y1="735" y2="735" stroke="#fff" stroke-width="2"/><line x2="1366" y1="743" y2="743" stroke="#fff" stroke-width="2"/><line x2="1366" y1="751" y2="751" stroke="#fff" stroke-width="2"/><line x2="1366" y1="759" y2="759" stroke="#fff" stroke-width="2"/><line x2="1366" y1="767" y2="767" stroke="#fff" stroke-width="2"/><line x2="1366" y1="775" y2="775" stroke="#fff" stroke-width="2"/><line x2="1366" y1="783" y2="783" stroke="#fff" stroke-width="2"/><line x2="1366" y1="791" y2="791" stroke="#fff" stroke-width="2"/><line x2="1366" y1="799" y2="799" stroke="#fff" stroke-width="2"/><line x2="1366" y1="807" y2="807" stroke="#fff" stroke-width="2"/><line x2="1366" y1="815" y2="815" stroke="#fff" stroke-width="2"/><line x2="1366" y1="823" y2="823" stroke="#fff" stroke-width="2"/><line x2="1366" y1="831" y2="831" stroke="#fff" stroke-width="2"/><line x2="1366" y1="839" y2="839" stroke="#fff" stroke-width="2"/><line x2="1366" y1="847" y2="847" stroke="#fff" stroke-width="2"/><line x2="1366" y1="855" y2="855" stroke="#fff" stroke-width="2"/><line x2="1366" y1="863" y2="863" stroke="#fff" stroke-width="2"/><line x2="1366" y1="871" y2="871" stroke="#fff" stroke-width="2"/><line x2="1366" y1="879" y2="879" stroke="#fff" stroke-width="2"/><line x2="1366" y1="887" y2="887" stroke="#fff" stroke-width="2"/><line x2="1366" y1="895" y2="895" stroke="#fff" stroke-width="2"/><line x2="1366" y1="903" y2="903" stroke="#fff" stroke-width="2"/><line x2="1366" y1="911" y2="911" stroke="#fff" stroke-width="2"/><line x2="1366" y1="919" y2="919" stroke="#fff" stroke-width="2"/><line x2="1366" y1="927" y2="927" stroke="#fff" stroke-width="2"/><line x2="1366" y1="935" y2="935" stroke="#fff" stroke-width="2"/><line x2="1366" y1="943" y2="943" stroke="#fff" stroke-width="2"/><line x2="1366" y1="951" y2="951" stroke="#fff" stroke-width="2"/><line x2="1366" y1="959" y2="959" stroke="#fff" stroke-width="2"/><line x2="1366" y1="967" y2="967" stroke="#fff" stroke-width="2"/><line x2="1366" y1="975" y2="975" stroke="#fff" stroke-width="2"/><line x2="1366" y1="983" y2="983" stroke="#fff" stroke-width="2"/><line x2="1366" y1="991" y2="991" stroke="#fff" stroke-width="2"/><line x2="1366" y1="999" y2="999" stroke="#fff" stroke-width="2"/><line x2="1366" y1="1007" y2="1007" stroke="#fff" stroke-width="2"/><line x2="1366" y1="1015" y2="1015" stroke="#fff" stroke-width="2"/><line x2="1366" y1="1023" y2="1023" stroke="#fff" stroke-width="2"/><line x2="1366" y1="1031" y2="1031" stroke="#fff" stroke-width="2"/><line x2="1366" y1="1039" y2="1039" stroke="#fff" stroke-width="2"/><line x2="1366" y1="1047" y2="1047" stroke="#fff" stroke-width="2"/><line x2="1366" y1="1055" y2="1055" stroke="#fff" stroke-width="2"/><line x2="1366" y1="1063" y2="1063" stroke="#fff" stroke-width="2"/><line x2="1366" y1="1071" y2="1071" stroke="#fff" stroke-width="2"/><line x2="1366" y1="1079" y2="1079" stroke="#fff" stroke-width="2"/><line x2="1366" y1="1087" y2="1087" stroke="#fff" stroke-width="2"/><line x2="1366" y1="1095" y2="1095" stroke="#fff" stroke-width="2"/><line x2="1366" y1="1103" y2="1103" stroke="#fff" stroke-width="2"/><line x2="1366" y1="1111" y2="1111" stroke="#fff" stroke-width="2"/><line x2="1366" y1="1119" y2="1119" stroke="#fff" stroke-width="2"/><line x2="1366" y1="1127" y2="1127" stroke="#fff" stroke-width="2"/><line x2="1366" y1="1135" y2="1135" stroke="#fff" stroke-width="2"/><line x2="1366" y1="1143" y2="1143" stroke="#fff" stroke-width="2"/><line x2="1366" y1="1151" y2="1151" stroke="#fff" stroke-width="2"/><line x2="1366" y1="1159" y2="1159" stroke="#fff" stroke-width="2"/><line x2="1366" y1="1167" y2="1167" stroke="#fff" stroke-width="2"/><line x2="1366" y1="1175" y2="1175" stroke="#fff" stroke-width="2"/><line x2="1366" y1="1183" y2="1183" stroke="#fff" stroke-width="2"/><line x2="1366" y1="1191" y2="1191" stroke="#fff" stroke-width="2"/><line x2="1366" y1="1199" y2="1199" stroke="#fff" stroke-width="2"/><line x2="1366" y1="1207" y2="1207" stroke="#fff" stroke-width="2"/><line x2="1366" y1="1215" y2="1215" stroke="#fff" stroke-width="2"/><line x2="1366" y1="1223" y2="1223" stroke="#fff" stroke-width="2"/><line x2="1366" y1="1231" y2="1231" stroke="#fff" stroke-width="2"/><line x2="1366" y1="1239" y2="1239" stroke="#fff" stroke-width="2"/><line x2="1366" y1="1247" y2="1247" stroke="#fff" stroke-width="2"/><line x2="1366" y1="1255" y2="1255" stroke="#fff" stroke-width="2"/><line x2="1366" y1="1263" y2="1263" stroke="#fff" stroke-width="2"/><line x2="1366" y1="1271" y2="1271" stroke="#fff" stroke-width="2"/><line x2="1366" y1="1279" y2="1279" stroke="#fff" stroke-width="2"/><line x2="1366" y1="1287" y2="1287" stroke="#fff" stroke-width="2"/><line x2="1366" y1="1295" y2="1295" stroke="#fff" stroke-width="2"/><line x2="1366" y1="1303" y2="1303" stroke="#fff" stroke-width="2"/><line x2="1366" y1="1311" y2="1311" stroke="#fff" stroke-width="2"/><line x2="1366" y1="1319" y2="1319" stroke="#fff" stroke-width="2"/><line x2="1366" y1="1327" y2="1327" stroke="#fff" stroke-width="2"/></g></g><mask id="mask1" width="59" height="2100" x="1292" y="-20" mask-type="alpha" maskUnits="userSpaceOnUse"><path fill="#000A0F" d="M1299.5 603V36.5V-20H1350.5V2080H1299V1069.5L1292 1061.5L1292.5 612L1299.5 603Z"/></mask><g mask="url(#mask1)"><path fill="#000A0F" d="M1299.5 604.5V37.5V-19H1350V2081H1299.5V1070.5L1292.5 1062V613L1299.5 604.5Z"/><line x1="1293" x2="1293" y1="612" y2="1061" stroke="#405C6B"/><line x1="1292.89" x2="1299.89" y1="1060.69" y2="1069.69" stroke="#405C6B"/><line x2="11.402" y1="-.5" y2="-.5" stroke="#405C6B" transform="matrix(0.613941 -0.789352 -0.789352 -0.613941 1292.5 612)"/><line x1="1300" x2="1300" y1="37" y2="604" stroke="#405C6B"/><line x1="1299.5" x2="1299.5" y1="1068" y2="1261" stroke="#405C6B"/><g opacity=".015"><line x1="-15.5" x2="1350.5" y1="3" y2="3" stroke="#fff" stroke-width="2"/><line x1="-15.5" x2="1350.5" y1="11" y2="11" stroke="#fff" stroke-width="2"/><line x1="-15.5" x2="1350.5" y1="19" y2="19" stroke="#fff" stroke-width="2"/><line x1="-15.5" x2="1350.5" y1="27" y2="27" stroke="#fff" stroke-width="2"/><line x1="-15.5" x2="1350.5" y1="35" y2="35" stroke="#fff" stroke-width="2"/><line x1="-15.5" x2="1350.5" y1="43" y2="43" stroke="#fff" stroke-width="2"/><line x1="-15.5" x2="1350.5" y1="51" y2="51" stroke="#fff" stroke-width="2"/><line x1="-15.5" x2="1350.5" y1="59" y2="59" stroke="#fff" stroke-width="2"/><line x1="-15.5" x2="1350.5" y1="67" y2="67" stroke="#fff" stroke-width="2"/><line x1="-15.5" x2="1350.5" y1="75" y2="75" stroke="#fff" stroke-width="2"/><line x1="-15.5" x2="1350.5" y1="83" y2="83" stroke="#fff" stroke-width="2"/><line x1="-15.5" x2="1350.5" y1="91" y2="91" stroke="#fff" stroke-width="2"/><line x1="-15.5" x2="1350.5" y1="99" y2="99" stroke="#fff" stroke-width="2"/><line x1="-15.5" x2="1350.5" y1="107" y2="107" stroke="#fff" stroke-width="2"/><line x1="-15.5" x2="1350.5" y1="115" y2="115" stroke="#fff" stroke-width="2"/><line x1="-15.5" x2="1350.5" y1="123" y2="123" stroke="#fff" stroke-width="2"/><line x1="-15.5" x2="1350.5" y1="131" y2="131" stroke="#fff" stroke-width="2"/><line x1="-15.5" x2="1350.5" y1="139" y2="139" stroke="#fff" stroke-width="2"/><line x1="-15.5" x2="1350.5" y1="147" y2="147" stroke="#fff" stroke-width="2"/><line x1="-15.5" x2="1350.5" y1="155" y2="155" stroke="#fff" stroke-width="2"/><line x1="-15.5" x2="1350.5" y1="163" y2="163" stroke="#fff" stroke-width="2"/><line x1="-15.5" x2="1350.5" y1="171" y2="171" stroke="#fff" stroke-width="2"/><line x1="-15.5" x2="1350.5" y1="179" y2="179" stroke="#fff" stroke-width="2"/><line x1="-15.5" x2="1350.5" y1="187" y2="187" stroke="#fff" stroke-width="2"/><line x1="-15.5" x2="1350.5" y1="195" y2="195" stroke="#fff" stroke-width="2"/><line x1="-15.5" x2="1350.5" y1="203" y2="203" stroke="#fff" stroke-width="2"/><line x1="-15.5" x2="1350.5" y1="211" y2="211" stroke="#fff" stroke-width="2"/><line x1="-15.5" x2="1350.5" y1="219" y2="219" stroke="#fff" stroke-width="2"/><line x1="-15.5" x2="1350.5" y1="227" y2="227" stroke="#fff" stroke-width="2"/><line x1="-15.5" x2="1350.5" y1="235" y2="235" stroke="#fff" stroke-width="2"/><line x1="-15.5" x2="1350.5" y1="243" y2="243" stroke="#fff" stroke-width="2"/><line x1="-15.5" x2="1350.5" y1="251" y2="251" stroke="#fff" stroke-width="2"/><line x1="-15.5" x2="1350.5" y1="259" y2="259" stroke="#fff" stroke-width="2"/><line x1="-15.5" x2="1350.5" y1="267" y2="267" stroke="#fff" stroke-width="2"/><line x1="-15.5" x2="1350.5" y1="275" y2="275" stroke="#fff" stroke-width="2"/><line x1="-15.5" x2="1350.5" y1="283" y2="283" stroke="#fff" stroke-width="2"/><line x1="-15.5" x2="1350.5" y1="291" y2="291" stroke="#fff" stroke-width="2"/><line x1="-15.5" x2="1350.5" y1="299" y2="299" stroke="#fff" stroke-width="2"/><line x1="-15.5" x2="1350.5" y1="307" y2="307" stroke="#fff" stroke-width="2"/><line x1="-15.5" x2="1350.5" y1="315" y2="315" stroke="#fff" stroke-width="2"/><line x1="-15.5" x2="1350.5" y1="323" y2="323" stroke="#fff" stroke-width="2"/><line x1="-15.5" x2="1350.5" y1="331" y2="331" stroke="#fff" stroke-width="2"/><line x1="-15.5" x2="1350.5" y1="339" y2="339" stroke="#fff" stroke-width="2"/><line x1="-15.5" x2="1350.5" y1="347" y2="347" stroke="#fff" stroke-width="2"/><line x1="-15.5" x2="1350.5" y1="355" y2="355" stroke="#fff" stroke-width="2"/><line x1="-15.5" x2="1350.5" y1="363" y2="363" stroke="#fff" stroke-width="2"/><line x1="-15.5" x2="1350.5" y1="371" y2="371" stroke="#fff" stroke-width="2"/><line x1="-15.5" x2="1350.5" y1="379" y2="379" stroke="#fff" stroke-width="2"/><line x1="-15.5" x2="1350.5" y1="387" y2="387" stroke="#fff" stroke-width="2"/><line x1="-15.5" x2="1350.5" y1="395" y2="395" stroke="#fff" stroke-width="2"/><line x1="-15.5" x2="1350.5" y1="403" y2="403" stroke="#fff" stroke-width="2"/><line x1="-15.5" x2="1350.5" y1="411" y2="411" stroke="#fff" stroke-width="2"/><line x1="-15.5" x2="1350.5" y1="419" y2="419" stroke="#fff" stroke-width="2"/><line x1="-15.5" x2="1350.5" y1="427" y2="427" stroke="#fff" stroke-width="2"/><line x1="-15.5" x2="1350.5" y1="435" y2="435" stroke="#fff" stroke-width="2"/><line x1="-15.5" x2="1350.5" y1="443" y2="443" stroke="#fff" stroke-width="2"/><line x1="-15.5" x2="1350.5" y1="451" y2="451" stroke="#fff" stroke-width="2"/><line x1="-15.5" x2="1350.5" y1="459" y2="459" stroke="#fff" stroke-width="2"/><line x1="-15.5" x2="1350.5" y1="467" y2="467" stroke="#fff" stroke-width="2"/><line x1="-15.5" x2="1350.5" y1="475" y2="475" stroke="#fff" stroke-width="2"/><line x1="-15.5" x2="1350.5" y1="483" y2="483" stroke="#fff" stroke-width="2"/><line x1="-15.5" x2="1350.5" y1="491" y2="491" stroke="#fff" stroke-width="2"/><line x1="-15.5" x2="1350.5" y1="499" y2="499" stroke="#fff" stroke-width="2"/><line x1="-15.5" x2="1350.5" y1="507" y2="507" stroke="#fff" stroke-width="2"/><line x1="-15.5" x2="1350.5" y1="515" y2="515" stroke="#fff" stroke-width="2"/><line x1="-15.5" x2="1350.5" y1="523" y2="523" stroke="#fff" stroke-width="2"/><line x1="-15.5" x2="1350.5" y1="531" y2="531" stroke="#fff" stroke-width="2"/><line x1="-15.5" x2="1350.5" y1="539" y2="539" stroke="#fff" stroke-width="2"/><line x1="-15.5" x2="1350.5" y1="547" y2="547" stroke="#fff" stroke-width="2"/><line x1="-15.5" x2="1350.5" y1="555" y2="555" stroke="#fff" stroke-width="2"/><line x1="-15.5" x2="1350.5" y1="563" y2="563" stroke="#fff" stroke-width="2"/><line x1="-15.5" x2="1350.5" y1="571" y2="571" stroke="#fff" stroke-width="2"/><line x1="-15.5" x2="1350.5" y1="579" y2="579" stroke="#fff" stroke-width="2"/><line x1="-15.5" x2="1350.5" y1="587" y2="587" stroke="#fff" stroke-width="2"/><line x1="-15.5" x2="1350.5" y1="595" y2="595" stroke="#fff" stroke-width="2"/><line x1="-15.5" x2="1350.5" y1="603" y2="603" stroke="#fff" stroke-width="2"/><line x1="-15.5" x2="1350.5" y1="611" y2="611" stroke="#fff" stroke-width="2"/><line x1="-15.5" x2="1350.5" y1="619" y2="619" stroke="#fff" stroke-width="2"/><line x1="-15.5" x2="1350.5" y1="627" y2="627" stroke="#fff" stroke-width="2"/><line x1="-15.5" x2="1350.5" y1="635" y2="635" stroke="#fff" stroke-width="2"/><line x1="-15.5" x2="1350.5" y1="643" y2="643" stroke="#fff" stroke-width="2"/><line x1="-15.5" x2="1350.5" y1="651" y2="651" stroke="#fff" stroke-width="2"/><line x1="-15.5" x2="1350.5" y1="659" y2="659" stroke="#fff" stroke-width="2"/><line x1="-15.5" x2="1350.5" y1="667" y2="667" stroke="#fff" stroke-width="2"/><line x1="-15.5" x2="1350.5" y1="675" y2="675" stroke="#fff" stroke-width="2"/><line x1="-15.5" x2="1350.5" y1="683" y2="683" stroke="#fff" stroke-width="2"/><line x1="-15.5" x2="1350.5" y1="691" y2="691" stroke="#fff" stroke-width="2"/><line x1="-15.5" x2="1350.5" y1="699" y2="699" stroke="#fff" stroke-width="2"/><line x1="-15.5" x2="1350.5" y1="707" y2="707" stroke="#fff" stroke-width="2"/><line x1="-15.5" x2="1350.5" y1="715" y2="715" stroke="#fff" stroke-width="2"/><line x1="-15.5" x2="1350.5" y1="723" y2="723" stroke="#fff" stroke-width="2"/><line x1="-15.5" x2="1350.5" y1="731" y2="731" stroke="#fff" stroke-width="2"/><line x1="-15.5" x2="1350.5" y1="739" y2="739" stroke="#fff" stroke-width="2"/><line x1="-15.5" x2="1350.5" y1="747" y2="747" stroke="#fff" stroke-width="2"/><line x1="-15.5" x2="1350.5" y1="755" y2="755" stroke="#fff" stroke-width="2"/><line x1="-15.5" x2="1350.5" y1="763" y2="763" stroke="#fff" stroke-width="2"/><line x1="-15.5" x2="1350.5" y1="771" y2="771" stroke="#fff" stroke-width="2"/><line x1="-15.5" x2="1350.5" y1="779" y2="779" stroke="#fff" stroke-width="2"/><line x1="-15.5" x2="1350.5" y1="787" y2="787" stroke="#fff" stroke-width="2"/><line x1="-15.5" x2="1350.5" y1="795" y2="795" stroke="#fff" stroke-width="2"/><line x1="-15.5" x2="1350.5" y1="803" y2="803" stroke="#fff" stroke-width="2"/><line x1="-15.5" x2="1350.5" y1="811" y2="811" stroke="#fff" stroke-width="2"/><line x1="-15.5" x2="1350.5" y1="819" y2="819" stroke="#fff" stroke-width="2"/><line x1="-15.5" x2="1350.5" y1="827" y2="827" stroke="#fff" stroke-width="2"/><line x1="-15.5" x2="1350.5" y1="835" y2="835" stroke="#fff" stroke-width="2"/><line x1="-15.5" x2="1350.5" y1="843" y2="843" stroke="#fff" stroke-width="2"/><line x1="-15.5" x2="1350.5" y1="851" y2="851" stroke="#fff" stroke-width="2"/><line x1="-15.5" x2="1350.5" y1="859" y2="859" stroke="#fff" stroke-width="2"/><line x1="-15.5" x2="1350.5" y1="867" y2="867" stroke="#fff" stroke-width="2"/><line x1="-15.5" x2="1350.5" y1="875" y2="875" stroke="#fff" stroke-width="2"/><line x1="-15.5" x2="1350.5" y1="883" y2="883" stroke="#fff" stroke-width="2"/><line x1="-15.5" x2="1350.5" y1="891" y2="891" stroke="#fff" stroke-width="2"/><line x1="-15.5" x2="1350.5" y1="899" y2="899" stroke="#fff" stroke-width="2"/><line x1="-15.5" x2="1350.5" y1="907" y2="907" stroke="#fff" stroke-width="2"/><line x1="-15.5" x2="1350.5" y1="915" y2="915" stroke="#fff" stroke-width="2"/><line x1="-15.5" x2="1350.5" y1="923" y2="923" stroke="#fff" stroke-width="2"/><line x1="-15.5" x2="1350.5" y1="931" y2="931" stroke="#fff" stroke-width="2"/><line x1="-15.5" x2="1350.5" y1="939" y2="939" stroke="#fff" stroke-width="2"/><line x1="-15.5" x2="1350.5" y1="947" y2="947" stroke="#fff" stroke-width="2"/><line x1="-15.5" x2="1350.5" y1="955" y2="955" stroke="#fff" stroke-width="2"/><line x1="-15.5" x2="1350.5" y1="963" y2="963" stroke="#fff" stroke-width="2"/><line x1="-15.5" x2="1350.5" y1="971" y2="971" stroke="#fff" stroke-width="2"/><line x1="-15.5" x2="1350.5" y1="979" y2="979" stroke="#fff" stroke-width="2"/><line x1="-15.5" x2="1350.5" y1="987" y2="987" stroke="#fff" stroke-width="2"/><line x1="-15.5" x2="1350.5" y1="995" y2="995" stroke="#fff" stroke-width="2"/><line x1="-15.5" x2="1350.5" y1="1003" y2="1003" stroke="#fff" stroke-width="2"/><line x1="-15.5" x2="1350.5" y1="1011" y2="1011" stroke="#fff" stroke-width="2"/><line x1="-15.5" x2="1350.5" y1="1019" y2="1019" stroke="#fff" stroke-width="2"/><line x1="-15.5" x2="1350.5" y1="1027" y2="1027" stroke="#fff" stroke-width="2"/><line x1="-15.5" x2="1350.5" y1="1035" y2="1035" stroke="#fff" stroke-width="2"/><line x1="-15.5" x2="1350.5" y1="1043" y2="1043" stroke="#fff" stroke-width="2"/><line x1="-15.5" x2="1350.5" y1="1051" y2="1051" stroke="#fff" stroke-width="2"/><line x1="-15.5" x2="1350.5" y1="1059" y2="1059" stroke="#fff" stroke-width="2"/><line x1="-15.5" x2="1350.5" y1="1067" y2="1067" stroke="#fff" stroke-width="2"/><line x1="-15.5" x2="1350.5" y1="1075" y2="1075" stroke="#fff" stroke-width="2"/><line x1="-15.5" x2="1350.5" y1="1083" y2="1083" stroke="#fff" stroke-width="2"/><line x1="-15.5" x2="1350.5" y1="1091" y2="1091" stroke="#fff" stroke-width="2"/><line x1="-15.5" x2="1350.5" y1="1099" y2="1099" stroke="#fff" stroke-width="2"/><line x1="-15.5" x2="1350.5" y1="1107" y2="1107" stroke="#fff" stroke-width="2"/><line x1="-15.5" x2="1350.5" y1="1115" y2="1115" stroke="#fff" stroke-width="2"/><line x1="-15.5" x2="1350.5" y1="1123" y2="1123" stroke="#fff" stroke-width="2"/><line x1="-15.5" x2="1350.5" y1="1131" y2="1131" stroke="#fff" stroke-width="2"/><line x1="-15.5" x2="1350.5" y1="1139" y2="1139" stroke="#fff" stroke-width="2"/><line x1="-15.5" x2="1350.5" y1="1147" y2="1147" stroke="#fff" stroke-width="2"/><line x1="-15.5" x2="1350.5" y1="1155" y2="1155" stroke="#fff" stroke-width="2"/><line x1="-15.5" x2="1350.5" y1="1163" y2="1163" stroke="#fff" stroke-width="2"/><line x1="-15.5" x2="1350.5" y1="1171" y2="1171" stroke="#fff" stroke-width="2"/><line x1="-15.5" x2="1350.5" y1="1179" y2="1179" stroke="#fff" stroke-width="2"/><line x1="-15.5" x2="1350.5" y1="1187" y2="1187" stroke="#fff" stroke-width="2"/><line x1="-15.5" x2="1350.5" y1="1195" y2="1195" stroke="#fff" stroke-width="2"/><line x1="-15.5" x2="1350.5" y1="1203" y2="1203" stroke="#fff" stroke-width="2"/><line x1="-15.5" x2="1350.5" y1="1211" y2="1211" stroke="#fff" stroke-width="2"/><line x1="-15.5" x2="1350.5" y1="1219" y2="1219" stroke="#fff" stroke-width="2"/><line x1="-15.5" x2="1350.5" y1="1227" y2="1227" stroke="#fff" stroke-width="2"/><line x1="-15.5" x2="1350.5" y1="1235" y2="1235" stroke="#fff" stroke-width="2"/><line x1="-15.5" x2="1350.5" y1="1243" y2="1243" stroke="#fff" stroke-width="2"/><line x1="-15.5" x2="1350.5" y1="1251" y2="1251" stroke="#fff" stroke-width="2"/><line x1="-15.5" x2="1350.5" y1="1259" y2="1259" stroke="#fff" stroke-width="2"/><line x1="-15.5" x2="1350.5" y1="1267" y2="1267" stroke="#fff" stroke-width="2"/><line x1="-15.5" x2="1350.5" y1="1275" y2="1275" stroke="#fff" stroke-width="2"/><line x1="-15.5" x2="1350.5" y1="1283" y2="1283" stroke="#fff" stroke-width="2"/><line x1="-15.5" x2="1350.5" y1="1291" y2="1291" stroke="#fff" stroke-width="2"/><line x1="-15.5" x2="1350.5" y1="1299" y2="1299" stroke="#fff" stroke-width="2"/><line x1="-15.5" x2="1350.5" y1="1307" y2="1307" stroke="#fff" stroke-width="2"/></g></g></g><defs><clipPath id="clip0"><rect width="1350" height="1767" fill="#fff"/></clipPath></defs></svg>