<svg width="130" height="50" viewBox="0 0 130 50" fill="none" xmlns="http://www.w3.org/2000/svg">
<mask id="mask0" mask-type="alpha" maskUnits="userSpaceOnUse" x="0" y="0" width="130" height="50">
<path fillRule="evenodd" clipRule="evenodd" d="M0 20.3252V8.94309L0.406494 8.94309L3.86179 8.94309V4.06504H8.73984V0H120.325V4.06504H125.407V9.14634H129.065V20.5285V29.6748V41.0569H125.407V46.3415H120.732V50H8.73984V46.5447H3.86179V40.6504H0V29.2683V20.3252Z" fill="#BAEAFF"/>
</mask>
<g mask="url(#mask0)">
<path d="M0 40.6504V20.3252H3.86179V15.4472H8.73984V11.3821H120.325V15.4472H125.407V20.5285H129.065V41.0569H125.407V46.3415H120.732V50H8.73984V46.5447H3.86179V40.6504H0Z" fill="#00425E"/>
<path d="M0 29.2683V8.94309H3.86179V4.06504H8.73984V0H120.325V4.06504H125.407V9.14634H129.065V29.6748H125.407V34.9594H120.732V38.6179H8.73984V35.1626H3.86179V29.2683H0Z" fill="#3dbef5"/>
<path d="M48.3739 3.86178V0.203247H36.1788V3.86178H34.5527V6.30081H43.9023V3.86178H48.3739Z" fill="#BAEAFF" fill-opacity="0.5"/>
<path d="M33.1303 8.53659H31.0978H22.1547V11.9919H14.6344V14.6342H10.5693V20.7317H3.04901V22.561L0.406738 21.9512V28.252L4.26853 28.8618V30.8943H13.0084V17.0732H22.9677H24.1872V14.6342H28.4555V11.9919H33.1303V8.53659Z" fill="#BAEAFF" fill-opacity="0.5"/>
<path d="M7.72381 8.94309H0.406738V22.9675H3.45552V20.7317H10.9758V14.8374H15.2441V11.7886H22.358V8.53658H32.3173V5.0813H7.72381V8.94309Z" fill="#BAEAFF"/>
<g opacity="0.015">
<line x1="-604" y1="4" x2="762" y2="4" stroke="white" stroke-width="2"/>
<line x1="-604" y1="12" x2="762" y2="12" stroke="white" stroke-width="2"/>
<line x1="-604" y1="20" x2="762" y2="20" stroke="white" stroke-width="2"/>
<line x1="-604" y1="28" x2="762" y2="28" stroke="white" stroke-width="2"/>
<line x1="-604" y1="36" x2="762" y2="36" stroke="white" stroke-width="2"/>
<line x1="-604" y1="44" x2="762" y2="44" stroke="white" stroke-width="2"/>
</g>
</g>
</svg>
