<svg width="360" height="2102" viewBox="0 0 360 2102" fill="none" xmlns="http://www.w3.org/2000/svg">
<mask id="mask0" mask-type="alpha" maskUnits="userSpaceOnUse" x="341" y="0" width="19" height="2102">
<path d="M348.5 624.5V58V1.5L360 0V2100L348 2101.5V1091L341 1083L341.5 633.5L348.5 624.5Z" fill="#000A0F"/>
</mask>
<g mask="url(#mask0)">
<path d="M349 626V59V2.5H380.5V2102.5H349V1092L342 1083.5V634.5L349 626Z" fill="#000A0F"/>
<line x1="342" y1="633.5" x2="342" y2="1082.5" stroke="#405C6B"/>
<line x1="341.895" y1="1082.19" x2="348.895" y2="1091.19" stroke="#405C6B"/>
<line y1="-0.5" x2="11.4018" y2="-0.5" transform="matrix(0.613941 -0.789352 -0.789352 -0.613941 341.5 633.5)" stroke="#405C6B"/>
<line x1="349.5" y1="51" x2="349.5" y2="625" stroke="#405C6B"/>
<line x1="348.5" y1="1089" x2="348.5" y2="2100" stroke="#405C6B"/>
<g opacity="0.015">
<line x1="-966.5" y1="0.5" x2="399.5" y2="0.5" stroke="white" stroke-width="2"/>
<line x1="-966.5" y1="8.5" x2="399.5" y2="8.5" stroke="white" stroke-width="2"/>
<line x1="-966.5" y1="16.5" x2="399.5" y2="16.5" stroke="white" stroke-width="2"/>
<line x1="-966.5" y1="24.5" x2="399.5" y2="24.5" stroke="white" stroke-width="2"/>
<line x1="-966.5" y1="32.5" x2="399.5" y2="32.5" stroke="white" stroke-width="2"/>
<line x1="-966.5" y1="40.5" x2="399.5" y2="40.5" stroke="white" stroke-width="2"/>
<line x1="-966.5" y1="48.5" x2="399.5" y2="48.5" stroke="white" stroke-width="2"/>
<line x1="-966.5" y1="56.5" x2="399.5" y2="56.5" stroke="white" stroke-width="2"/>
<line x1="-966.5" y1="64.5" x2="399.5" y2="64.5" stroke="white" stroke-width="2"/>
<line x1="-966.5" y1="72.5" x2="399.5" y2="72.5" stroke="white" stroke-width="2"/>
<line x1="-966.5" y1="80.5" x2="399.5" y2="80.5" stroke="white" stroke-width="2"/>
<line x1="-966.5" y1="88.5" x2="399.5" y2="88.5" stroke="white" stroke-width="2"/>
<line x1="-966.5" y1="96.5" x2="399.5" y2="96.5" stroke="white" stroke-width="2"/>
<line x1="-966.5" y1="104.5" x2="399.5" y2="104.5" stroke="white" stroke-width="2"/>
<line x1="-966.5" y1="112.5" x2="399.5" y2="112.5" stroke="white" stroke-width="2"/>
<line x1="-966.5" y1="120.5" x2="399.5" y2="120.5" stroke="white" stroke-width="2"/>
<line x1="-966.5" y1="128.5" x2="399.5" y2="128.5" stroke="white" stroke-width="2"/>
<line x1="-966.5" y1="136.5" x2="399.5" y2="136.5" stroke="white" stroke-width="2"/>
<line x1="-966.5" y1="144.5" x2="399.5" y2="144.5" stroke="white" stroke-width="2"/>
<line x1="-966.5" y1="152.5" x2="399.5" y2="152.5" stroke="white" stroke-width="2"/>
<line x1="-966.5" y1="160.5" x2="399.5" y2="160.5" stroke="white" stroke-width="2"/>
<line x1="-966.5" y1="168.5" x2="399.5" y2="168.5" stroke="white" stroke-width="2"/>
<line x1="-966.5" y1="176.5" x2="399.5" y2="176.5" stroke="white" stroke-width="2"/>
<line x1="-966.5" y1="184.5" x2="399.5" y2="184.5" stroke="white" stroke-width="2"/>
<line x1="-966.5" y1="192.5" x2="399.5" y2="192.5" stroke="white" stroke-width="2"/>
<line x1="-966.5" y1="200.5" x2="399.5" y2="200.5" stroke="white" stroke-width="2"/>
<line x1="-966.5" y1="208.5" x2="399.5" y2="208.5" stroke="white" stroke-width="2"/>
<line x1="-966.5" y1="216.5" x2="399.5" y2="216.5" stroke="white" stroke-width="2"/>
<line x1="-966.5" y1="224.5" x2="399.5" y2="224.5" stroke="white" stroke-width="2"/>
<line x1="-966.5" y1="232.5" x2="399.5" y2="232.5" stroke="white" stroke-width="2"/>
<line x1="-966.5" y1="240.5" x2="399.5" y2="240.5" stroke="white" stroke-width="2"/>
<line x1="-966.5" y1="248.5" x2="399.5" y2="248.5" stroke="white" stroke-width="2"/>
<line x1="-966.5" y1="256.5" x2="399.5" y2="256.5" stroke="white" stroke-width="2"/>
<line x1="-966.5" y1="264.5" x2="399.5" y2="264.5" stroke="white" stroke-width="2"/>
<line x1="-966.5" y1="272.5" x2="399.5" y2="272.5" stroke="white" stroke-width="2"/>
<line x1="-966.5" y1="280.5" x2="399.5" y2="280.5" stroke="white" stroke-width="2"/>
<line x1="-966.5" y1="288.5" x2="399.5" y2="288.5" stroke="white" stroke-width="2"/>
<line x1="-966.5" y1="296.5" x2="399.5" y2="296.5" stroke="white" stroke-width="2"/>
<line x1="-966.5" y1="304.5" x2="399.5" y2="304.5" stroke="white" stroke-width="2"/>
<line x1="-966.5" y1="312.5" x2="399.5" y2="312.5" stroke="white" stroke-width="2"/>
<line x1="-966.5" y1="320.5" x2="399.5" y2="320.5" stroke="white" stroke-width="2"/>
<line x1="-966.5" y1="328.5" x2="399.5" y2="328.5" stroke="white" stroke-width="2"/>
<line x1="-966.5" y1="336.5" x2="399.5" y2="336.5" stroke="white" stroke-width="2"/>
<line x1="-966.5" y1="344.5" x2="399.5" y2="344.5" stroke="white" stroke-width="2"/>
<line x1="-966.5" y1="352.5" x2="399.5" y2="352.5" stroke="white" stroke-width="2"/>
<line x1="-966.5" y1="360.5" x2="399.5" y2="360.5" stroke="white" stroke-width="2"/>
<line x1="-966.5" y1="368.5" x2="399.5" y2="368.5" stroke="white" stroke-width="2"/>
<line x1="-966.5" y1="376.5" x2="399.5" y2="376.5" stroke="white" stroke-width="2"/>
<line x1="-966.5" y1="384.5" x2="399.5" y2="384.5" stroke="white" stroke-width="2"/>
<line x1="-966.5" y1="392.5" x2="399.5" y2="392.5" stroke="white" stroke-width="2"/>
<line x1="-966.5" y1="400.5" x2="399.5" y2="400.5" stroke="white" stroke-width="2"/>
<line x1="-966.5" y1="408.5" x2="399.5" y2="408.5" stroke="white" stroke-width="2"/>
<line x1="-966.5" y1="416.5" x2="399.5" y2="416.5" stroke="white" stroke-width="2"/>
<line x1="-966.5" y1="424.5" x2="399.5" y2="424.5" stroke="white" stroke-width="2"/>
<line x1="-966.5" y1="432.5" x2="399.5" y2="432.5" stroke="white" stroke-width="2"/>
<line x1="-966.5" y1="440.5" x2="399.5" y2="440.5" stroke="white" stroke-width="2"/>
<line x1="-966.5" y1="448.5" x2="399.5" y2="448.5" stroke="white" stroke-width="2"/>
<line x1="-966.5" y1="456.5" x2="399.5" y2="456.5" stroke="white" stroke-width="2"/>
<line x1="-966.5" y1="464.5" x2="399.5" y2="464.5" stroke="white" stroke-width="2"/>
<line x1="-966.5" y1="472.5" x2="399.5" y2="472.5" stroke="white" stroke-width="2"/>
<line x1="-966.5" y1="480.5" x2="399.5" y2="480.5" stroke="white" stroke-width="2"/>
<line x1="-966.5" y1="488.5" x2="399.5" y2="488.5" stroke="white" stroke-width="2"/>
<line x1="-966.5" y1="496.5" x2="399.5" y2="496.5" stroke="white" stroke-width="2"/>
<line x1="-966.5" y1="504.5" x2="399.5" y2="504.5" stroke="white" stroke-width="2"/>
<line x1="-966.5" y1="512.5" x2="399.5" y2="512.5" stroke="white" stroke-width="2"/>
<line x1="-966.5" y1="520.5" x2="399.5" y2="520.5" stroke="white" stroke-width="2"/>
<line x1="-966.5" y1="528.5" x2="399.5" y2="528.5" stroke="white" stroke-width="2"/>
<line x1="-966.5" y1="536.5" x2="399.5" y2="536.5" stroke="white" stroke-width="2"/>
<line x1="-966.5" y1="544.5" x2="399.5" y2="544.5" stroke="white" stroke-width="2"/>
<line x1="-966.5" y1="552.5" x2="399.5" y2="552.5" stroke="white" stroke-width="2"/>
<line x1="-966.5" y1="560.5" x2="399.5" y2="560.5" stroke="white" stroke-width="2"/>
<line x1="-966.5" y1="568.5" x2="399.5" y2="568.5" stroke="white" stroke-width="2"/>
<line x1="-966.5" y1="576.5" x2="399.5" y2="576.5" stroke="white" stroke-width="2"/>
<line x1="-966.5" y1="584.5" x2="399.5" y2="584.5" stroke="white" stroke-width="2"/>
<line x1="-966.5" y1="592.5" x2="399.5" y2="592.5" stroke="white" stroke-width="2"/>
<line x1="-966.5" y1="600.5" x2="399.5" y2="600.5" stroke="white" stroke-width="2"/>
<line x1="-966.5" y1="608.5" x2="399.5" y2="608.5" stroke="white" stroke-width="2"/>
<line x1="-966.5" y1="616.5" x2="399.5" y2="616.5" stroke="white" stroke-width="2"/>
<line x1="-966.5" y1="624.5" x2="399.5" y2="624.5" stroke="white" stroke-width="2"/>
<line x1="-966.5" y1="632.5" x2="399.5" y2="632.5" stroke="white" stroke-width="2"/>
<line x1="-966.5" y1="640.5" x2="399.5" y2="640.5" stroke="white" stroke-width="2"/>
<line x1="-966.5" y1="648.5" x2="399.5" y2="648.5" stroke="white" stroke-width="2"/>
<line x1="-966.5" y1="656.5" x2="399.5" y2="656.5" stroke="white" stroke-width="2"/>
<line x1="-966.5" y1="664.5" x2="399.5" y2="664.5" stroke="white" stroke-width="2"/>
<line x1="-966.5" y1="672.5" x2="399.5" y2="672.5" stroke="white" stroke-width="2"/>
<line x1="-966.5" y1="680.5" x2="399.5" y2="680.5" stroke="white" stroke-width="2"/>
<line x1="-966.5" y1="688.5" x2="399.5" y2="688.5" stroke="white" stroke-width="2"/>
<line x1="-966.5" y1="696.5" x2="399.5" y2="696.5" stroke="white" stroke-width="2"/>
<line x1="-966.5" y1="704.5" x2="399.5" y2="704.5" stroke="white" stroke-width="2"/>
<line x1="-966.5" y1="712.5" x2="399.5" y2="712.5" stroke="white" stroke-width="2"/>
<line x1="-966.5" y1="720.5" x2="399.5" y2="720.5" stroke="white" stroke-width="2"/>
<line x1="-966.5" y1="728.5" x2="399.5" y2="728.5" stroke="white" stroke-width="2"/>
<line x1="-966.5" y1="736.5" x2="399.5" y2="736.5" stroke="white" stroke-width="2"/>
<line x1="-966.5" y1="744.5" x2="399.5" y2="744.5" stroke="white" stroke-width="2"/>
<line x1="-966.5" y1="752.5" x2="399.5" y2="752.5" stroke="white" stroke-width="2"/>
<line x1="-966.5" y1="760.5" x2="399.5" y2="760.5" stroke="white" stroke-width="2"/>
<line x1="-966.5" y1="768.5" x2="399.5" y2="768.5" stroke="white" stroke-width="2"/>
<line x1="-966.5" y1="776.5" x2="399.5" y2="776.5" stroke="white" stroke-width="2"/>
<line x1="-966.5" y1="784.5" x2="399.5" y2="784.5" stroke="white" stroke-width="2"/>
<line x1="-966.5" y1="792.5" x2="399.5" y2="792.5" stroke="white" stroke-width="2"/>
<line x1="-966.5" y1="800.5" x2="399.5" y2="800.5" stroke="white" stroke-width="2"/>
<line x1="-966.5" y1="808.5" x2="399.5" y2="808.5" stroke="white" stroke-width="2"/>
<line x1="-966.5" y1="816.5" x2="399.5" y2="816.5" stroke="white" stroke-width="2"/>
<line x1="-966.5" y1="824.5" x2="399.5" y2="824.5" stroke="white" stroke-width="2"/>
<line x1="-966.5" y1="832.5" x2="399.5" y2="832.5" stroke="white" stroke-width="2"/>
<line x1="-966.5" y1="840.5" x2="399.5" y2="840.5" stroke="white" stroke-width="2"/>
<line x1="-966.5" y1="848.5" x2="399.5" y2="848.5" stroke="white" stroke-width="2"/>
<line x1="-966.5" y1="856.5" x2="399.5" y2="856.5" stroke="white" stroke-width="2"/>
<line x1="-966.5" y1="864.5" x2="399.5" y2="864.5" stroke="white" stroke-width="2"/>
<line x1="-966.5" y1="872.5" x2="399.5" y2="872.5" stroke="white" stroke-width="2"/>
<line x1="-966.5" y1="880.5" x2="399.5" y2="880.5" stroke="white" stroke-width="2"/>
<line x1="-966.5" y1="888.5" x2="399.5" y2="888.5" stroke="white" stroke-width="2"/>
<line x1="-966.5" y1="896.5" x2="399.5" y2="896.5" stroke="white" stroke-width="2"/>
<line x1="-966.5" y1="904.5" x2="399.5" y2="904.5" stroke="white" stroke-width="2"/>
<line x1="-966.5" y1="912.5" x2="399.5" y2="912.5" stroke="white" stroke-width="2"/>
<line x1="-966.5" y1="920.5" x2="399.5" y2="920.5" stroke="white" stroke-width="2"/>
<line x1="-966.5" y1="928.5" x2="399.5" y2="928.5" stroke="white" stroke-width="2"/>
<line x1="-966.5" y1="936.5" x2="399.5" y2="936.5" stroke="white" stroke-width="2"/>
<line x1="-966.5" y1="944.5" x2="399.5" y2="944.5" stroke="white" stroke-width="2"/>
<line x1="-966.5" y1="952.5" x2="399.5" y2="952.5" stroke="white" stroke-width="2"/>
<line x1="-966.5" y1="960.5" x2="399.5" y2="960.5" stroke="white" stroke-width="2"/>
<line x1="-966.5" y1="968.5" x2="399.5" y2="968.5" stroke="white" stroke-width="2"/>
<line x1="-966.5" y1="976.5" x2="399.5" y2="976.5" stroke="white" stroke-width="2"/>
<line x1="-966.5" y1="984.5" x2="399.5" y2="984.5" stroke="white" stroke-width="2"/>
<line x1="-966.5" y1="992.5" x2="399.5" y2="992.5" stroke="white" stroke-width="2"/>
<line x1="-966.5" y1="1000.5" x2="399.5" y2="1000.5" stroke="white" stroke-width="2"/>
<line x1="-966.5" y1="1008.5" x2="399.5" y2="1008.5" stroke="white" stroke-width="2"/>
<line x1="-966.5" y1="1016.5" x2="399.5" y2="1016.5" stroke="white" stroke-width="2"/>
<line x1="-966.5" y1="1024.5" x2="399.5" y2="1024.5" stroke="white" stroke-width="2"/>
<line x1="-966.5" y1="1032.5" x2="399.5" y2="1032.5" stroke="white" stroke-width="2"/>
<line x1="-966.5" y1="1040.5" x2="399.5" y2="1040.5" stroke="white" stroke-width="2"/>
<line x1="-966.5" y1="1048.5" x2="399.5" y2="1048.5" stroke="white" stroke-width="2"/>
<line x1="-966.5" y1="1056.5" x2="399.5" y2="1056.5" stroke="white" stroke-width="2"/>
<line x1="-966.5" y1="1064.5" x2="399.5" y2="1064.5" stroke="white" stroke-width="2"/>
<line x1="-966.5" y1="1072.5" x2="399.5" y2="1072.5" stroke="white" stroke-width="2"/>
<line x1="-966.5" y1="1080.5" x2="399.5" y2="1080.5" stroke="white" stroke-width="2"/>
<line x1="-966.5" y1="1088.5" x2="399.5" y2="1088.5" stroke="white" stroke-width="2"/>
<line x1="-966.5" y1="1096.5" x2="399.5" y2="1096.5" stroke="white" stroke-width="2"/>
<line x1="-966.5" y1="1104.5" x2="399.5" y2="1104.5" stroke="white" stroke-width="2"/>
<line x1="-966.5" y1="1112.5" x2="399.5" y2="1112.5" stroke="white" stroke-width="2"/>
<line x1="-966.5" y1="1120.5" x2="399.5" y2="1120.5" stroke="white" stroke-width="2"/>
<line x1="-966.5" y1="1128.5" x2="399.5" y2="1128.5" stroke="white" stroke-width="2"/>
<line x1="-966.5" y1="1136.5" x2="399.5" y2="1136.5" stroke="white" stroke-width="2"/>
<line x1="-966.5" y1="1144.5" x2="399.5" y2="1144.5" stroke="white" stroke-width="2"/>
<line x1="-966.5" y1="1152.5" x2="399.5" y2="1152.5" stroke="white" stroke-width="2"/>
<line x1="-966.5" y1="1160.5" x2="399.5" y2="1160.5" stroke="white" stroke-width="2"/>
<line x1="-966.5" y1="1168.5" x2="399.5" y2="1168.5" stroke="white" stroke-width="2"/>
<line x1="-966.5" y1="1176.5" x2="399.5" y2="1176.5" stroke="white" stroke-width="2"/>
<line x1="-966.5" y1="1184.5" x2="399.5" y2="1184.5" stroke="white" stroke-width="2"/>
<line x1="-966.5" y1="1192.5" x2="399.5" y2="1192.5" stroke="white" stroke-width="2"/>
<line x1="-966.5" y1="1200.5" x2="399.5" y2="1200.5" stroke="white" stroke-width="2"/>
<line x1="-966.5" y1="1208.5" x2="399.5" y2="1208.5" stroke="white" stroke-width="2"/>
<line x1="-966.5" y1="1216.5" x2="399.5" y2="1216.5" stroke="white" stroke-width="2"/>
<line x1="-966.5" y1="1224.5" x2="399.5" y2="1224.5" stroke="white" stroke-width="2"/>
<line x1="-966.5" y1="1232.5" x2="399.5" y2="1232.5" stroke="white" stroke-width="2"/>
<line x1="-966.5" y1="1240.5" x2="399.5" y2="1240.5" stroke="white" stroke-width="2"/>
<line x1="-966.5" y1="1248.5" x2="399.5" y2="1248.5" stroke="white" stroke-width="2"/>
<line x1="-966.5" y1="1256.5" x2="399.5" y2="1256.5" stroke="white" stroke-width="2"/>
<line x1="-966.5" y1="1264.5" x2="399.5" y2="1264.5" stroke="white" stroke-width="2"/>
<line x1="-966.5" y1="1272.5" x2="399.5" y2="1272.5" stroke="white" stroke-width="2"/>
<line x1="-966.5" y1="1280.5" x2="399.5" y2="1280.5" stroke="white" stroke-width="2"/>
<line x1="-966.5" y1="1288.5" x2="399.5" y2="1288.5" stroke="white" stroke-width="2"/>
<line x1="-966.5" y1="1296.5" x2="399.5" y2="1296.5" stroke="white" stroke-width="2"/>
<line x1="-966.5" y1="1304.5" x2="399.5" y2="1304.5" stroke="white" stroke-width="2"/>
<line x1="-966.5" y1="1312.5" x2="399.5" y2="1312.5" stroke="white" stroke-width="2"/>
<line x1="-966.5" y1="1320.5" x2="399.5" y2="1320.5" stroke="white" stroke-width="2"/>
<line x1="-966.5" y1="1328.5" x2="399.5" y2="1328.5" stroke="white" stroke-width="2"/>
</g>
</g>
<mask id="mask1" mask-type="alpha" maskUnits="userSpaceOnUse" x="0" y="0" width="18" height="2100">
<path d="M11.5 303V57L10.5 0H4H0V2100H10.5L11 768L18 759V311L11.5 303Z" fill="#000A0F"/>
</mask>
<g mask="url(#mask1)">
<path d="M10.5 303V57.5V0H4H-40V2100H10.5V768L17.5 759V311.5L10.5 303Z" fill="#000A0F"/>
<line x1="10.5" y1="51" x2="10.5" y2="303" stroke="#405C6B"/>
<line x1="10.5" y1="768" x2="10.5" y2="2100" stroke="#405C6B"/>
<line x1="17.5" y1="311" x2="17.5" y2="760" stroke="#405C6B"/>
<line x1="10.3947" y1="302.693" x2="17.3947" y2="311.693" stroke="#405C6B"/>
<line y1="-0.5" x2="11.4018" y2="-0.5" transform="matrix(0.613941 -0.789352 -0.789352 -0.613941 10 768)" stroke="#405C6B"/>
<g opacity="0.015">
<line x1="-40" y1="7" x2="1326" y2="7" stroke="white" stroke-width="2"/>
<line x1="-40" y1="15" x2="1326" y2="15" stroke="white" stroke-width="2"/>
<line x1="-40" y1="23" x2="1326" y2="23" stroke="white" stroke-width="2"/>
<line x1="-40" y1="31" x2="1326" y2="31" stroke="white" stroke-width="2"/>
<line x1="-40" y1="39" x2="1326" y2="39" stroke="white" stroke-width="2"/>
<line x1="-40" y1="47" x2="1326" y2="47" stroke="white" stroke-width="2"/>
<line x1="-40" y1="55" x2="1326" y2="55" stroke="white" stroke-width="2"/>
<line x1="-40" y1="63" x2="1326" y2="63" stroke="white" stroke-width="2"/>
<line x1="-40" y1="71" x2="1326" y2="71" stroke="white" stroke-width="2"/>
<line x1="-40" y1="79" x2="1326" y2="79" stroke="white" stroke-width="2"/>
<line x1="-40" y1="87" x2="1326" y2="87" stroke="white" stroke-width="2"/>
<line x1="-40" y1="95" x2="1326" y2="95" stroke="white" stroke-width="2"/>
<line x1="-40" y1="103" x2="1326" y2="103" stroke="white" stroke-width="2"/>
<line x1="-40" y1="111" x2="1326" y2="111" stroke="white" stroke-width="2"/>
<line x1="-40" y1="119" x2="1326" y2="119" stroke="white" stroke-width="2"/>
<line x1="-40" y1="127" x2="1326" y2="127" stroke="white" stroke-width="2"/>
<line x1="-40" y1="135" x2="1326" y2="135" stroke="white" stroke-width="2"/>
<line x1="-40" y1="143" x2="1326" y2="143" stroke="white" stroke-width="2"/>
<line x1="-40" y1="151" x2="1326" y2="151" stroke="white" stroke-width="2"/>
<line x1="-40" y1="159" x2="1326" y2="159" stroke="white" stroke-width="2"/>
<line x1="-40" y1="167" x2="1326" y2="167" stroke="white" stroke-width="2"/>
<line x1="-40" y1="175" x2="1326" y2="175" stroke="white" stroke-width="2"/>
<line x1="-40" y1="183" x2="1326" y2="183" stroke="white" stroke-width="2"/>
<line x1="-40" y1="191" x2="1326" y2="191" stroke="white" stroke-width="2"/>
<line x1="-40" y1="199" x2="1326" y2="199" stroke="white" stroke-width="2"/>
<line x1="-40" y1="207" x2="1326" y2="207" stroke="white" stroke-width="2"/>
<line x1="-40" y1="215" x2="1326" y2="215" stroke="white" stroke-width="2"/>
<line x1="-40" y1="223" x2="1326" y2="223" stroke="white" stroke-width="2"/>
<line x1="-40" y1="231" x2="1326" y2="231" stroke="white" stroke-width="2"/>
<line x1="-40" y1="239" x2="1326" y2="239" stroke="white" stroke-width="2"/>
<line x1="-40" y1="247" x2="1326" y2="247" stroke="white" stroke-width="2"/>
<line x1="-40" y1="255" x2="1326" y2="255" stroke="white" stroke-width="2"/>
<line x1="-40" y1="263" x2="1326" y2="263" stroke="white" stroke-width="2"/>
<line x1="-40" y1="271" x2="1326" y2="271" stroke="white" stroke-width="2"/>
<line x1="-40" y1="279" x2="1326" y2="279" stroke="white" stroke-width="2"/>
<line x1="-40" y1="287" x2="1326" y2="287" stroke="white" stroke-width="2"/>
<line x1="-40" y1="295" x2="1326" y2="295" stroke="white" stroke-width="2"/>
<line x1="-40" y1="303" x2="1326" y2="303" stroke="white" stroke-width="2"/>
<line x1="-40" y1="311" x2="1326" y2="311" stroke="white" stroke-width="2"/>
<line x1="-40" y1="319" x2="1326" y2="319" stroke="white" stroke-width="2"/>
<line x1="-40" y1="327" x2="1326" y2="327" stroke="white" stroke-width="2"/>
<line x1="-40" y1="335" x2="1326" y2="335" stroke="white" stroke-width="2"/>
<line x1="-40" y1="343" x2="1326" y2="343" stroke="white" stroke-width="2"/>
<line x1="-40" y1="351" x2="1326" y2="351" stroke="white" stroke-width="2"/>
<line x1="-40" y1="359" x2="1326" y2="359" stroke="white" stroke-width="2"/>
<line x1="-40" y1="367" x2="1326" y2="367" stroke="white" stroke-width="2"/>
<line x1="-40" y1="375" x2="1326" y2="375" stroke="white" stroke-width="2"/>
<line x1="-40" y1="383" x2="1326" y2="383" stroke="white" stroke-width="2"/>
<line x1="-40" y1="391" x2="1326" y2="391" stroke="white" stroke-width="2"/>
<line x1="-40" y1="399" x2="1326" y2="399" stroke="white" stroke-width="2"/>
<line x1="-40" y1="407" x2="1326" y2="407" stroke="white" stroke-width="2"/>
<line x1="-40" y1="415" x2="1326" y2="415" stroke="white" stroke-width="2"/>
<line x1="-40" y1="423" x2="1326" y2="423" stroke="white" stroke-width="2"/>
<line x1="-40" y1="431" x2="1326" y2="431" stroke="white" stroke-width="2"/>
<line x1="-40" y1="439" x2="1326" y2="439" stroke="white" stroke-width="2"/>
<line x1="-40" y1="447" x2="1326" y2="447" stroke="white" stroke-width="2"/>
<line x1="-40" y1="455" x2="1326" y2="455" stroke="white" stroke-width="2"/>
<line x1="-40" y1="463" x2="1326" y2="463" stroke="white" stroke-width="2"/>
<line x1="-40" y1="471" x2="1326" y2="471" stroke="white" stroke-width="2"/>
<line x1="-40" y1="479" x2="1326" y2="479" stroke="white" stroke-width="2"/>
<line x1="-40" y1="487" x2="1326" y2="487" stroke="white" stroke-width="2"/>
<line x1="-40" y1="495" x2="1326" y2="495" stroke="white" stroke-width="2"/>
<line x1="-40" y1="503" x2="1326" y2="503" stroke="white" stroke-width="2"/>
<line x1="-40" y1="511" x2="1326" y2="511" stroke="white" stroke-width="2"/>
<line x1="-40" y1="519" x2="1326" y2="519" stroke="white" stroke-width="2"/>
<line x1="-40" y1="527" x2="1326" y2="527" stroke="white" stroke-width="2"/>
<line x1="-40" y1="535" x2="1326" y2="535" stroke="white" stroke-width="2"/>
<line x1="-40" y1="543" x2="1326" y2="543" stroke="white" stroke-width="2"/>
<line x1="-40" y1="551" x2="1326" y2="551" stroke="white" stroke-width="2"/>
<line x1="-40" y1="559" x2="1326" y2="559" stroke="white" stroke-width="2"/>
<line x1="-40" y1="567" x2="1326" y2="567" stroke="white" stroke-width="2"/>
<line x1="-40" y1="575" x2="1326" y2="575" stroke="white" stroke-width="2"/>
<line x1="-40" y1="583" x2="1326" y2="583" stroke="white" stroke-width="2"/>
<line x1="-40" y1="591" x2="1326" y2="591" stroke="white" stroke-width="2"/>
<line x1="-40" y1="599" x2="1326" y2="599" stroke="white" stroke-width="2"/>
<line x1="-40" y1="607" x2="1326" y2="607" stroke="white" stroke-width="2"/>
<line x1="-40" y1="615" x2="1326" y2="615" stroke="white" stroke-width="2"/>
<line x1="-40" y1="623" x2="1326" y2="623" stroke="white" stroke-width="2"/>
<line x1="-40" y1="631" x2="1326" y2="631" stroke="white" stroke-width="2"/>
<line x1="-40" y1="639" x2="1326" y2="639" stroke="white" stroke-width="2"/>
<line x1="-40" y1="647" x2="1326" y2="647" stroke="white" stroke-width="2"/>
<line x1="-40" y1="655" x2="1326" y2="655" stroke="white" stroke-width="2"/>
<line x1="-40" y1="663" x2="1326" y2="663" stroke="white" stroke-width="2"/>
<line x1="-40" y1="671" x2="1326" y2="671" stroke="white" stroke-width="2"/>
<line x1="-40" y1="679" x2="1326" y2="679" stroke="white" stroke-width="2"/>
<line x1="-40" y1="687" x2="1326" y2="687" stroke="white" stroke-width="2"/>
<line x1="-40" y1="695" x2="1326" y2="695" stroke="white" stroke-width="2"/>
<line x1="-40" y1="703" x2="1326" y2="703" stroke="white" stroke-width="2"/>
<line x1="-40" y1="711" x2="1326" y2="711" stroke="white" stroke-width="2"/>
<line x1="-40" y1="719" x2="1326" y2="719" stroke="white" stroke-width="2"/>
<line x1="-40" y1="727" x2="1326" y2="727" stroke="white" stroke-width="2"/>
<line x1="-40" y1="735" x2="1326" y2="735" stroke="white" stroke-width="2"/>
<line x1="-40" y1="743" x2="1326" y2="743" stroke="white" stroke-width="2"/>
<line x1="-40" y1="751" x2="1326" y2="751" stroke="white" stroke-width="2"/>
<line x1="-40" y1="759" x2="1326" y2="759" stroke="white" stroke-width="2"/>
<line x1="-40" y1="767" x2="1326" y2="767" stroke="white" stroke-width="2"/>
<line x1="-40" y1="775" x2="1326" y2="775" stroke="white" stroke-width="2"/>
<line x1="-40" y1="783" x2="1326" y2="783" stroke="white" stroke-width="2"/>
<line x1="-40" y1="791" x2="1326" y2="791" stroke="white" stroke-width="2"/>
<line x1="-40" y1="799" x2="1326" y2="799" stroke="white" stroke-width="2"/>
<line x1="-40" y1="807" x2="1326" y2="807" stroke="white" stroke-width="2"/>
<line x1="-40" y1="815" x2="1326" y2="815" stroke="white" stroke-width="2"/>
<line x1="-40" y1="823" x2="1326" y2="823" stroke="white" stroke-width="2"/>
<line x1="-40" y1="831" x2="1326" y2="831" stroke="white" stroke-width="2"/>
<line x1="-40" y1="839" x2="1326" y2="839" stroke="white" stroke-width="2"/>
<line x1="-40" y1="847" x2="1326" y2="847" stroke="white" stroke-width="2"/>
<line x1="-40" y1="855" x2="1326" y2="855" stroke="white" stroke-width="2"/>
<line x1="-40" y1="863" x2="1326" y2="863" stroke="white" stroke-width="2"/>
<line x1="-40" y1="871" x2="1326" y2="871" stroke="white" stroke-width="2"/>
<line x1="-40" y1="879" x2="1326" y2="879" stroke="white" stroke-width="2"/>
<line x1="-40" y1="887" x2="1326" y2="887" stroke="white" stroke-width="2"/>
<line x1="-40" y1="895" x2="1326" y2="895" stroke="white" stroke-width="2"/>
<line x1="-40" y1="903" x2="1326" y2="903" stroke="white" stroke-width="2"/>
<line x1="-40" y1="911" x2="1326" y2="911" stroke="white" stroke-width="2"/>
<line x1="-40" y1="919" x2="1326" y2="919" stroke="white" stroke-width="2"/>
<line x1="-40" y1="927" x2="1326" y2="927" stroke="white" stroke-width="2"/>
<line x1="-40" y1="935" x2="1326" y2="935" stroke="white" stroke-width="2"/>
<line x1="-40" y1="943" x2="1326" y2="943" stroke="white" stroke-width="2"/>
<line x1="-40" y1="951" x2="1326" y2="951" stroke="white" stroke-width="2"/>
<line x1="-40" y1="959" x2="1326" y2="959" stroke="white" stroke-width="2"/>
<line x1="-40" y1="967" x2="1326" y2="967" stroke="white" stroke-width="2"/>
<line x1="-40" y1="975" x2="1326" y2="975" stroke="white" stroke-width="2"/>
<line x1="-40" y1="983" x2="1326" y2="983" stroke="white" stroke-width="2"/>
<line x1="-40" y1="991" x2="1326" y2="991" stroke="white" stroke-width="2"/>
<line x1="-40" y1="999" x2="1326" y2="999" stroke="white" stroke-width="2"/>
<line x1="-40" y1="1007" x2="1326" y2="1007" stroke="white" stroke-width="2"/>
<line x1="-40" y1="1015" x2="1326" y2="1015" stroke="white" stroke-width="2"/>
<line x1="-40" y1="1023" x2="1326" y2="1023" stroke="white" stroke-width="2"/>
<line x1="-40" y1="1031" x2="1326" y2="1031" stroke="white" stroke-width="2"/>
<line x1="-40" y1="1039" x2="1326" y2="1039" stroke="white" stroke-width="2"/>
<line x1="-40" y1="1047" x2="1326" y2="1047" stroke="white" stroke-width="2"/>
<line x1="-40" y1="1055" x2="1326" y2="1055" stroke="white" stroke-width="2"/>
<line x1="-40" y1="1063" x2="1326" y2="1063" stroke="white" stroke-width="2"/>
<line x1="-40" y1="1071" x2="1326" y2="1071" stroke="white" stroke-width="2"/>
<line x1="-40" y1="1079" x2="1326" y2="1079" stroke="white" stroke-width="2"/>
<line x1="-40" y1="1087" x2="1326" y2="1087" stroke="white" stroke-width="2"/>
<line x1="-40" y1="1095" x2="1326" y2="1095" stroke="white" stroke-width="2"/>
<line x1="-40" y1="1103" x2="1326" y2="1103" stroke="white" stroke-width="2"/>
<line x1="-40" y1="1111" x2="1326" y2="1111" stroke="white" stroke-width="2"/>
<line x1="-40" y1="1119" x2="1326" y2="1119" stroke="white" stroke-width="2"/>
<line x1="-40" y1="1127" x2="1326" y2="1127" stroke="white" stroke-width="2"/>
<line x1="-40" y1="1135" x2="1326" y2="1135" stroke="white" stroke-width="2"/>
<line x1="-40" y1="1143" x2="1326" y2="1143" stroke="white" stroke-width="2"/>
<line x1="-40" y1="1151" x2="1326" y2="1151" stroke="white" stroke-width="2"/>
<line x1="-40" y1="1159" x2="1326" y2="1159" stroke="white" stroke-width="2"/>
<line x1="-40" y1="1167" x2="1326" y2="1167" stroke="white" stroke-width="2"/>
<line x1="-40" y1="1175" x2="1326" y2="1175" stroke="white" stroke-width="2"/>
<line x1="-40" y1="1183" x2="1326" y2="1183" stroke="white" stroke-width="2"/>
<line x1="-40" y1="1191" x2="1326" y2="1191" stroke="white" stroke-width="2"/>
<line x1="-40" y1="1199" x2="1326" y2="1199" stroke="white" stroke-width="2"/>
<line x1="-40" y1="1207" x2="1326" y2="1207" stroke="white" stroke-width="2"/>
<line x1="-40" y1="1215" x2="1326" y2="1215" stroke="white" stroke-width="2"/>
<line x1="-40" y1="1223" x2="1326" y2="1223" stroke="white" stroke-width="2"/>
<line x1="-40" y1="1231" x2="1326" y2="1231" stroke="white" stroke-width="2"/>
<line x1="-40" y1="1239" x2="1326" y2="1239" stroke="white" stroke-width="2"/>
<line x1="-40" y1="1247" x2="1326" y2="1247" stroke="white" stroke-width="2"/>
<line x1="-40" y1="1255" x2="1326" y2="1255" stroke="white" stroke-width="2"/>
<line x1="-40" y1="1263" x2="1326" y2="1263" stroke="white" stroke-width="2"/>
<line x1="-40" y1="1271" x2="1326" y2="1271" stroke="white" stroke-width="2"/>
<line x1="-40" y1="1279" x2="1326" y2="1279" stroke="white" stroke-width="2"/>
<line x1="-40" y1="1287" x2="1326" y2="1287" stroke="white" stroke-width="2"/>
<line x1="-40" y1="1295" x2="1326" y2="1295" stroke="white" stroke-width="2"/>
<line x1="-40" y1="1303" x2="1326" y2="1303" stroke="white" stroke-width="2"/>
<line x1="-40" y1="1311" x2="1326" y2="1311" stroke="white" stroke-width="2"/>
<line x1="-40" y1="1319" x2="1326" y2="1319" stroke="white" stroke-width="2"/>
<line x1="-40" y1="1327" x2="1326" y2="1327" stroke="white" stroke-width="2"/>
</g>
</g>
</svg>
