<svg width="208" height="116" viewBox="0 0 208 116" fill="none" xmlns="http://www.w3.org/2000/svg">
<path d="M161.532 12.539L172.596 0.737549L184.397 12.539H161.532Z" fill="#131C20"/>
<line x1="162.27" y1="12.539" x2="3.05821e-05" y2="12.539" stroke="#405C6B" stroke-width="1.47518"/>
<rect y="11.8014" width="206.525" height="51.6312" fill="#131C20"/>
<path opacity="0.6" d="M0 63.4326H208V102.525L201.362 108.426L194.723 115.064H0V63.4326Z" fill="#131C20"/>
<path d="M38.0608 33.3772V35.3941H29.9934V39.4277H36.0439V41.4446H29.9934V45.4783H38.0608V47.4951H27.9765V33.3772H38.0608ZM42.0945 35.3941V45.4783H47.1366V44.4699H48.145V36.4025H47.1366V35.3941H42.0945ZM40.0776 47.4951V33.3772H48.145V34.3856H49.1534V35.3941H50.1618V45.4783H49.1534V46.4867H48.145V47.4951H40.0776ZM54.1955 47.4951V45.4783H56.2124V35.3941H54.1955V33.3772H60.246V35.3941H58.2292V45.4783H60.246V47.4951H54.1955ZM68.3134 35.3941H64.2797V33.3772H74.364V35.3941H70.3303V47.4951H68.3134V35.3941ZM90.4987 35.3941V39.4277H95.5408V38.4193H96.5492V36.4025H95.5408V35.3941H90.4987ZM90.4987 41.4446V47.4951H88.4819V33.3772H96.5492V34.3856H97.5577V35.3941H98.5661V39.4277H97.5577V40.4362H96.5492V41.4446H90.4987ZM102.6 35.3941V39.4277H107.642V38.4193H108.65V36.4025H107.642V35.3941H102.6ZM103.608 41.4446H102.6V47.4951H100.583V33.3772H108.65V34.3856H109.659V35.3941H110.667V39.4277H109.659V40.4362H108.65V41.4446H106.633V42.453H107.642V43.4614H108.65V44.4699H109.659V45.4783H110.667V47.4951H108.65V46.4867H107.642V45.4783H106.633V44.4699H105.625V43.4614H104.617V42.453H103.608V41.4446ZM119.743 35.3941H115.709V36.4025H114.701V44.4699H115.709V45.4783H119.743V44.4699H120.751V36.4025H119.743V35.3941ZM114.701 34.3856V33.3772H120.751V34.3856H121.76V35.3941H122.768V45.4783H121.76V46.4867H120.751V47.4951H114.701V46.4867H113.692V45.4783H112.684V35.3941H113.692V34.3856H114.701ZM134.869 33.3772V35.3941H126.802V39.4277H132.852V41.4446H126.802V47.4951H124.785V33.3772H134.869ZM138.903 47.4951V45.4783H140.92V35.3941H138.903V33.3772H144.953V35.3941H142.937V45.4783H144.953V47.4951H138.903ZM148.987 47.4951V33.3772H151.004V45.4783H159.071V47.4951H148.987ZM171.172 33.3772V35.3941H163.105V39.4277H169.156V41.4446H163.105V45.4783H171.172V47.4951H161.088V33.3772H171.172Z" fill="#7A8589"/>
<path opacity="0.3" d="M194.724 114.326L207.263 101.787V63.4326H0.737793V114.326H194.724Z" fill="#131C20"/>
<path d="M28.1379 94.7007V80.5828H30.1547V92.6838H38.2221V94.7007H28.1379ZM47.2979 82.5996H43.2642V83.608H42.2558V91.6754H43.2642V92.6838H47.2979V91.6754H48.3063V83.608H47.2979V82.5996ZM42.2558 81.5912V80.5828H48.3063V81.5912H49.3147V82.5996H50.3232V92.6838H49.3147V93.6923H48.3063V94.7007H42.2558V93.6923H41.2474V92.6838H40.239V82.5996H41.2474V81.5912H42.2558ZM61.4158 82.5996H62.4242V84.6165H60.4074V83.608H59.399V82.5996H55.3653V83.608H54.3569V91.6754H55.3653V92.6838H59.399V91.6754H60.4074V88.6502H57.3821V86.6333H62.4242V92.6838H61.4158V93.6923H60.4074V94.7007H54.3569V93.6923H53.3484V92.6838H52.34V82.5996H53.3484V81.5912H54.3569V80.5828H60.4074V81.5912H61.4158V82.5996ZM71.5 82.5996H67.4663V83.608H66.4579V91.6754H67.4663V92.6838H71.5V91.6754H72.5085V83.608H71.5V82.5996ZM66.4579 81.5912V80.5828H72.5085V81.5912H73.5169V82.5996H74.5253V92.6838H73.5169V93.6923H72.5085V94.7007H66.4579V93.6923H65.4495V92.6838H64.4411V82.5996H65.4495V81.5912H66.4579ZM77.5506 92.6838H76.5421V80.5828H78.559V91.6754H79.5674V92.6838H83.6011V91.6754H84.6095V80.5828H86.6264V92.6838H85.6179V93.6923H84.6095V94.7007H78.559V93.6923H77.5506V92.6838ZM92.6769 82.5996H88.6432V80.5828H98.7274V82.5996H94.6937V94.7007H92.6769V82.5996Z" fill="#7A8589"/>
<line x1="173.117" y1="0.521554" x2="161.316" y2="12.323" stroke="#405C6B" stroke-width="1.47518"/>
<line x1="207.323" y1="102.053" x2="195.521" y2="113.855" stroke="#405C6B" stroke-width="1.47518"/>
<line y1="-0.737589" x2="16.6897" y2="-0.737589" transform="matrix(0.707107 0.707107 0.707107 -0.707107 172.596 0)" stroke="#405C6B" stroke-width="1.47518"/>
<line x1="196.199" y1="114.326" x2="0.000152641" y2="114.326" stroke="#405C6B" stroke-width="1.47518"/>
<line x1="206.525" y1="12.539" x2="182.922" y2="12.539" stroke="#405C6B" stroke-width="1.47518"/>
<line x1="0.737589" y1="11.8014" x2="0.737589" y2="115.064" stroke="#405C6B" stroke-width="1.47518"/>
<line x1="207.262" y1="11.8014" x2="207.262" y2="103.262" stroke="#405C6B" stroke-width="1.47518"/>
<line y1="11.7919" x2="162" y2="11.7919" stroke="#405C6B" stroke-width="1.48"/>
</svg>
