<svg xmlns="http://www.w3.org/2000/svg" width="1366" height="93" fill="none" viewBox="0 0 1366 93"><mask id="mask0" width="1366" height="93" x="0" y="0" mask-type="alpha" maskUnits="userSpaceOnUse"><path fill="#000A0F" d="M58 50L51.5 57H0V0H1366V57H1315L1308 50H1107.5L1074.5 93H293L259.5 50H58Z"/></mask><g mask="url(#mask0)"><path fill="#000A0F" d="M58 49.5L50.5 57H0V0H1366V57H1315.5L1308 49.5H1107L1073.5 92H293L259.5 49.5H58Z"/><line x2="11.314" y1="-.5" y2="-.5" stroke="#405C6B" transform="matrix(0.707107 -0.707107 -0.707107 -0.707107 50 57)"/><line x1="1315.65" x2="1307.65" y1="57.354" y2="49.354" stroke="#405C6B"/><line x1="293.368" x2="259.605" y1="92.724" y2="49.307" stroke="#405C6B"/><line x2="54.999" y1="-.5" y2="-.5" stroke="#405C6B" transform="matrix(0.613872 -0.789406 -0.789406 -0.613872 1073 92.4169)"/><g opacity=".015"><line x2="1366" y1="7" y2="7" stroke="#fff" stroke-width="2"/><line x2="1366" y1="15" y2="15" stroke="#fff" stroke-width="2"/><line x2="1366" y1="23" y2="23" stroke="#fff" stroke-width="2"/><line x2="1366" y1="31" y2="31" stroke="#fff" stroke-width="2"/><line x2="1366" y1="39" y2="39" stroke="#fff" stroke-width="2"/><line x2="1366" y1="47" y2="47" stroke="#fff" stroke-width="2"/><line x2="1366" y1="55" y2="55" stroke="#fff" stroke-width="2"/><line x2="1366" y1="63" y2="63" stroke="#fff" stroke-width="2"/><line x2="1366" y1="71" y2="71" stroke="#fff" stroke-width="2"/><line x2="1366" y1="79" y2="79" stroke="#fff" stroke-width="2"/><line x2="1366" y1="87" y2="87" stroke="#fff" stroke-width="2"/></g></g></svg>