<svg width="97" height="37" viewBox="0 0 97 37" fill="none" xmlns="http://www.w3.org/2000/svg">
<path d="M0 30.0813V15.0406H2.90236V11.4309H6.5685V8.42276H90.4315V11.4309H94.2504V15.1911H97V30.3821H94.2504V34.2927H90.737V37H6.5685V34.4431H2.90236V30.0813H0Z" fill="#00425E"/>
<path d="M0 21.6585V6.61789H2.90236V3.00813H6.5685V0H90.4315V3.00813H94.2504V6.76829H97V21.9593H94.2504V25.8699H90.737V28.5772H6.5685V26.0203H2.90236V21.6585H0Z" fill="#3dbef5"/>
<path d="M36.3559 2.85771V0.150391H27.1906V2.85771H25.9685V4.66259H32.9953V2.85771H36.3559Z" fill="#BAEAFF" fill-opacity="0.5"/>
<path d="M24.8991 6.31708H23.3716H16.6503V8.87399H10.9983V10.8293H7.94322V15.3415H2.29125V16.6951L0.30542 16.2439V20.9065L3.20778 21.3577V22.8618H9.77629V12.6342H17.2613H18.1779V10.8293H21.3857V8.87399H24.8991V6.31708Z" fill="#BAEAFF" fill-opacity="0.5"/>
<path d="M5.80464 6.61789H0.30542V16.9959H2.59676V15.3415H8.24873V10.9797H11.4566V8.72358H16.8031V6.31707H24.2881V3.76016H5.80464V6.61789Z" fill="#BAEAFF"/>
<path d="M39.5372 11.3828H37.1935V11.9688H36.6075V16.6562H37.1935V17.2422H39.5372V16.6562H40.1232V11.9688H39.5372V11.3828ZM36.6075 10.7969V10.2109H40.1232V10.7969H40.7091V11.3828H41.295V17.2422H40.7091V17.8281H40.1232V18.4141H36.6075V17.8281H36.0216V17.2422H35.4357V11.3828H36.0216V10.7969H36.6075ZM43.6388 17.2422V18.4141H42.4669V10.2109H43.6388V15.4844H44.2247V14.8984H44.8107V14.3125H45.3966V13.7266H45.9825V13.1406H46.5685V12.5547H47.1544V11.9688H48.3263V13.1406H47.7404V13.7266H47.1544V14.3125H46.5685V14.8984H45.9825V15.4844H46.5685V16.0703H47.1544V16.6562H47.7404V17.2422H48.3263V18.4141H47.1544V17.8281H46.5685V17.2422H45.9825V16.6562H45.3966V16.0703H44.8107V16.6562H44.2247V17.2422H43.6388ZM51.256 17.2422H53.5997V16.6562H54.1857V15.4844H53.5997V14.8984H51.256V15.4844H50.67V16.6562H51.256V17.2422ZM50.67 18.4141V17.8281H50.0841V17.2422H49.4982V14.8984H50.0841V14.3125H50.67V13.7266H53.5997V14.3125H54.1857V13.1406H53.5997V12.5547H50.67V11.3828H54.1857V11.9688H54.7716V12.5547H55.3575V18.4141H54.1857V17.8281H53.5997V18.4141H50.67ZM57.7013 18.4141V17.2422H60.631V16.6562H61.2169V14.8984H60.631V15.4844H60.045V16.0703H57.7013V15.4844H57.1154V14.8984H56.5294V11.3828H57.7013V14.3125H58.2872V14.8984H59.4591V14.3125H60.045V13.7266H60.631V12.5547H61.2169V11.3828H62.3888V17.2422H61.8029V17.8281H61.2169V18.4141H57.7013Z" fill="#131C20"/>
</svg>
