<svg width="383" height="50" viewBox="0 0 383 50" fill="none" xmlns="http://www.w3.org/2000/svg">
<path d="M84.1787 0H89.3784L86.1478 5.0123C84.7941 7.01107 84.1172 8.08733 82.7942 9.99385H49.2273C47.4736 12.0234 46.5814 13.0689 44.7969 15.0369L40.3664 19.9877H70.0259C68.6414 21.9865 67.9337 23.0627 66.5184 24.9693H60.365C58.8882 26.968 58.1498 28.0443 56.6422 29.9816H31.567L27.1981 34.9631L22.7984 39.9754H62.5187L59.1343 45.0185L55.7807 49.9693H0L4.73813 45.0185L9.5378 39.9754L14.2759 34.9939L18.9833 29.9816L23.783 24.9693L28.4903 19.9877L33.1977 15.0369L37.9973 9.99385L42.7355 5.0123L47.4736 0H84.1787Z" fill="#35A4D3"/>
<path d="M133.16 0H138.452C137.775 1.99877 137.406 3.07503 136.698 5.0123C135.99 6.94957 135.683 8.08733 134.975 9.99385C134.267 11.9004 133.929 13.0689 133.252 14.9754L131.498 19.9877C130.791 21.9865 130.452 23.0627 129.776 24.9692L128.022 29.92C127.345 31.9496 126.976 32.9951 126.268 34.9631C125.56 36.9311 125.253 38.0381 124.545 39.9446H117.869L115.961 44.9569H102.331L100.085 49.9385H86.1478L88.763 44.9569H75.164L78.2407 39.9446H71.5642L74.6409 34.9631L77.7176 29.92L80.7943 24.9692L83.871 19.9877L86.9477 14.9754L90.0245 9.99385L93.1012 5.0123C94.3626 3.01353 95.0087 1.93727 96.1779 0H106.639C105.5 1.99877 104.946 3.07503 103.839 5.0123L101.531 10.0554L98.7623 15.0369C97.6547 17.0357 97.1009 18.1119 95.9625 20.0492L93.1935 25.0308L90.4244 29.9815L87.6554 35.0246H94.1165L91.409 39.9754H104.608L106.854 34.9938H113.346L115.469 29.9508L117.53 25L119.622 20.0184C120.453 18.0197 120.853 16.9434 121.715 15.0061C122.576 13.0689 122.945 11.9311 123.776 10.0246L125.868 5.04305L127.96 0H133.16Z" fill="#35A4D3"/>
<path d="M182.295 0H187.494C187.494 1.99877 187.494 3.07503 187.494 5.0123C187.494 6.94957 187.494 8.08733 187.494 9.99385H153.835L152.604 15.0369L151.435 19.9877H181.126L180.818 24.9692H174.664L174.203 29.9815H149.128L147.989 34.9631C147.528 36.9619 147.282 38.0381 146.82 39.9446H186.541C186.541 41.9742 186.541 43.0197 186.541 44.9877C186.541 46.9557 186.541 48.0627 186.541 49.9385H130.544C131.16 47.9705 131.437 46.8635 132.052 44.9877L133.56 39.9754C134.175 37.9766 134.452 36.9004 135.067 34.9938L136.544 30.0123L138.082 25L139.559 20.0184C140.175 18.0504 140.451 16.9434 141.067 15.0676C141.682 13.1919 141.959 11.9926 142.574 10.0246C143.19 8.05658 143.467 6.94957 144.082 5.04305C144.697 3.13653 144.974 1.96802 145.59 0.0307503H182.295V0Z" fill="#35A4D3"/>
<path d="M231.276 0H236.506C237.122 1.99877 237.429 3.07503 238.014 5.0123C238.598 6.94957 238.937 8.08733 239.521 9.99385C240.106 11.9004 240.444 13.0689 241.029 15.0369C241.614 17.0049 241.921 18.1119 242.537 19.9877L244.013 24.9692L245.552 29.9815L247.029 34.9631C247.644 36.9619 247.921 38.0381 248.536 39.9446L250.044 44.9877C250.628 46.9557 250.936 48.0627 251.551 49.9385H223.676C223.369 47.9705 223.215 46.8635 222.876 44.9877H216.108C215.831 42.9582 215.708 41.9127 215.462 39.9446C215.215 37.9766 215.092 36.8696 214.815 34.9631L214.2 29.9815C213.923 27.9828 213.8 26.9065 213.554 24.9692C213.308 23.032 213.154 21.8942 212.908 19.9877L212.293 15.0369C212.016 13.0074 211.893 11.9619 211.646 9.99385C211.4 8.02583 211.247 6.91882 211 5.0123H205.555L206.139 9.99385C206.324 12.0234 206.416 13.0689 206.631 15.0369L207.093 19.9877L207.554 24.9692L208.016 29.9815L208.477 34.9631L208.816 39.9754L209.216 44.9877L209.677 49.9385H195.832C195.832 47.9705 195.832 46.8635 195.832 44.9877C195.832 43.1119 195.832 41.9127 195.832 39.9446C195.832 37.9766 195.832 36.8696 195.832 34.9631C195.832 33.0566 195.832 31.8881 195.832 29.9815C195.832 28.075 195.832 26.9065 195.832 24.9692C195.832 23.032 195.832 21.8942 195.832 19.9877C195.832 18.0812 195.832 16.9127 195.832 15.0369C195.832 13.1611 195.832 11.9619 195.832 9.99385C195.832 8.02583 195.832 6.91882 195.832 5.0123C195.832 3.10578 195.832 1.93727 195.832 0H216.754C217.092 1.99877 217.246 3.07503 217.585 5.0123H222.969C223.338 7.01107 223.553 8.08733 223.923 9.99385C224.292 11.9004 224.538 13.0689 224.938 15.0369C225.338 17.0049 225.522 18.1119 225.892 19.9877L226.876 24.9692C227.276 26.968 227.461 28.0443 227.861 29.9815L227.676 34.9631L228.661 39.9754L229.645 45.0184H236.506C236.045 42.9889 235.799 41.9434 235.337 39.9754C234.876 38.0074 234.629 36.9004 234.168 34.9938L233.03 30.0123L231.86 25L230.753 19.9877L229.584 15.0369C229.122 13.0074 228.876 11.9619 228.415 9.99385L227.276 5.0123L226.076 0H231.276Z" fill="#35A4D3"/>
<path d="M280.319 0H285.611L288.687 5.0123L291.764 9.99385C293.026 11.9619 293.641 13.0689 294.841 14.9754H289.21L286.134 10.0554H275.088L277.704 15.0369L280.319 20.0492C281.334 22.048 281.857 23.1242 282.903 25.0308L285.488 29.9816L288.103 35.0246L290.718 39.9754L293.302 44.957L295.918 49.9693H281.949L279.703 44.957C278.78 42.9582 278.35 41.8819 277.457 39.9754C276.565 38.0689 276.104 36.9004 275.211 34.9939C274.319 33.0873 273.827 31.9188 272.935 29.9508C272.042 27.9828 271.581 26.8758 270.689 25C269.796 23.1242 269.335 21.925 268.443 20.0185C267.55 18.1119 267.058 16.9434 266.166 15.0062L263.92 10.0246H252.721L254.628 15.0062H248.906C248.198 13.0074 247.86 11.9311 247.152 10.0246C246.444 8.11808 246.137 6.94957 245.429 5.04305L243.675 0H280.319Z" fill="#35A4D3"/>
<path d="M334.008 5.0738H339.484L344.192 10.0554L348.93 15.0369H337.392L332.992 10.0554H310.748L314.44 15.0369C315.947 17.0357 316.686 18.1119 318.163 20.0492H347.668L352.252 25.0308H358.406L363.052 29.9816L367.821 35.0246L372.651 39.9754L377.358 44.957H370.528L375.112 49.9693H333.3L329.762 44.957H323.055C321.732 42.9582 321.055 41.8819 319.701 39.9754L316.378 34.9939H329.208L332.9 39.9754H359.39L354.991 34.9939L350.56 29.9508H325.485L321.793 25H315.64C314.255 23.0012 313.548 21.925 312.132 20.0185H306.225L302.841 15.0062C301.518 13.0074 300.841 11.9311 299.487 10.0246L296.164 5.0738H301.518C300.133 3.07503 299.425 2.06027 297.979 0H329.423L334.008 5.0738Z" fill="#35A4D3"/>
<path d="M63.4729 0L61.7191 1.75277H51.9044L49.4431 4.21279H43.4435L47.5355 0.123001L63.4729 0Z" fill="#BAEAFF"/>
<path d="M45.4431 3.50562L14.7683 35.9164L13.23 36.0087L43.4433 4.21287L45.4431 3.50562Z" fill="#BAEAFF"/>
<path d="M100.855 0L99.3162 2.52153H95.9318L88.0862 15.2829H86.9478L96.4856 0H100.855Z" fill="#BAEAFF"/>
<path d="M130.668 0L129.406 2.52153L127.96 2.39852L126.883 5.04305H125.837L127.991 0H130.668Z" fill="#BAEAFF"/>
<path d="M260.628 0L261.797 2.33702L246.69 2.55228L251.028 15.1292H248.998L243.706 0H260.628Z" fill="#BAEAFF"/>
<path d="M161.65 0L160.881 2.52153H155.958L155.281 5.04305H150.266L149.22 8.97909H142.913L145.651 0H161.65Z" fill="#BAEAFF"/>
<path d="M211.77 0L212.262 2.24477H197.555L198.048 11.6236H194.817L194.602 0H211.77Z" fill="#BAEAFF"/>
<path d="M311.178 0L314.317 6.21156L301.671 6.73432L307.456 14.2681L302.656 14.6986L296.195 5.04305L301.395 4.98155L298.103 0H311.178Z" fill="#BAEAFF"/>
</svg>
