<svg width="163" height="162" viewBox="0 0 163 162" fill="none" xmlns="http://www.w3.org/2000/svg">
<line x1="14" y1="1" x2="-8.74229e-08" y2="0.999999" stroke="#35A4D3" stroke-width="2"/>
<line x1="163" y1="1" x2="149" y2="0.999999" stroke="#35A4D3" stroke-width="2"/>
<line x1="1" y1="14" x2="0.999999" y2="4.37114e-08" stroke="#35A4D3" stroke-width="2"/>
<line x1="162" y1="14" x2="162" y2="4.37114e-08" stroke="#35A4D3" stroke-width="2"/>
<line y1="-1" x2="14" y2="-1" transform="matrix(-1 8.74229e-08 8.74229e-08 1 14 162)" stroke="#35A4D3" stroke-width="2"/>
<line y1="-1" x2="14" y2="-1" transform="matrix(-1 8.74229e-08 8.74229e-08 1 163 162)" stroke="#35A4D3" stroke-width="2"/>
<line y1="-1" x2="14" y2="-1" transform="matrix(-4.37114e-08 1 1 4.37114e-08 2 148)" stroke="#35A4D3" stroke-width="2"/>
<line y1="-1" x2="14" y2="-1" transform="matrix(-4.37114e-08 1 1 4.37114e-08 163 148)" stroke="#35A4D3" stroke-width="2"/>
</svg>
