<svg width="163" height="162" viewBox="0 0 163 162" fill="none" xmlns="http://www.w3.org/2000/svg">
<line x1="14" y1="1" x2="-8.74229e-08" y2="0.999999" stroke="#35A4D3" stroke-width="2"/>
<line x1="141" y1="10" x2="22" y2="10" stroke="#35A4D3" stroke-width="2"/>
<line x1="114" y1="0.5" x2="49" y2="0.499991" stroke="#35A4D3"/>
<line x1="138" y1="160.5" x2="24" y2="160.5" stroke="#35A4D3"/>
<line x1="6.5" y1="24" x2="6.5" y2="138" stroke="#35A4D3"/>
<line x1="156.5" y1="24" x2="156.5" y2="138" stroke="#35A4D3"/>
<line y1="-1" x2="119" y2="-1" transform="matrix(-1 0 0 1 141 152.9)" stroke="#35A4D3" stroke-width="2"/>
<line x1="23.1924" y1="10.6075" x2="13.2929" y2="0.708003" stroke="#35A4D3" stroke-width="2"/>
<line y1="-1" x2="14" y2="-1" transform="matrix(-0.707107 0.707107 0.707107 0.707107 23.8995 152)" stroke="#35A4D3" stroke-width="2"/>
<line y1="-1" x2="14" y2="-1" transform="matrix(0.707107 -0.707107 -0.707107 -0.707107 139 9.90039)" stroke="#35A4D3" stroke-width="2"/>
<line x1="139.707" y1="151.293" x2="149.607" y2="161.192" stroke="#35A4D3" stroke-width="2"/>
<line x1="163" y1="1" x2="149" y2="0.999999" stroke="#35A4D3" stroke-width="2"/>
<line x1="1" y1="14" x2="0.999999" y2="4.37114e-08" stroke="#35A4D3" stroke-width="2"/>
<line x1="1" y1="148" x2="1.00001" y2="14" stroke="#35A4D3" stroke-width="2"/>
<line x1="162" y1="148" x2="162" y2="14" stroke="#35A4D3" stroke-width="2"/>
<line x1="162" y1="14" x2="162" y2="4.37114e-08" stroke="#35A4D3" stroke-width="2"/>
<line y1="-1" x2="14" y2="-1" transform="matrix(-1 8.74229e-08 8.74229e-08 1 14 162)" stroke="#35A4D3" stroke-width="2"/>
<line y1="-1" x2="14" y2="-1" transform="matrix(-1 8.74229e-08 8.74229e-08 1 163 162)" stroke="#35A4D3" stroke-width="2"/>
<line y1="-1" x2="14" y2="-1" transform="matrix(-4.37114e-08 1 1 4.37114e-08 2 148)" stroke="#35A4D3" stroke-width="2"/>
<line y1="-1" x2="14" y2="-1" transform="matrix(-4.37114e-08 1 1 4.37114e-08 163 148)" stroke="#35A4D3" stroke-width="2"/>
</svg>
