<svg width="122" height="45" viewBox="0 0 122 45" fill="none" xmlns="http://www.w3.org/2000/svg">
<path d="M29.1054 5.08063H24.9822H21.1015H16.9782H13.0975H9.21677H5.09351V9.19353V13.0645H9.21677H13.0975H16.9782V17.1774V21.0484V24.9193V29.0322V32.9032V37.0161H13.0975H9.21677H5.09351V40.8871V45H9.21677H13.0975H16.9782H21.1015H24.9822H29.1054H32.9862H37.1094V40.8871V37.0161H32.9862H29.1054H24.9822V32.9032V29.0322V24.9193V21.0484V17.1774V13.0645H29.1054H32.9862H37.1094V9.19353V5.08063H32.9862H29.1054Z" fill="#001D29"/>
<path d="M75.4315 9.19353H71.3082V5.08063H67.4275H63.5468H59.4235H55.5428H51.6621H47.5388V9.19353V13.0645V17.1774V21.0484V24.9193V29.0322V32.9032V36.7742V40.8871V44.758H51.6621H55.5428H59.4235H63.5468H67.4275H71.3082V40.8871H75.4315V36.7742H79.3122V32.9032V29.0322V24.9193V21.0484V17.1774V13.0645H75.4315V9.19353ZM71.5507 17.1774V21.0484V24.9193V29.0322V32.9032V36.7742H67.67H63.7893H59.6661H55.7853V32.9032V29.0322V24.9193V21.0484V17.1774V13.0645H59.6661H63.7893H67.67H71.5507V17.1774Z" fill="#00425E"/>
<path d="M117.877 5.08063H113.996H109.873H105.992H101.869H97.9881H93.8649H89.9841V9.19353V13.0645V17.1774V21.0484V24.9193V29.0322V32.9032V37.0161V40.8871V45H93.8649H97.9881H101.869H105.992H109.873H113.996H117.877H122V40.8871V37.0161H117.877H113.996H109.873H105.992H101.869H97.9881V32.9032V29.0322H101.869H105.992H109.873H113.996V24.9193H117.877V21.0484H113.996H109.873H105.992H101.869H97.9881V17.1774V13.0645H101.869H105.992H109.873H113.996H117.877H122V9.19353V5.08063H117.877Z" fill="#00425E"/>
<path d="M0 39.6774L5.09344 45H37.1093L31.7734 39.6774H0Z" fill="#001D29"/>
<path d="M31.7734 31.9355L37.1094 37.0161V45L31.7734 39.6774V31.9355Z" fill="#00425E"/>
<path d="M19.8887 7.98383L24.9821 13.0645V37.0161L19.8887 31.6935V7.98383Z" fill="#00425E"/>
<path d="M31.7734 7.98387L37.1094 13.0645V5.08064L31.7734 0V7.98387Z" fill="#00425E"/>
<path d="M0 7.98383L5.09344 13.0645H16.9781L11.8847 7.98383H0Z" fill="#001D29"/>
<path d="M66.2147 0L71.5507 5.08064H47.5388L42.4453 0H66.2147Z" fill="#00425E"/>
<path d="M66.2148 4.11292L71.5508 9.19356H75.4315L70.3381 4.11292H66.2148Z" fill="#00425E"/>
<path d="M75.4315 13.0645H79.5548L75.4315 9.19354H71.5508L75.4315 13.0645Z" fill="#00425E"/>
<path d="M71.5509 13.0645L66.2149 7.98383H50.4495L55.5429 13.0645H71.5509Z" fill="#001D29"/>
<path d="M50.4495 7.98383L55.5429 13.0645V37.0161L50.4495 31.6935V7.98383Z" fill="#00425E"/>
<path d="M74.2188 31.6935L79.5547 37.0161V13.0645L74.2188 7.98383V31.6935Z" fill="#00425E"/>
<path d="M70.3379 31.6935L75.4313 37.0161H79.5546L74.2186 31.6935H70.3379Z" fill="#001D29"/>
<path d="M70.3379 35.8064L75.4313 40.8871V37.0161L70.3379 31.6935V35.8064Z" fill="#00425E"/>
<path d="M66.2148 35.8065L71.5508 40.8871H75.4315L70.3381 35.8065H66.2148Z" fill="#001D29"/>
<path d="M66.2148 39.6774L71.5508 45V40.8871L66.2148 35.8065V39.6774Z" fill="#00425E"/>
<path d="M42.4453 39.6774L47.5388 45H71.5507L66.2147 39.6774H42.4453Z" fill="#001D29"/>
<path d="M84.8906 39.6774L89.9841 45H122L116.664 39.6774H84.8906Z" fill="#001D29"/>
<path d="M116.664 31.6935L122 37.0161V45L116.664 39.6774V31.6935Z" fill="#00425E"/>
<path d="M108.66 23.9516L113.996 29.0322H97.9882L92.8948 23.9516H108.66Z" fill="#001D29"/>
<path d="M92.8948 31.6935L97.9882 37.0161V29.0322L92.8948 23.9516V31.6935Z" fill="#00425E"/>
<path d="M112.783 19.8387L117.877 24.9194H113.996L108.66 19.8387H112.783Z" fill="#001D29"/>
<path d="M108.66 23.9516V19.8387L113.996 24.9194V29.0323L108.66 23.9516Z" fill="#00425E"/>
<path d="M112.783 15.9678L117.877 21.0484V24.9194L112.783 19.8387V15.9678Z" fill="#00425E"/>
<path d="M92.8948 7.98383L97.9882 13.0645V21.0483L92.8948 15.9677V7.98383Z" fill="#00425E"/>
<path d="M116.664 7.98383L122 13.0645H97.9882L92.8948 7.98383H116.664Z" fill="#001D29"/>
<path d="M116.664 0L122 5.08064V13.0645L116.664 7.98387V0Z" fill="#00425E"/>
<path d="M24.0119 0H19.8887H16.008H11.8847H8.00398H4.12326H3.88072H0V4.1129V7.98387H3.88072H4.12326H8.00398H11.8847V11.8548V15.9677V19.8387V23.9516V27.8226V31.6936H8.00398H3.88072V31.9355H0V35.8065V39.6774H3.88072H4.12326H8.00398H11.8847H16.008H19.8887H24.0119H27.8926H31.7734V35.8065V31.9355H27.8926V31.6936H24.0119H19.8887V27.8226V23.9516V19.8387V15.9677V11.8548V7.98387H24.0119H27.8926H31.7734V4.1129V0H27.8926H24.0119Z" fill="#3dbef5"/>
<path d="M70.338 4.1129H66.2147V0H62.334H58.4533H54.33H50.4493H46.5686H42.4453V4.1129V7.98387V12.0968V15.9677V19.8387V23.9516V27.8226V31.6936V35.8065V39.6774H46.5686H50.4493H54.33H58.4533H62.334H66.2147V35.8065H70.338V31.6936H74.2187V27.8226V23.9516V19.8387V15.9677V11.8548V7.98387H70.338V4.1129ZM66.2147 11.8548V15.7258V19.5968V23.7097V27.5806V31.4516H62.334H58.4533H54.33H50.4493V27.5806V23.9516V19.8387V15.9677V11.8548V7.98387H54.33H58.4533H62.334H66.2147V11.8548Z" fill="#3dbef5"/>
<path d="M112.783 0H108.66H104.779H100.656H96.7753H92.8946H88.7713H84.8906V4.1129V7.98387V11.8548V15.9677V19.8387V23.9516V27.8226V31.6936V35.8065V39.6774H88.7713H92.8946H96.7753H100.656H104.779H108.66H112.783H116.664V35.8065V31.6936H112.783H108.66H104.779H100.656H96.7753H92.8946V27.8226V23.9516H96.7753H100.656H104.779H108.66V19.8387H112.783V15.9677H108.66H104.779H100.656H96.7753H92.8946V11.8548V7.98387H96.7753H100.656H104.779H108.66H112.783H116.664V4.1129V0H112.783Z" fill="#3dbef5"/>
<rect x="87" y="1" width="27" height="3" fill="#BAEAFF"/>
<rect x="2" y="1" width="27" height="3" fill="#BAEAFF"/>
<rect x="44" y="1" width="20" height="3" fill="#BAEAFF"/>
</svg>
