<svg width="383" height="50" viewBox="0 0 383 50" fill="none" xmlns="http://www.w3.org/2000/svg">
<g clip-path="url(#clip0)">
<path d="M122.999 0H133.727L131.785 5.04305L129.905 9.99385H38.0713L42.7878 5.04305C44.699 3.01353 45.6547 1.96802 47.5968 0H122.999ZM104.812 39.9754H118.375L116.464 44.9877L114.553 49.9692H0L4.71652 44.9877L9.49469 39.9754H104.812ZM122.999 0L120.225 5.90406L118.375 9.99385H95.5635L92.4808 15.0369L89.3981 20.0185C88.2266 21.9865 87.6409 23.0935 86.3154 24.9692L83.2327 30.0123L80.15 34.9939L77.0673 39.9754H104.812L100.28 50H14.242C17.7871 46.0025 19.5443 43.8499 23.0585 39.9754H50.3095L54.0088 34.9939L57.6772 30.0123L61.4072 24.9692L65.0756 20.0185C66.5245 18.0197 67.2643 16.9434 68.744 15.0369L72.4433 9.99385H49.4772L58.2937 0H123.03H122.999Z" fill="#35A4D3"/>
<path d="M225.931 9.99385H237.367C237.922 12.0234 238.23 13.0689 238.785 15.0369C239.34 17.0049 239.648 18.1119 240.203 20.0185C240.758 21.925 241.067 23.0935 241.621 24.9692C242.176 26.845 242.485 28.0443 243.07 30.0123C243.656 31.9803 243.903 33.0873 244.488 34.9939C245.074 36.9004 245.321 38.0689 245.906 39.9754H232.373L233.452 45.0185H219.364C219.642 47.0172 219.796 48.0935 220.073 50H134.22C134.775 48.0012 135.053 46.925 135.638 45.0185C136.224 43.1119 136.502 41.9434 137.057 39.9754C137.611 38.0074 137.92 36.9004 138.475 34.9939C139.029 33.0873 139.338 31.9188 139.893 30.0123C140.447 28.1058 140.756 26.9373 141.341 24.9692C141.927 23.0012 142.174 21.8942 142.76 20.0185L144.147 15.0369C144.732 13.0381 145.01 11.9619 145.596 9.99385C146.181 8.02583 146.428 6.91882 147.014 5.04305C147.599 3.16728 147.969 1.99877 148.432 0H212.952C213.23 1.99877 213.384 3.07503 213.661 5.04305H225.037C225.314 7.01107 225.53 8.02583 225.931 9.99385ZM215.11 15.0369C214.802 13.0381 214.679 11.9619 214.37 9.99385H168.562C168.284 12.0234 168.13 13.0689 167.853 15.0369C167.575 17.0049 167.421 18.1119 167.144 20.0185C166.866 21.925 166.712 23.0935 166.435 24.9692C166.157 26.845 166.003 28.0443 165.726 30.0123C165.448 31.9803 165.294 33.0873 165.017 34.9939C164.739 36.9004 164.585 38.0689 164.308 39.9754H218.655L217.946 34.9939C217.669 32.9951 217.515 31.9188 217.237 30.0123C216.96 28.1058 216.806 26.9373 216.528 24.9692C216.251 23.0012 216.097 21.8942 215.819 20.0185L215.11 15.0369Z" fill="#35A4D3"/>
<path d="M324.577 0H335.305L340.083 5.04305L344.83 9.99385H276.024L278.676 15.0369L281.296 20.0185H342.179L346.556 24.9692H333.917L338.017 30.0123H286.691L289.311 34.9939L291.777 39.9754H373.345L378.154 45.0185L382.87 50H268.349L266.437 45.0185C265.667 43.0197 265.297 41.9434 264.526 39.9754L262.615 34.9939L260.703 30.0123L258.946 24.9692L257.035 20.0185L255.124 15.0369L253.213 9.99385L251.301 5.04305C250.376 3.07503 250.007 1.99877 249.236 0H324.577Z" fill="#35A4D3"/>
<path d="M38.0715 9.99385H40.9693L45.655 4.24354H49.1384L53.3925 0H47.597L38.0715 9.99385Z" fill="#BAEAFF"/>
<path d="M50.217 1.07626H95.5018L96.9507 0H52.4674L50.217 1.07626Z" fill="#BAEAFF"/>
<path d="M271.092 0L272.017 2.30627L264.31 2.49077L265.42 5.56581L257.713 5.5043L259.286 9.7171H252.935L249.298 0H271.092Z" fill="#BAEAFF"/>
<path d="M165.633 0L165.202 2.24477H153.179L151.422 11.6236H144.948L148.401 0H165.633Z" fill="#BAEAFF"/>
</g>
<defs>
<clipPath id="clip0">
<rect width="382.87" height="50" fill="white"/>
</clipPath>
</defs>
</svg>
