<svg xmlns="http://www.w3.org/2000/svg" width="163" height="162" fill="none" viewBox="0 0 163 162"><line x1="14" x2="0" y1="1" y2="1" stroke="#35A4D3" stroke-width="2"/><line x1="163" x2="149" y1="1" y2="1" stroke="#35A4D3" stroke-width="2"/><line x1="1" x2="1" y1="14" y2="0" stroke="#35A4D3" stroke-width="2"/><line x1="162" x2="162" y1="14" y2="0" stroke="#35A4D3" stroke-width="2"/><line x2="14" y1="-1" y2="-1" stroke="#35A4D3" stroke-width="2" transform="matrix(-1 8.74229e-08 8.74229e-08 1 14 162)"/><line x2="14" y1="-1" y2="-1" stroke="#35A4D3" stroke-width="2" transform="matrix(-1 8.74229e-08 8.74229e-08 1 163 162)"/><line x2="14" y1="-1" y2="-1" stroke="#35A4D3" stroke-width="2" transform="matrix(-4.37114e-08 1 1 4.37114e-08 2 148)"/><line x2="14" y1="-1" y2="-1" stroke="#35A4D3" stroke-width="2" transform="matrix(-4.37114e-08 1 1 4.37114e-08 163 148)"/></svg>