<svg xmlns="http://www.w3.org/2000/svg" width="163" height="162" fill="none" viewBox="0 0 163 162"><line x1="14" x2="0" y1="1" y2="1" stroke="#35A4D3" stroke-width="2"/><line x1="141" x2="22" y1="10" y2="10" stroke="#35A4D3" stroke-width="2"/><line x1="114" x2="49" y1=".5" y2=".5" stroke="#35A4D3"/><line x1="138" x2="24" y1="160.5" y2="160.5" stroke="#35A4D3"/><line x1="6.5" x2="6.5" y1="24" y2="138" stroke="#35A4D3"/><line x1="156.5" x2="156.5" y1="24" y2="138" stroke="#35A4D3"/><line x2="119" y1="-1" y2="-1" stroke="#35A4D3" stroke-width="2" transform="matrix(-1 0 0 1 141 152.9)"/><line x1="23.192" x2="13.293" y1="10.607" y2=".708" stroke="#35A4D3" stroke-width="2"/><line x2="14" y1="-1" y2="-1" stroke="#35A4D3" stroke-width="2" transform="matrix(-0.707107 0.707107 0.707107 0.707107 23.8995 152)"/><line x2="14" y1="-1" y2="-1" stroke="#35A4D3" stroke-width="2" transform="matrix(0.707107 -0.707107 -0.707107 -0.707107 139 9.90039)"/><line x1="139.707" x2="149.607" y1="151.293" y2="161.192" stroke="#35A4D3" stroke-width="2"/><line x1="163" x2="149" y1="1" y2="1" stroke="#35A4D3" stroke-width="2"/><line x1="1" x2="1" y1="14" y2="0" stroke="#35A4D3" stroke-width="2"/><line x1="1" x2="1" y1="148" y2="14" stroke="#35A4D3" stroke-width="2"/><line x1="162" x2="162" y1="148" y2="14" stroke="#35A4D3" stroke-width="2"/><line x1="162" x2="162" y1="14" y2="0" stroke="#35A4D3" stroke-width="2"/><line x2="14" y1="-1" y2="-1" stroke="#35A4D3" stroke-width="2" transform="matrix(-1 8.74229e-08 8.74229e-08 1 14 162)"/><line x2="14" y1="-1" y2="-1" stroke="#35A4D3" stroke-width="2" transform="matrix(-1 8.74229e-08 8.74229e-08 1 163 162)"/><line x2="14" y1="-1" y2="-1" stroke="#35A4D3" stroke-width="2" transform="matrix(-4.37114e-08 1 1 4.37114e-08 2 148)"/><line x2="14" y1="-1" y2="-1" stroke="#35A4D3" stroke-width="2" transform="matrix(-4.37114e-08 1 1 4.37114e-08 163 148)"/></svg>