<svg width="51" height="50" viewBox="0 0 51 50" fill="none" xmlns="http://www.w3.org/2000/svg">
<path d="M17.0794 2.29823V5.56004L10.3331 5.93071L9.96247 8.67372L6.70065 10.5271L5.51444 11.8614L4.84731 14.7527L3.66109 16.606L1.06641 19.1266L1.80774 26.3917L2.40085 30.7656L3.66109 32.5448L5.51444 35.0654L7.29376 40.3288L10.3331 43.2201L17.0794 46.2596L18.6363 47.6681H33.0182L33.9077 46.2596L40.5798 43.2201L44.2125 39.5134L47.2518 32.5448L49.1052 20.8317L47.2518 16.606L45.3985 13.7148L44.2125 10.5271L42.3591 8.08061L40.5798 6.89449L37.2438 5.56004L33.9077 4.59636L33.5371 2.81713L28.4219 1.18622L17.0794 2.29823Z" fill="#131C20"/>
<path d="M20.4896 0H16.8569V3.63258H20.4896V0Z" fill="#35A4D3"/>
<path d="M24.1217 0H20.4893V3.63258H24.1217V0Z" fill="#35A4D3"/>
<path d="M27.4582 0H23.8257V3.63258H27.4582V0Z" fill="#35A4D3"/>
<path d="M30.8685 0H27.2358V3.63258H30.8685V0Z" fill="#35A4D3"/>
<path d="M33.5373 0H29.9048V3.63258H33.5373V0Z" fill="#35A4D3"/>
<path d="M37.2433 3.7067H33.6108V7.33927H37.2433V3.7067Z" fill="#35A4D3"/>
<path d="M40.8763 3.7067H37.2437V7.33927H40.8763V3.7067Z" fill="#35A4D3"/>
<path d="M44.2123 6.8945H40.5796V10.5271H44.2123V6.8945Z" fill="#35A4D3"/>
<path d="M47.2516 10.0081H43.6191V13.6406H47.2516V10.0081Z" fill="#35A4D3"/>
<path d="M47.2516 12.8993H43.6191V16.5319H47.2516V12.8993Z" fill="#35A4D3"/>
<path d="M50.8846 16.606H47.252V20.2386H50.8846V16.606Z" fill="#35A4D3"/>
<path d="M50.8846 19.4972H47.252V23.1298H50.8846V19.4972Z" fill="#35A4D3"/>
<path d="M50.8846 22.7592H47.252V26.3917H50.8846V22.7592Z" fill="#35A4D3"/>
<path d="M50.8846 25.8727H47.252V29.5053H50.8846V25.8727Z" fill="#35A4D3"/>
<path d="M47.2827 28.9446V32.5773H50.9153V28.9446H47.2827Z" fill="#35A4D3"/>
<path d="M43.5762 32.5773V36.2097H47.2087V32.5773H43.5762Z" fill="#35A4D3"/>
<path d="M43.6138 35.8757V39.5081H47.2463V35.8757H43.6138Z" fill="#35A4D3"/>
<path d="M43.5635 36.6673V40.2998H47.1961V36.6673H43.5635Z" fill="#35A4D3"/>
<path d="M40.542 39.5499V43.1826H44.1746V39.5499H40.542Z" fill="#35A4D3"/>
<path d="M36.9185 42.9515V46.5841H40.551V42.9515H36.9185Z" fill="#35A4D3"/>
<path d="M33.6201 42.9151V46.5476H37.2527V42.9151H33.6201Z" fill="#35A4D3"/>
<path d="M30.1611 46.3252V49.9578H33.7937V46.3252H30.1611Z" fill="#35A4D3"/>
<path d="M27.1914 46.3205V49.9531H30.824V46.3205H27.1914Z" fill="#35A4D3"/>
<path d="M23.4526 46.363V49.9957H28.4196V46.363H23.4526Z" fill="#35A4D3"/>
<path d="M20.4595 46.3353V49.9678H24.0921V46.3353H20.4595Z" fill="#35A4D3"/>
<path d="M17.0029 46.363V49.9957H20.6355V46.363H17.0029Z" fill="#35A4D3"/>
<path d="M30.4593 3.71375L34.0918 3.71375V0.0811675L30.4593 0.0811675V3.71375Z" fill="#35A4D3"/>
<path d="M26.8265 3.71375L30.459 3.71375V0.0811675L26.8265 0.0811675V3.71375Z" fill="#35A4D3"/>
<path d="M23.4315 3.71375L27.064 3.71375V0.0811675L23.4315 0.0811675V3.71375Z" fill="#35A4D3"/>
<path d="M20.036 3.71375L23.6685 3.71375V0.0811675L20.036 0.0811675V3.71375Z" fill="#35A4D3"/>
<path d="M17.3826 3.71375L21.0151 3.71375V0.0811675L17.3826 0.0811675V3.71375Z" fill="#35A4D3"/>
<path d="M13.6764 7.34607L17.3091 7.34607V3.71349L13.6764 3.71349V7.34607Z" fill="#35A4D3"/>
<path d="M10.0441 7.34607L13.6768 7.34607V3.71349L10.0441 3.71349V7.34607Z" fill="#35A4D3"/>
<path d="M6.70931 10.4913H10.3418V6.85872H6.70931V10.4913Z" fill="#35A4D3"/>
<path d="M3.67934 13.7106H7.31201L7.31201 10.078H3.67934L3.67934 13.7106Z" fill="#35A4D3"/>
<path d="M3.67934 16.6246H7.31201L7.31201 12.9921H3.67934L3.67934 16.6246Z" fill="#35A4D3"/>
<path d="M0.0470192 20.257H3.67969L3.67969 16.6244H0.0470192L0.0470192 20.257Z" fill="#35A4D3"/>
<path d="M0.0470192 23.1876H3.67969L3.67969 19.555H0.0470192L0.0470192 23.1876Z" fill="#35A4D3"/>
<path d="M0.0470192 26.4016H3.67969L3.67969 22.769H0.0470192L0.0470192 26.4016Z" fill="#35A4D3"/>
<path d="M0.0470192 29.5606H3.67969L3.67969 25.9281H0.0470192L0.0470192 29.5606Z" fill="#35A4D3"/>
<path d="M0 28.9593L0 32.5919H3.63258L3.63258 28.9593H0Z" fill="#35A4D3"/>
<path d="M3.63281 32.5918L3.63281 36.2244H7.26539V32.5918H3.63281Z" fill="#35A4D3"/>
<path d="M3.67041 35.8902L3.67041 39.5228H7.30299V35.8902H3.67041Z" fill="#35A4D3"/>
<path d="M3.61963 36.6818L3.61963 40.3145H7.25221V36.6818H3.61963Z" fill="#35A4D3"/>
<path d="M6.66797 39.555V43.1875H10.3005V39.555H6.66797Z" fill="#35A4D3"/>
<path d="M10.3833 42.956V46.5887H14.0159V42.956H10.3833Z" fill="#35A4D3"/>
<path d="M13.6812 42.9184V46.551H17.3137V42.9184H13.6812Z" fill="#35A4D3"/>
<path d="M17.0176 46.3035V49.9359H20.6502V46.3035H17.0176Z" fill="#35A4D3"/>
<path d="M19.9878 46.3078V49.9403H23.6204V46.3078H19.9878Z" fill="#35A4D3"/>
<path d="M22.54 46.3393V49.9719H27.507V46.3393H22.54Z" fill="#35A4D3"/>
<path d="M26.7188 46.3675V50H30.3513V46.3675H26.7188Z" fill="#35A4D3"/>
<path d="M30.1753 46.3396V49.9723H33.8079V46.3396H30.1753Z" fill="#35A4D3"/>
<path fill-rule="evenodd" clip-rule="evenodd" d="M36.843 23.0228H14.1948V31.6506H19.2281V38.1216H25.699V34.8861H30.7318V38.1216H35.7648V31.6506H36.843V23.0228Z" fill="#38A5D4"/>
<path fill-rule="evenodd" clip-rule="evenodd" d="M21.385 10.081V10.081H21.025V13.3164H22.8225V11.8784L30.7319 11.8784V13.3164H32.5293V10.081H32.1698V10.081L21.385 10.081ZM19.2275 16.9114H21.025V11.519H19.2275V16.9114ZM19.2275 38.1216H17.43V33.4481H14.195L14.195 31.6507H17.43L17.43 20.1468H14.195V31.6506H12.3975V19.7873H14.195L14.195 18.3494H17.43V15.1139H19.2275V38.1216L25.6984 38.1216L25.6984 39.919H19.2275V38.1216ZM35.405 16.5519H34.3268V16.9114H32.5293V11.519H34.3268V13.3164H35.7649V15.1139H37.2024V38.1216H35.7648V39.919H30.7318V38.1216H28.9344V34.8861H30.7318V38.1216H35.405V16.5519ZM27.4962 38.1216H25.6987V34.8861H27.4962V38.1216ZM27.1368 34.8861V33.0886H32.5293V34.8861H27.1368Z" fill="black"/>
<path fill-rule="evenodd" clip-rule="evenodd" d="M24.6204 11.1594H22.8229V29.8531H24.6204V11.1594ZM21.0248 12.9569H22.8223V26.6177H21.0248V25.1797H19.2279V16.5519H21.0248V12.9569ZM14.1948 20.1468H15.6329H15.9923H17.4304V23.3822H15.9923V24.8202H14.1948V20.1468ZM26.4173 11.1594H24.6204V29.8531H26.4173V31.6506H28.2148V11.1594H26.4179H26.4173ZM30.0123 11.1594H28.2154V31.6506H30.0123H30.0129H31.8098V11.1594H30.0129H30.0123ZM33.6079 12.5974H31.8104V29.8532H33.6079V25.1797H35.4048V16.1923H33.6079V12.5974Z" fill="#BAEAFF"/>
<rect x="27.4961" y="16.5519" width="9.70636" height="5.39242" fill="#38A5D4"/>
<rect x="29.1812" y="16.608" width="7.92573" height="3.72976" fill="#BAEAFF"/>
<rect x="30.7319" y="17.2709" width="5.75191" height="1.43798" fill="white"/>
<path fill-rule="evenodd" clip-rule="evenodd" d="M37.2025 14.7544V16.5519L27.4961 16.5519V14.7544L37.2025 14.7544ZM25.6987 21.9443H27.4961V23.3823L37.2025 23.3823V21.5848H27.4962V16.5519H25.6987V21.9443ZM38.9999 21.9443H37.2025V16.5519H38.9999V21.9443Z" fill="black"/>
</svg>
