<svg width="1919" height="123" viewBox="0 0 1919 123" fill="none" xmlns="http://www.w3.org/2000/svg">
<mask id="mask0" mask-type="alpha" maskUnits="userSpaceOnUse" x="0" y="0" width="1919" height="123">
<path d="M1838.22 13.3459H70.944H0V122.923H1919V2.10725L1848.06 0L1838.22 13.3459Z" fill="#000A0F"/>
</mask>
<g mask="url(#mask0)">
<path d="M1838.92 13.3466H70.944H0V122.923H1919V2.10791H1848.06L1838.92 13.3466Z" fill="#000A0F"/>
<line x1="70.2417" y1="14.0477" x2="1838.92" y2="14.0479" stroke="#405C6B" stroke-width="1.40556"/>
<line y1="-0.702782" x2="16.0175" y2="-0.702782" transform="matrix(0.613941 -0.789352 -0.789352 -0.613941 1837.52 14.7505)" stroke="#405C6B" stroke-width="1.40556"/>
<g opacity="0.015">
<line y1="-0.702439" x2="1919" y2="-0.702439" stroke="white" stroke-width="2.81113"/>
<line y1="10.5358" x2="1919" y2="10.5358" stroke="white" stroke-width="2.81113"/>
<line y1="21.7751" x2="1919" y2="21.7751" stroke="white" stroke-width="2.81113"/>
<line y1="33.0134" x2="1919" y2="33.0134" stroke="white" stroke-width="2.81113"/>
<line y1="44.2522" x2="1919" y2="44.2522" stroke="white" stroke-width="2.81113"/>
<line y1="55.4909" x2="1919" y2="55.4909" stroke="white" stroke-width="2.81113"/>
<line y1="66.7292" x2="1919" y2="66.7292" stroke="white" stroke-width="2.81113"/>
<line y1="77.968" x2="1919" y2="77.968" stroke="white" stroke-width="2.81113"/>
<line y1="89.2067" x2="1919" y2="89.2067" stroke="white" stroke-width="2.81113"/>
<line y1="100.445" x2="1919" y2="100.445" stroke="white" stroke-width="2.81113"/>
<line y1="111.684" x2="1919" y2="111.684" stroke="white" stroke-width="2.81113"/>
<line y1="122.923" x2="1919" y2="122.923" stroke="white" stroke-width="2.81113"/>
</g>
</g>
<rect x="1403.43" y="3.51221" width="400.377" height="22.4773" fill="black"/>
<path opacity="0.7" d="M1414.37 10.0088L1416.32 16.0044L1418.43 10.0088H1420.32V22H1418.84V17.215L1418.96 12.2077L1416.75 18.6645H1415.87L1413.84 12.3807L1413.96 17.215V22H1412.48V10.0088H1414.37ZM1428.55 18.8951H1424.54L1423.58 22H1422.06L1425.93 10.0088H1427.21L1431.01 22H1429.49L1428.55 18.8951ZM1424.96 17.5692H1428.14L1426.56 12.3642L1424.96 17.5692ZM1432.8 22V10.0088H1435.57C1436.41 10.0198 1437.15 10.1625 1437.8 10.437C1438.46 10.7061 1439.02 11.0849 1439.47 11.5736C1439.92 12.0567 1440.27 12.6387 1440.51 13.3195C1440.75 13.9949 1440.87 14.7443 1440.88 15.5679V16.4491C1440.87 17.2727 1440.75 18.0249 1440.51 18.7057C1440.27 19.381 1439.92 19.963 1439.47 20.4517C1439.02 20.9348 1438.46 21.3137 1437.8 21.5882C1437.15 21.8572 1436.41 21.9945 1435.57 22H1432.8ZM1434.35 11.2606V20.7564H1435.57C1436.22 20.7509 1436.78 20.6384 1437.25 20.4187C1437.72 20.1936 1438.11 19.8889 1438.42 19.5046C1438.74 19.1202 1438.97 18.6673 1439.11 18.1457C1439.27 17.6241 1439.35 17.0586 1439.35 16.4491V15.5514C1439.35 14.942 1439.27 14.3792 1439.11 13.8631C1438.96 13.3415 1438.73 12.8913 1438.42 12.5124C1438.11 12.1281 1437.72 11.8261 1437.25 11.6065C1436.78 11.3869 1436.22 11.2716 1435.57 11.2606H1434.35ZM1449.68 16.4574H1444.67V20.707H1450.51V22H1443.15V10.0088H1450.44V11.31H1444.67V15.1643H1449.68V16.4574ZM1469.29 18.7551L1470.2 10.0088H1471.65L1470.19 22H1468.63L1467.09 12.9654L1465.53 22H1463.97L1462.51 10.0088H1463.96L1464.88 18.7551L1466.42 10.0088H1467.74L1469.29 18.7551ZM1473.47 10.0088H1480.72V11.3347H1477.85V20.6823H1480.72V22H1473.47V20.6823H1476.28V11.3347H1473.47V10.0088ZM1491.69 11.31H1487.98V22H1486.5V11.31H1482.8V10.0088H1491.69V11.31ZM1501.25 22H1499.81V16.4574H1494.89V22H1493.46V10.0088H1494.89V15.1643H1499.81V10.0088H1501.25V22ZM1534.24 22V10.0088H1537.8C1538.3 10.0143 1538.78 10.0802 1539.25 10.2064C1539.72 10.3272 1540.14 10.5167 1540.51 10.7747C1540.88 11.0328 1541.17 11.3622 1541.39 11.763C1541.61 12.1638 1541.72 12.6442 1541.71 13.2042C1541.71 13.5172 1541.66 13.8027 1541.56 14.0608C1541.46 14.3188 1541.33 14.5522 1541.16 14.7608C1541 14.9639 1540.8 15.1424 1540.58 15.2961C1540.35 15.4499 1540.11 15.5816 1539.86 15.6914C1540.18 15.7848 1540.47 15.9193 1540.73 16.095C1541 16.2652 1541.23 16.4738 1541.43 16.7209C1541.62 16.9625 1541.77 17.237 1541.87 17.5445C1541.98 17.8519 1542.04 18.1841 1542.04 18.541C1542.04 19.101 1541.93 19.5952 1541.71 20.0234C1541.5 20.4517 1541.2 20.8113 1540.83 21.1023C1540.47 21.3878 1540.04 21.6074 1539.56 21.7612C1539.08 21.9149 1538.59 21.9945 1538.07 22H1534.24ZM1535.77 16.3915V20.707H1538.12C1538.43 20.7015 1538.74 20.6493 1539.02 20.5505C1539.31 20.4462 1539.56 20.3034 1539.78 20.1223C1540 19.9411 1540.17 19.7187 1540.3 19.4552C1540.43 19.1916 1540.5 18.8924 1540.5 18.5575C1540.5 18.2171 1540.44 17.9151 1540.32 17.6515C1540.21 17.388 1540.05 17.1656 1539.84 16.9844C1539.63 16.7978 1539.38 16.655 1539.1 16.5562C1538.82 16.4574 1538.52 16.4025 1538.2 16.3915H1535.77ZM1535.77 15.1232H1537.89C1538.18 15.1177 1538.46 15.0738 1538.73 14.9914C1539.01 14.9036 1539.25 14.78 1539.47 14.6208C1539.68 14.4561 1539.85 14.2557 1539.99 14.0196C1540.12 13.7835 1540.18 13.509 1540.18 13.196C1540.18 12.8611 1540.12 12.5756 1539.99 12.3395C1539.86 12.1034 1539.69 11.9112 1539.47 11.763C1539.25 11.6093 1539 11.4967 1538.72 11.4253C1538.44 11.354 1538.15 11.3155 1537.85 11.31H1535.77V15.1232ZM1547.92 16.0291L1550.65 10.0088H1552.38L1548.65 17.528L1548.62 22H1547.21L1547.18 17.528L1543.45 10.0088H1545.19L1547.92 16.0291ZM1572.15 22H1570.61L1565.95 13.0395L1565.93 22H1564.39V10.0088H1565.94L1570.59 18.9528L1570.61 10.0088H1572.15V22ZM1574.77 10.0088H1582.02V11.3347H1579.15V20.6823H1582.02V22H1574.77V20.6823H1577.58V11.3347H1574.77V10.0088ZM1584.89 22V10.0088H1588.45C1588.95 10.0143 1589.43 10.0802 1589.9 10.2064C1590.37 10.3272 1590.79 10.5167 1591.16 10.7747C1591.53 11.0328 1591.82 11.3622 1592.04 11.763C1592.26 12.1638 1592.37 12.6442 1592.36 13.2042C1592.36 13.5172 1592.31 13.8027 1592.21 14.0608C1592.11 14.3188 1591.98 14.5522 1591.81 14.7608C1591.65 14.9639 1591.45 15.1424 1591.23 15.2961C1591 15.4499 1590.76 15.5816 1590.51 15.6914C1590.83 15.7848 1591.12 15.9193 1591.38 16.095C1591.65 16.2652 1591.88 16.4738 1592.08 16.7209C1592.27 16.9625 1592.42 17.237 1592.52 17.5445C1592.63 17.8519 1592.69 18.1841 1592.69 18.541C1592.69 19.101 1592.58 19.5952 1592.36 20.0234C1592.14 20.4517 1591.85 20.8113 1591.48 21.1023C1591.12 21.3878 1590.69 21.6074 1590.21 21.7612C1589.73 21.9149 1589.23 21.9945 1588.72 22H1584.89ZM1586.42 16.3915V20.707H1588.77C1589.08 20.7015 1589.39 20.6493 1589.67 20.5505C1589.96 20.4462 1590.21 20.3034 1590.43 20.1223C1590.65 19.9411 1590.82 19.7187 1590.95 19.4552C1591.08 19.1916 1591.15 18.8924 1591.15 18.5575C1591.15 18.2171 1591.09 17.9151 1590.97 17.6515C1590.86 17.388 1590.7 17.1656 1590.49 16.9844C1590.28 16.7978 1590.03 16.655 1589.75 16.5562C1589.47 16.4574 1589.17 16.4025 1588.85 16.3915H1586.42ZM1586.42 15.1232H1588.54C1588.83 15.1177 1589.11 15.0738 1589.38 14.9914C1589.66 14.9036 1589.9 14.78 1590.12 14.6208C1590.33 14.4561 1590.5 14.2557 1590.63 14.0196C1590.77 13.7835 1590.83 13.509 1590.83 13.196C1590.83 12.8611 1590.77 12.5756 1590.63 12.3395C1590.51 12.1034 1590.34 11.9112 1590.12 11.763C1589.9 11.6093 1589.65 11.4967 1589.37 11.4253C1589.09 11.354 1588.8 11.3155 1588.5 11.31H1586.42V15.1232ZM1595.02 22V10.0088H1598.58C1599.08 10.0143 1599.56 10.0802 1600.03 10.2064C1600.5 10.3272 1600.92 10.5167 1601.29 10.7747C1601.66 11.0328 1601.95 11.3622 1602.17 11.763C1602.39 12.1638 1602.5 12.6442 1602.49 13.2042C1602.49 13.5172 1602.44 13.8027 1602.34 14.0608C1602.24 14.3188 1602.11 14.5522 1601.94 14.7608C1601.78 14.9639 1601.58 15.1424 1601.36 15.2961C1601.13 15.4499 1600.89 15.5816 1600.64 15.6914C1600.96 15.7848 1601.25 15.9193 1601.51 16.095C1601.78 16.2652 1602.01 16.4738 1602.21 16.7209C1602.4 16.9625 1602.55 17.237 1602.65 17.5445C1602.76 17.8519 1602.82 18.1841 1602.82 18.541C1602.82 19.101 1602.71 19.5952 1602.49 20.0234C1602.27 20.4517 1601.98 20.8113 1601.61 21.1023C1601.25 21.3878 1600.82 21.6074 1600.34 21.7612C1599.86 21.9149 1599.36 21.9945 1598.85 22H1595.02ZM1596.55 16.3915V20.707H1598.9C1599.21 20.7015 1599.52 20.6493 1599.8 20.5505C1600.09 20.4462 1600.34 20.3034 1600.56 20.1223C1600.78 19.9411 1600.95 19.7187 1601.08 19.4552C1601.21 19.1916 1601.28 18.8924 1601.28 18.5575C1601.28 18.2171 1601.22 17.9151 1601.1 17.6515C1600.99 17.388 1600.83 17.1656 1600.62 16.9844C1600.41 16.7978 1600.16 16.655 1599.88 16.5562C1599.6 16.4574 1599.3 16.4025 1598.98 16.3915H1596.55ZM1596.55 15.1232H1598.67C1598.96 15.1177 1599.24 15.0738 1599.51 14.9914C1599.79 14.9036 1600.03 14.78 1600.25 14.6208C1600.46 14.4561 1600.63 14.2557 1600.76 14.0196C1600.9 13.7835 1600.96 13.509 1600.96 13.196C1600.96 12.8611 1600.9 12.5756 1600.76 12.3395C1600.64 12.1034 1600.47 11.9112 1600.25 11.763C1600.03 11.6093 1599.78 11.4967 1599.5 11.4253C1599.22 11.354 1598.93 11.3155 1598.63 11.31H1596.55V15.1232ZM1606.88 20.707H1612.75V22H1605.36V10.0088H1606.88V20.707ZM1621.89 16.4574H1616.88V20.707H1622.72V22H1615.36V10.0088H1622.65V11.31H1616.88V15.1643H1621.89V16.4574ZM1643.32 18.3928C1643.25 18.9473 1643.1 19.4579 1642.89 19.9246C1642.68 20.3858 1642.4 20.7839 1642.05 21.1188C1641.71 21.4482 1641.3 21.7063 1640.83 21.8929C1640.36 22.0741 1639.84 22.1647 1639.27 22.1647C1638.77 22.1647 1638.32 22.0961 1637.92 21.9588C1637.52 21.8161 1637.16 21.6212 1636.84 21.3741C1636.52 21.127 1636.25 20.836 1636.02 20.5011C1635.8 20.1662 1635.61 19.8011 1635.45 19.4057C1635.31 19.0104 1635.19 18.5959 1635.12 18.1622C1635.04 17.7284 1635.01 17.2892 1635 16.8444V15.1726C1635.01 14.7279 1635.04 14.2886 1635.12 13.8549C1635.19 13.4211 1635.31 13.0066 1635.45 12.6113C1635.61 12.216 1635.8 11.8508 1636.02 11.5159C1636.25 11.1755 1636.52 10.8818 1636.84 10.6347C1637.16 10.3876 1637.52 10.1955 1637.92 10.0582C1638.32 9.91545 1638.77 9.84407 1639.27 9.84407C1639.87 9.84407 1640.4 9.93741 1640.87 10.1241C1641.34 10.3053 1641.75 10.5661 1642.09 10.9065C1642.43 11.2414 1642.7 11.6449 1642.91 12.1171C1643.12 12.5893 1643.25 13.1109 1643.32 13.6819H1641.8C1641.75 13.3195 1641.66 12.9819 1641.54 12.6689C1641.42 12.356 1641.26 12.0814 1641.05 11.8454C1640.85 11.6093 1640.6 11.4253 1640.3 11.2936C1640.01 11.1563 1639.67 11.0877 1639.27 11.0877C1638.9 11.0877 1638.58 11.1481 1638.3 11.2689C1638.03 11.3842 1637.79 11.5434 1637.59 11.7465C1637.39 11.9497 1637.22 12.1858 1637.08 12.4548C1636.95 12.7238 1636.85 13.0093 1636.76 13.3113C1636.68 13.6133 1636.62 13.9235 1636.58 14.2419C1636.55 14.5549 1636.53 14.8596 1636.53 15.1561V16.8444C1636.53 17.1409 1636.55 17.4484 1636.58 17.7668C1636.62 18.0798 1636.68 18.39 1636.76 18.6975C1636.85 18.9995 1636.95 19.285 1637.08 19.554C1637.22 19.823 1637.38 20.0619 1637.59 20.2705C1637.79 20.4736 1638.03 20.6356 1638.3 20.7564C1638.58 20.8717 1638.9 20.9294 1639.27 20.9294C1639.67 20.9294 1640.01 20.8662 1640.3 20.7399C1640.6 20.6137 1640.85 20.438 1641.05 20.2128C1641.26 19.9822 1641.42 19.7132 1641.54 19.4057C1641.66 19.0928 1641.75 18.7551 1641.8 18.3928H1643.32ZM1653.48 16.6962C1653.48 17.1245 1653.44 17.5582 1653.37 17.9974C1653.3 18.4312 1653.2 18.8512 1653.05 19.2575C1652.91 19.6638 1652.73 20.0426 1652.5 20.394C1652.28 20.7454 1652.02 21.0529 1651.71 21.3164C1651.4 21.58 1651.05 21.7886 1650.65 21.9423C1650.25 22.0906 1649.81 22.1647 1649.31 22.1647C1648.82 22.1647 1648.37 22.0906 1647.97 21.9423C1647.58 21.7886 1647.23 21.58 1646.92 21.3164C1646.61 21.0529 1646.34 20.7454 1646.12 20.394C1645.89 20.0372 1645.71 19.6556 1645.56 19.2493C1645.42 18.843 1645.31 18.423 1645.24 17.9892C1645.17 17.5555 1645.13 17.1245 1645.12 16.6962V15.3291C1645.13 14.9008 1645.16 14.4698 1645.23 14.0361C1645.3 13.5968 1645.41 13.174 1645.55 12.7678C1645.7 12.3615 1645.88 11.9826 1646.1 11.6312C1646.33 11.2743 1646.59 10.9641 1646.9 10.7006C1647.21 10.4316 1647.56 10.2229 1647.96 10.0747C1648.36 9.92094 1648.8 9.84407 1649.3 9.84407C1649.79 9.84407 1650.24 9.92094 1650.64 10.0747C1651.04 10.2229 1651.4 10.4288 1651.7 10.6924C1652.01 10.9559 1652.27 11.2661 1652.49 11.623C1652.72 11.9744 1652.9 12.3532 1653.05 12.7595C1653.19 13.1658 1653.3 13.5886 1653.37 14.0278C1653.44 14.4671 1653.48 14.9008 1653.48 15.3291V16.6962ZM1651.97 15.3126C1651.97 15.0271 1651.95 14.7306 1651.92 14.4231C1651.88 14.1102 1651.83 13.8027 1651.74 13.5007C1651.67 13.1933 1651.56 12.9023 1651.43 12.6277C1651.3 12.3477 1651.13 12.1034 1650.94 11.8948C1650.74 11.6806 1650.51 11.5132 1650.24 11.3924C1649.97 11.2661 1649.65 11.203 1649.3 11.203C1648.95 11.203 1648.64 11.2661 1648.37 11.3924C1648.1 11.5187 1647.86 11.6889 1647.67 11.903C1647.47 12.1116 1647.3 12.356 1647.17 12.636C1647.04 12.9105 1646.93 13.2015 1646.85 13.509C1646.78 13.8109 1646.72 14.1184 1646.68 14.4314C1646.65 14.7388 1646.63 15.0326 1646.62 15.3126V16.6962C1646.63 16.9762 1646.65 17.2727 1646.68 17.5857C1646.72 17.8986 1646.78 18.2088 1646.86 18.5163C1646.94 18.8183 1647.05 19.1093 1647.18 19.3893C1647.31 19.6693 1647.48 19.9164 1647.68 20.1305C1647.87 20.3391 1648.11 20.5066 1648.38 20.6329C1648.64 20.7592 1648.96 20.8223 1649.31 20.8223C1649.67 20.8223 1649.98 20.7592 1650.25 20.6329C1650.53 20.5066 1650.76 20.3391 1650.95 20.1305C1651.15 19.9164 1651.31 19.672 1651.44 19.3975C1651.57 19.1175 1651.68 18.8265 1651.75 18.5245C1651.83 18.2171 1651.89 17.9068 1651.92 17.5939C1651.95 17.2809 1651.97 16.9817 1651.97 16.6962V15.3126ZM1657.48 10.0088L1659.44 16.0044L1661.54 10.0088H1663.44V22H1661.96V17.215L1662.08 12.2077L1659.86 18.6645H1658.99L1656.96 12.3807L1657.08 17.215V22H1655.6V10.0088H1657.48ZM1667.61 17.1903V22H1666.08V10.0088H1669.97C1670.51 10.0198 1671.02 10.1049 1671.49 10.2641C1671.98 10.4233 1672.4 10.6539 1672.76 10.9559C1673.12 11.2579 1673.41 11.6312 1673.62 12.076C1673.83 12.5207 1673.94 13.0313 1673.94 13.6078C1673.94 14.1843 1673.83 14.6949 1673.62 15.1396C1673.41 15.5789 1673.12 15.9495 1672.76 16.2515C1672.4 16.5534 1671.98 16.784 1671.49 16.9433C1671.02 17.1025 1670.51 17.1848 1669.97 17.1903H1667.61ZM1667.61 15.9385H1669.97C1670.32 15.933 1670.64 15.8781 1670.94 15.7738C1671.24 15.664 1671.5 15.5102 1671.72 15.3126C1671.94 15.1149 1672.11 14.8761 1672.23 14.5961C1672.35 14.3106 1672.42 13.9866 1672.42 13.6243C1672.42 13.2619 1672.35 12.9352 1672.23 12.6442C1672.11 12.3532 1671.94 12.1061 1671.72 11.903C1671.5 11.6999 1671.24 11.5434 1670.94 11.4336C1670.64 11.3238 1670.32 11.2661 1669.97 11.2606H1667.61V15.9385ZM1683.6 10.0088L1683.62 18.1292C1683.61 18.6892 1683.5 19.2136 1683.31 19.7022C1683.12 20.1909 1682.85 20.6191 1682.5 20.987C1682.16 21.3494 1681.75 21.6376 1681.27 21.8518C1680.79 22.0604 1680.27 22.1647 1679.7 22.1647C1679.11 22.1647 1678.58 22.0604 1678.11 21.8518C1677.63 21.6431 1677.22 21.3576 1676.88 20.9952C1676.54 20.6274 1676.27 20.1991 1676.08 19.7105C1675.89 19.2163 1675.79 18.6892 1675.78 18.1292L1675.8 10.0088H1677.25L1677.28 18.1292C1677.29 18.4861 1677.34 18.8292 1677.45 19.1587C1677.56 19.4881 1677.71 19.7791 1677.91 20.0317C1678.11 20.2842 1678.36 20.4874 1678.66 20.6411C1678.96 20.7948 1679.31 20.8717 1679.7 20.8717C1680.09 20.8717 1680.43 20.7976 1680.73 20.6493C1681.02 20.4956 1681.27 20.2925 1681.47 20.0399C1681.67 19.7818 1681.82 19.4881 1681.93 19.1587C1682.03 18.8292 1682.09 18.4861 1682.1 18.1292L1682.13 10.0088H1683.6ZM1694.29 11.31H1690.58V22H1689.1V11.31H1685.4V10.0088H1694.29V11.31ZM1702.93 16.4574H1697.92V20.707H1703.76V22H1696.4V10.0088H1703.69V11.31H1697.92V15.1643H1702.93V16.4574ZM1710.43 17.108H1708.04V22H1706.52V10.0088H1710.04C1710.6 10.0198 1711.12 10.0994 1711.62 10.2476C1712.11 10.3959 1712.54 10.6182 1712.91 10.9147C1713.28 11.2112 1713.57 11.5846 1713.78 12.0348C1714 12.4795 1714.1 13.0038 1714.1 13.6078C1714.1 13.9976 1714.05 14.3545 1713.93 14.6784C1713.82 15.0024 1713.67 15.2961 1713.47 15.5597C1713.27 15.8232 1713.04 16.0566 1712.76 16.2597C1712.49 16.4628 1712.19 16.6358 1711.86 16.7786L1714.4 21.9012L1714.39 22H1712.79L1710.43 17.108ZM1708.04 15.8561H1710.08C1710.42 15.8507 1710.74 15.7985 1711.04 15.6997C1711.34 15.5954 1711.61 15.4471 1711.83 15.2549C1712.06 15.0628 1712.24 14.8294 1712.38 14.5549C1712.51 14.2749 1712.57 13.9537 1712.57 13.5913C1712.57 13.207 1712.51 12.8721 1712.38 12.5866C1712.26 12.2956 1712.08 12.054 1711.86 11.8618C1711.63 11.6642 1711.36 11.5159 1711.05 11.4171C1710.74 11.3183 1710.4 11.2661 1710.04 11.2606H1708.04V15.8561ZM1733 18.9693C1733 18.6014 1732.91 18.2912 1732.74 18.0386C1732.58 17.7861 1732.36 17.5747 1732.1 17.4045C1731.84 17.2288 1731.55 17.0833 1731.23 16.968C1730.91 16.8527 1730.61 16.7484 1730.32 16.655C1729.9 16.5178 1729.47 16.353 1729.03 16.1609C1728.59 15.9687 1728.2 15.7326 1727.83 15.4526C1727.48 15.1726 1727.18 14.8432 1726.95 14.4643C1726.73 14.08 1726.61 13.6298 1726.61 13.1137C1726.61 12.5975 1726.73 12.1363 1726.95 11.7301C1727.18 11.3238 1727.48 10.9806 1727.85 10.7006C1728.22 10.4206 1728.64 10.2092 1729.1 10.0664C1729.57 9.91819 1730.04 9.84407 1730.51 9.84407C1731.03 9.84407 1731.53 9.93192 1732.02 10.1076C1732.5 10.2778 1732.93 10.5194 1733.3 10.8324C1733.68 11.1453 1733.97 11.5242 1734.2 11.9689C1734.43 12.4136 1734.54 12.9105 1734.55 13.4596H1732.99C1732.95 13.1137 1732.86 12.8007 1732.73 12.5207C1732.61 12.2352 1732.44 11.9908 1732.23 11.7877C1732.02 11.5846 1731.77 11.4281 1731.48 11.3183C1731.2 11.203 1730.87 11.1453 1730.51 11.1453C1730.22 11.1453 1729.93 11.1865 1729.65 11.2689C1729.38 11.3512 1729.13 11.4747 1728.91 11.6395C1728.7 11.8042 1728.53 12.0073 1728.39 12.2489C1728.27 12.4905 1728.2 12.7705 1728.2 13.0889C1728.21 13.4348 1728.3 13.7286 1728.47 13.9702C1728.64 14.2063 1728.85 14.4067 1729.11 14.5714C1729.37 14.7361 1729.66 14.8734 1729.96 14.9832C1730.27 15.093 1730.55 15.1891 1730.82 15.2714C1731.12 15.3648 1731.42 15.4718 1731.72 15.5926C1732.02 15.7079 1732.31 15.8424 1732.59 15.9962C1732.87 16.1499 1733.13 16.3228 1733.38 16.515C1733.62 16.7072 1733.83 16.9268 1734.01 17.1739C1734.19 17.4154 1734.33 17.6845 1734.43 17.981C1734.53 18.272 1734.59 18.5959 1734.59 18.9528C1734.59 19.4908 1734.47 19.9603 1734.22 20.3611C1733.99 20.7619 1733.68 21.0968 1733.3 21.3658C1732.92 21.6294 1732.5 21.8298 1732.02 21.9671C1731.54 22.0988 1731.06 22.1647 1730.58 22.1647C1730.05 22.1647 1729.53 22.0824 1729.02 21.9176C1728.51 21.7529 1728.05 21.5168 1727.64 21.2094C1727.24 20.8964 1726.92 20.5176 1726.66 20.0728C1726.41 19.6226 1726.28 19.112 1726.26 18.541H1727.82C1727.87 18.9143 1727.97 19.2465 1728.12 19.5375C1728.28 19.823 1728.47 20.0673 1728.71 20.2705C1728.96 20.4682 1729.23 20.6191 1729.55 20.7235C1729.87 20.8223 1730.21 20.8717 1730.58 20.8717C1730.88 20.8717 1731.17 20.836 1731.46 20.7646C1731.75 20.6878 1732.01 20.5725 1732.23 20.4187C1732.46 20.2595 1732.64 20.0619 1732.78 19.8258C1732.93 19.5842 1733 19.2987 1733 18.9693ZM1744.65 16.6962C1744.65 17.1245 1744.61 17.5582 1744.54 17.9974C1744.47 18.4312 1744.37 18.8512 1744.22 19.2575C1744.08 19.6638 1743.9 20.0426 1743.67 20.394C1743.45 20.7454 1743.19 21.0529 1742.88 21.3164C1742.57 21.58 1742.22 21.7886 1741.82 21.9423C1741.42 22.0906 1740.98 22.1647 1740.48 22.1647C1739.99 22.1647 1739.54 22.0906 1739.14 21.9423C1738.75 21.7886 1738.39 21.58 1738.09 21.3164C1737.78 21.0529 1737.51 20.7454 1737.29 20.394C1737.06 20.0372 1736.88 19.6556 1736.73 19.2493C1736.59 18.843 1736.48 18.423 1736.41 17.9892C1736.34 17.5555 1736.3 17.1245 1736.29 16.6962V15.3291C1736.3 14.9008 1736.33 14.4698 1736.4 14.0361C1736.47 13.5968 1736.58 13.174 1736.72 12.7678C1736.87 12.3615 1737.05 11.9826 1737.27 11.6312C1737.5 11.2743 1737.76 10.9641 1738.07 10.7006C1738.38 10.4316 1738.73 10.2229 1739.12 10.0747C1739.53 9.92094 1739.97 9.84407 1740.47 9.84407C1740.96 9.84407 1741.41 9.92094 1741.81 10.0747C1742.21 10.2229 1742.56 10.4288 1742.87 10.6924C1743.18 10.9559 1743.44 11.2661 1743.66 11.623C1743.89 11.9744 1744.07 12.3532 1744.21 12.7595C1744.36 13.1658 1744.47 13.5886 1744.54 14.0278C1744.61 14.4671 1744.65 14.9008 1744.65 15.3291V16.6962ZM1743.14 15.3126C1743.14 15.0271 1743.12 14.7306 1743.09 14.4231C1743.05 14.1102 1743 13.8027 1742.91 13.5007C1742.84 13.1933 1742.73 12.9023 1742.6 12.6277C1742.47 12.3477 1742.3 12.1034 1742.11 11.8948C1741.91 11.6806 1741.68 11.5132 1741.41 11.3924C1741.14 11.2661 1740.82 11.203 1740.47 11.203C1740.12 11.203 1739.81 11.2661 1739.54 11.3924C1739.27 11.5187 1739.03 11.6889 1738.84 11.903C1738.64 12.1116 1738.47 12.356 1738.34 12.636C1738.21 12.9105 1738.1 13.2015 1738.02 13.509C1737.94 13.8109 1737.89 14.1184 1737.85 14.4314C1737.82 14.7388 1737.8 15.0326 1737.79 15.3126V16.6962C1737.8 16.9762 1737.82 17.2727 1737.85 17.5857C1737.89 17.8986 1737.95 18.2088 1738.03 18.5163C1738.11 18.8183 1738.22 19.1093 1738.35 19.3893C1738.48 19.6693 1738.65 19.9164 1738.84 20.1305C1739.04 20.3391 1739.28 20.5066 1739.54 20.6329C1739.81 20.7592 1740.13 20.8223 1740.48 20.8223C1740.84 20.8223 1741.15 20.7592 1741.42 20.6329C1741.7 20.5066 1741.93 20.3391 1742.12 20.1305C1742.32 19.9164 1742.48 19.672 1742.61 19.3975C1742.74 19.1175 1742.84 18.8265 1742.92 18.5245C1743 18.2171 1743.06 17.9068 1743.09 17.5939C1743.12 17.2809 1743.14 16.9817 1743.14 16.6962V15.3126ZM1754.75 18.3928C1754.68 18.9473 1754.53 19.4579 1754.32 19.9246C1754.11 20.3858 1753.83 20.7839 1753.48 21.1188C1753.14 21.4482 1752.73 21.7063 1752.26 21.8929C1751.79 22.0741 1751.27 22.1647 1750.7 22.1647C1750.2 22.1647 1749.75 22.0961 1749.35 21.9588C1748.94 21.8161 1748.59 21.6212 1748.27 21.3741C1747.95 21.127 1747.68 20.836 1747.45 20.5011C1747.23 20.1662 1747.04 19.8011 1746.88 19.4057C1746.73 19.0104 1746.62 18.5959 1746.55 18.1622C1746.47 17.7284 1746.44 17.2892 1746.43 16.8444V15.1726C1746.44 14.7279 1746.47 14.2886 1746.55 13.8549C1746.62 13.4211 1746.73 13.0066 1746.88 12.6113C1747.04 12.216 1747.23 11.8508 1747.45 11.5159C1747.68 11.1755 1747.95 10.8818 1748.27 10.6347C1748.59 10.3876 1748.94 10.1955 1749.35 10.0582C1749.75 9.91545 1750.2 9.84407 1750.7 9.84407C1751.29 9.84407 1751.83 9.93741 1752.3 10.1241C1752.77 10.3053 1753.18 10.5661 1753.52 10.9065C1753.86 11.2414 1754.13 11.6449 1754.34 12.1171C1754.54 12.5893 1754.68 13.1109 1754.75 13.6819H1753.22C1753.18 13.3195 1753.09 12.9819 1752.97 12.6689C1752.85 12.356 1752.69 12.0814 1752.48 11.8454C1752.28 11.6093 1752.03 11.4253 1751.73 11.2936C1751.44 11.1563 1751.1 11.0877 1750.7 11.0877C1750.33 11.0877 1750.01 11.1481 1749.73 11.2689C1749.46 11.3842 1749.22 11.5434 1749.02 11.7465C1748.82 11.9497 1748.65 12.1858 1748.51 12.4548C1748.38 12.7238 1748.27 13.0093 1748.19 13.3113C1748.11 13.6133 1748.05 13.9235 1748.01 14.2419C1747.98 14.5549 1747.96 14.8596 1747.96 15.1561V16.8444C1747.96 17.1409 1747.98 17.4484 1748.01 17.7668C1748.05 18.0798 1748.11 18.39 1748.19 18.6975C1748.27 18.9995 1748.38 19.285 1748.51 19.554C1748.65 19.823 1748.81 20.0619 1749.02 20.2705C1749.22 20.4736 1749.46 20.6356 1749.73 20.7564C1750.01 20.8717 1750.33 20.9294 1750.7 20.9294C1751.1 20.9294 1751.44 20.8662 1751.73 20.7399C1752.03 20.6137 1752.28 20.438 1752.48 20.2128C1752.69 19.9822 1752.85 19.7132 1752.97 19.4057C1753.09 19.0928 1753.18 18.7551 1753.22 18.3928H1754.75ZM1757.11 10.0088H1764.36V11.3347H1761.48V20.6823H1764.36V22H1757.11V20.6823H1759.92V11.3347H1757.11V10.0088ZM1773.84 16.4574H1768.83V20.707H1774.67V22H1767.31V10.0088H1774.6V11.31H1768.83V15.1643H1773.84V16.4574ZM1785.46 11.31H1781.75V22H1780.27V11.31H1776.56V10.0088H1785.46V11.31ZM1791.03 16.0291L1793.77 10.0088H1795.5L1791.77 17.528L1791.74 22H1790.33L1790.3 17.528L1786.57 10.0088H1788.31L1791.03 16.0291Z" fill="#7A8589"/>
<path d="M1521.71 11.8179V9.27246H1518.79V11.8179H1514.89V9.27246H1511.97V11.8179H1509.68V14.3634V16.9088H1512.41V19.4543H1515.38V21.9997H1518.3V19.4543H1521.27V16.9088H1524V14.3634V11.8179H1521.71Z" fill="#3DBEF5"/>
<path d="M1514.89 8H1512.56V10.0364H1514.89V8Z" fill="#BAEAFF"/>
<path d="M1513 8H1512V10H1513V8Z" fill="#BAEAFF"/>
<path d="M1513.68 9.01807H1511.34V11.0544H1513.68V9.01807Z" fill="#BAEAFF"/>
<path d="M1512.99 10.7153H1510.66V12.7517H1512.99V10.7153Z" fill="#BAEAFF"/>
<path d="M1511.34 11.7759H1509V13.8122H1511.34V11.7759Z" fill="#BAEAFF"/>
<path d="M1521.56 8.25439H1519.23V10.2908H1521.56V8.25439Z" fill="#BAEAFF"/>
<path d="M1519.91 8.59375H1517.57V10.6301H1519.91V8.59375Z" fill="#BAEAFF"/>
<path d="M1519.91 10.0366H1517.57V12.073H1519.91V10.0366Z" fill="#BAEAFF"/>
<path d="M1517.72 11.0542H1515.38V13.0906H1517.72V11.0542Z" fill="#BAEAFF"/>
</svg>

