<svg width="19" height="14" viewBox="0 0 19 14" fill="none" xmlns="http://www.w3.org/2000/svg">
<rect x="13.4619" width="3.76928" height="3.23081" fill="#BAEAFF"/>
<path fillRule="evenodd" clipRule="evenodd" d="M18.3994 1.0769H14V2.45162H13.1984V3.82643H17.5978V2.45172H18.3994V1.0769ZM17.5977 3.82678H11.8235V5.20149H10.4485V6.5762H8.79879V8.22598H14.848V6.85127H16.2227V5.2016H17.5977V3.82678ZM0 5.20149H4.3994V6.5762H6.04918V8.22598H0V6.85127V6.5762V5.20149ZM1.64929 8.22618H13.1977V9.60099H11.823V10.9755H3.02423V9.60099H1.64929V8.22618ZM10.4488 10.9756H4.39962V12.3504H6.04937V14.0001H8.79899V12.3504H10.4488V10.9756Z" fill="#3DBEF5"/>
<path fillRule="evenodd" clipRule="evenodd" d="M13.1983 2.45166H11.8235V3.82647H13.1983V2.45166ZM10.4485 3.82683H11.8233V5.20164H10.4485V3.82683ZM4.30775 4.30762H0V5.38456H4.30775V4.30762ZM6.0494 5.20154H4.39962V6.57635H6.04891V8.22603H8.79854V6.57635H10.4481V5.20154H8.79833V6.57625H6.0494V5.20154Z" fill="#BAEAFF"/>
</svg>
