<svg width="14" height="14" viewBox="0 0 14 14" fill="none" xmlns="http://www.w3.org/2000/svg">
<path fillRule="evenodd" clipRule="evenodd" d="M0 0H3.5V1.3125H4.59375V2.40625H5.6875V3.5H8.09375V2.40625H9.1875V1.3125H10.5V0H14V1.75H11.5938V2.84375H10.5V3.9375H8.3125V4.8125H5.25V3.9375H3.28125V2.84375H2.1875V1.75H0V0ZM4.59375 8.3125H2.1875V9.40625H1.09375V10.9375H3.5V9.84375H4.59375V8.3125Z" fill="#BAEAFF"/>
<path fillRule="evenodd" clipRule="evenodd" d="M14 0.875H10.5V2.40625H9.40625V3.5H8.09375V4.8125H5.90625V3.5H4.59375V2.40625H3.5V1.3125H0V3.5H1.09375V4.59375H2.40625V5.6875H3.5V9.1875H2.1875V10.2812H0V11.375V12.4688V14H3.5V12.4688H4.59375V11.375H5.6875V10.5H8.3125V11.375H9.40625V12.4688H10.5V14H14V12.4688V11.375V10.2812H11.8125V9.1875H10.5V8.09375V5.6875H11.5938V4.59375H12.9062V3.5H14V0.875Z" fill="#3DBEF5"/>
</svg>
