<svg width="130" height="50" viewBox="0 0 130 50" fill="none" xmlns="http://www.w3.org/2000/svg">
<mask id="mask0" mask-type="alpha" maskUnits="userSpaceOnUse" x="0" y="0" width="130" height="50">
<path fill-rule="evenodd" clip-rule="evenodd" d="M0 20.3252V8.94309L0.406494 8.94309L3.86179 8.94309V4.06504H8.73984V0H120.325V4.06504H125.407V9.14634H129.065V20.5285V29.6748V41.0569H125.407V46.3415H120.732V50H8.73984V46.5447H3.86179V40.6504H0V29.2683V20.3252Z" fill="#BAEAFF"/>
</mask>
<g mask="url(#mask0)">
<path d="M0 40.6504V20.3252H3.86179V15.4471H8.73984V11.3821H120.325V15.4471H125.407V20.5284H129.065V41.0569H125.407V46.3414H120.732V50H8.73984V46.5447H3.86179V40.6504H0Z" fill="#011F2C"/>
<path d="M3.86179 28.7683H0.5V9.44309H3.86179H4.36179V8.94309V4.56504H8.73984H9.23984V4.06504V0.5H119.825V4.06504V4.56504H120.325H124.907V9.14634V9.64634H125.407H128.565V29.1748H125.407H124.907V29.6748V34.4594H120.732H120.232V34.9594V38.1179H9.23984V35.1626V34.6626H8.73984H4.36179V29.2683V28.7683H3.86179Z" fill="#033043" stroke="#3dbef5"/>
<g opacity="0.015">
<line x1="-604" y1="4" x2="762" y2="4" stroke="white" stroke-width="2"/>
<line x1="-604" y1="12" x2="762" y2="12" stroke="white" stroke-width="2"/>
<line x1="-604" y1="20" x2="762" y2="20" stroke="white" stroke-width="2"/>
<line x1="-604" y1="28" x2="762" y2="28" stroke="white" stroke-width="2"/>
<line x1="-604" y1="36" x2="762" y2="36" stroke="white" stroke-width="2"/>
<line x1="-604" y1="44" x2="762" y2="44" stroke="white" stroke-width="2"/>
</g>
<path d="M34.0508 16.1133V18.8477H37.4688V18.1641H38.1523V16.7969H37.4688V16.1133H34.0508ZM34.7344 20.2148H34.0508V24.3164H32.6836V14.7461H38.1523V15.4297H38.8359V16.1133H39.5195V18.8477H38.8359V19.5312H38.1523V20.2148H36.7852V20.8984H37.4688V21.582H38.1523V22.2656H38.8359V22.9492H39.5195V24.3164H38.1523V23.6328H37.4688V22.9492H36.7852V22.2656H36.1016V21.582H35.418V20.8984H34.7344V20.2148ZM41.5703 22.9492H40.8867V14.7461H42.2539V22.2656H42.9375V22.9492H45.6719V22.2656H46.3555V14.7461H47.7227V22.9492H47.0391V23.6328H46.3555V24.3164H42.2539V23.6328H41.5703V22.9492ZM50.457 18.8477V24.3164H49.0898V14.7461H50.457V16.7969H51.1406V17.4805H51.8242V18.1641H52.5078V18.8477H53.1914V19.5312H53.875V20.2148H54.5586V14.7461H55.9258V24.3164H54.5586V22.2656H53.875V21.582H53.1914V20.8984H52.5078V20.2148H51.8242V19.5312H51.1406V18.8477H50.457ZM67.5469 22.9492H70.2812V22.2656H70.9648V21.582H72.332V22.9492H71.6484V23.6328H70.9648V24.3164H66.8633V23.6328H66.1797V22.9492H65.4961V16.1133H66.1797V15.4297H66.8633V14.7461H70.9648V15.4297H71.6484V16.1133H72.332V17.4805H70.9648V16.7969H70.2812V16.1133H67.5469V16.7969H66.8633V22.2656H67.5469V22.9492ZM78.4844 16.1133H75.75V16.7969H75.0664V22.2656H75.75V22.9492H78.4844V22.2656H79.168V16.7969H78.4844V16.1133ZM75.0664 15.4297V14.7461H79.168V15.4297H79.8516V16.1133H80.5352V22.9492H79.8516V23.6328H79.168V24.3164H75.0664V23.6328H74.3828V22.9492H73.6992V16.1133H74.3828V15.4297H75.0664ZM83.2695 16.1133V22.9492H86.6875V22.2656H87.3711V16.7969H86.6875V16.1133H83.2695ZM81.9023 24.3164V14.7461H87.3711V15.4297H88.0547V16.1133H88.7383V22.9492H88.0547V23.6328H87.3711V24.3164H81.9023ZM96.9414 14.7461V16.1133H91.4727V18.8477H95.5742V20.2148H91.4727V22.9492H96.9414V24.3164H90.1055V14.7461H96.9414Z" fill="#3dbef5"/>
</g>
</svg>
