<svg width="159" height="50" viewBox="0 0 159 50" fill="none" xmlns="http://www.w3.org/2000/svg">
<mask id="mask0" mask-type="alpha" maskUnits="userSpaceOnUse" x="0" y="0" width="159" height="50">
<path fill-rule="evenodd" clip-rule="evenodd" d="M0 20.3252V8.94309H0.487793H4.7561V4.06504H10.7724V0H148.171V4.06504H154.431V9.14634H158.943V20.5285V29.6748V41.0569H154.431V46.3415H148.659V50H10.7724V46.5447H4.7561V40.6504H0V29.2683V20.3252Z" fill="#BAEAFF"/>
</mask>
<g mask="url(#mask0)">
<path d="M0 40.6504V20.3252H4.7561V15.4471H10.7724V11.3821H148.171V15.4471H154.431V20.5284H158.943V41.0569H154.431V46.3414H148.659V50H10.7724V46.5447H4.7561V40.6504H0Z" fill="#00425E"/>
<path d="M0 29.2683V8.94309H4.7561V4.06504H10.7724V0H148.171V4.06504H154.431V9.14634H158.943V29.6748H154.431V34.9594H148.659V38.6179H10.7724V35.1626H4.7561V29.2683H0Z" fill="#3dbef5"/>
<path opacity="0.5" d="M59.5529 3.86191V0.203369H44.5529V3.86191H42.561V6.30093H54.0651V3.86191H59.5529Z" fill="#BAEAFF"/>
<path opacity="0.5" d="M40.813 8.53662H38.2927H27.2764V11.9919H18.0081V14.6342H13.0081V20.7317H3.73983V22.561L0.487793 21.9513V28.2521L5.24389 28.8618V30.8943H16.0162V17.0732H28.2927H29.7967V14.6342H35.0406V11.9919H40.813V8.53662Z" fill="#BAEAFF"/>
<path d="M9.51218 8.94309H0.487793V22.9675H4.22763V20.7317H13.4959V14.8374H18.7398V11.7886H27.5203V8.53658H39.7967V5.0813H9.51218V8.94309Z" fill="#BAEAFF"/>
<g opacity="0.025">
<line x1="-605" x2="761" stroke="white" stroke-width="2"/>
<line x1="-605" y1="8" x2="761" y2="8" stroke="white" stroke-width="2"/>
<line x1="-605" y1="16" x2="761" y2="16" stroke="white" stroke-width="2"/>
<line x1="-605" y1="24" x2="761" y2="24" stroke="white" stroke-width="2"/>
<line x1="-605" y1="32" x2="761" y2="32" stroke="white" stroke-width="2"/>
<line x1="-605" y1="40" x2="761" y2="40" stroke="white" stroke-width="2"/>
<line x1="-605" y1="48" x2="761" y2="48" stroke="white" stroke-width="2"/>
</g>
</g>
<path d="M39.8359 16.1133H40.5195V17.4805H39.1523V16.7969H38.4688V16.1133H35.7344V16.7969H35.0508V18.1641H35.7344V18.8477H39.1523V19.5312H39.8359V20.2148H40.5195V22.9492H39.8359V23.6328H39.1523V24.3164H35.0508V23.6328H34.3672V22.9492H33.6836V21.582H35.0508V22.2656H35.7344V22.9492H38.4688V22.2656H39.1523V20.8984H38.4688V20.2148H35.0508V19.5312H34.3672V18.8477H33.6836V16.1133H34.3672V15.4297H35.0508V14.7461H39.1523V15.4297H39.8359V16.1133ZM42.5703 22.9492H41.8867V14.7461H43.2539V22.2656H43.9375V22.9492H46.6719V22.2656H47.3555V14.7461H48.7227V22.9492H48.0391V23.6328H47.3555V24.3164H43.2539V23.6328H42.5703V22.9492ZM51.457 18.8477H54.875V18.1641H55.5586V16.7969H54.875V16.1133H51.457V18.8477ZM50.0898 24.3164V14.7461H55.5586V15.4297H56.2422V16.1133H56.9258V18.8477H56.2422V20.2148H56.9258V22.9492H56.2422V23.6328H55.5586V24.3164H50.0898ZM51.457 22.9492H54.875V22.2656H55.5586V20.8984H54.875V20.2148H51.457V22.9492ZM59.6602 24.3164H58.293V14.7461H59.6602V16.1133H60.3438V16.7969H61.0273V17.4805H62.3945V16.7969H63.0781V16.1133H63.7617V14.7461H65.1289V24.3164H63.7617V18.1641H63.0781V18.8477H62.3945V20.2148H61.0273V18.8477H60.3438V18.1641H59.6602V24.3164ZM67.8633 24.3164V22.9492H69.2305V16.1133H67.8633V14.7461H71.9648V16.1133H70.5977V22.9492H71.9648V24.3164H67.8633ZM77.4336 16.1133H74.6992V14.7461H81.5352V16.1133H78.8008V24.3164H77.4336V16.1133ZM93.1562 22.9492H95.8906V22.2656H96.5742V21.582H97.9414V22.9492H97.2578V23.6328H96.5742V24.3164H92.4727V23.6328H91.7891V22.9492H91.1055V16.1133H91.7891V15.4297H92.4727V14.7461H96.5742V15.4297H97.2578V16.1133H97.9414V17.4805H96.5742V16.7969H95.8906V16.1133H93.1562V16.7969H92.4727V22.2656H93.1562V22.9492ZM104.094 16.1133H101.359V16.7969H100.676V22.2656H101.359V22.9492H104.094V22.2656H104.777V16.7969H104.094V16.1133ZM100.676 15.4297V14.7461H104.777V15.4297H105.461V16.1133H106.145V22.9492H105.461V23.6328H104.777V24.3164H100.676V23.6328H99.9922V22.9492H99.3086V16.1133H99.9922V15.4297H100.676ZM108.879 16.1133V22.9492H112.297V22.2656H112.98V16.7969H112.297V16.1133H108.879ZM107.512 24.3164V14.7461H112.98V15.4297H113.664V16.1133H114.348V22.9492H113.664V23.6328H112.98V24.3164H107.512ZM122.551 14.7461V16.1133H117.082V18.8477H121.184V20.2148H117.082V22.9492H122.551V24.3164H115.715V14.7461H122.551Z" fill="#131C20"/>
</svg>
