<svg width="678" height="70" viewBox="0 0 678 70" fill="none" xmlns="http://www.w3.org/2000/svg">
<circle cx="3.5" cy="37.5" r="2.5" fill="white" fill-opacity="0.025"/>
<circle cx="323.5" cy="37.5" r="2.5" fill="white" fill-opacity="0.025"/>
<circle cx="163.5" cy="37.5" r="2.5" fill="white" fill-opacity="0.025"/>
<circle cx="483.5" cy="37.5" r="2.5" fill="white" fill-opacity="0.025"/>
<circle cx="83.5" cy="37.5" r="2.5" fill="white" fill-opacity="0.025"/>
<circle cx="403.5" cy="37.5" r="2.5" fill="white" fill-opacity="0.025"/>
<circle cx="243.5" cy="37.5" r="2.5" fill="white" fill-opacity="0.025"/>
<circle cx="563.5" cy="37.5" r="2.5" fill="white" fill-opacity="0.025"/>
<circle cx="43.5" cy="37.5" r="2.5" fill="white" fill-opacity="0.025"/>
<circle cx="363.5" cy="37.5" r="2.5" fill="white" fill-opacity="0.025"/>
<circle cx="203.5" cy="37.5" r="2.5" fill="white" fill-opacity="0.025"/>
<circle cx="523.5" cy="37.5" r="2.5" fill="white" fill-opacity="0.025"/>
<circle cx="123.5" cy="37.5" r="2.5" fill="white" fill-opacity="0.025"/>
<circle cx="443.5" cy="37.5" r="2.5" fill="white" fill-opacity="0.025"/>
<circle cx="283.5" cy="37.5" r="2.5" fill="white" fill-opacity="0.025"/>
<circle cx="603.5" cy="37.5" r="2.5" fill="white" fill-opacity="0.025"/>
<circle cx="3.5" cy="57.5" r="2.5" fill="white" fill-opacity="0.025"/>
<circle cx="323.5" cy="57.5" r="2.5" fill="white" fill-opacity="0.025"/>
<circle cx="163.5" cy="57.5" r="2.5" fill="white" fill-opacity="0.025"/>
<circle cx="483.5" cy="57.5" r="2.5" fill="white" fill-opacity="0.025"/>
<circle cx="83.5" cy="57.5" r="2.5" fill="white" fill-opacity="0.025"/>
<circle cx="403.5" cy="57.5" r="2.5" fill="white" fill-opacity="0.025"/>
<circle cx="243.5" cy="57.5" r="2.5" fill="white" fill-opacity="0.025"/>
<circle cx="563.5" cy="57.5" r="2.5" fill="white" fill-opacity="0.025"/>
<circle cx="43.5" cy="57.5" r="2.5" fill="white" fill-opacity="0.025"/>
<circle cx="363.5" cy="57.5" r="2.5" fill="white" fill-opacity="0.025"/>
<circle cx="203.5" cy="57.5" r="2.5" fill="white" fill-opacity="0.025"/>
<circle cx="523.5" cy="57.5" r="2.5" fill="white" fill-opacity="0.025"/>
<circle cx="123.5" cy="57.5" r="2.5" fill="white" fill-opacity="0.025"/>
<circle cx="443.5" cy="57.5" r="2.5" fill="white" fill-opacity="0.025"/>
<circle cx="283.5" cy="57.5" r="2.5" fill="white" fill-opacity="0.025"/>
<circle cx="603.5" cy="57.5" r="2.5" fill="white" fill-opacity="0.025"/>
<circle cx="23.5" cy="37.5" r="2.5" fill="white" fill-opacity="0.025"/>
<circle cx="343.5" cy="37.5" r="2.5" fill="white" fill-opacity="0.025"/>
<circle cx="183.5" cy="37.5" r="2.5" fill="white" fill-opacity="0.025"/>
<circle cx="503.5" cy="37.5" r="2.5" fill="white" fill-opacity="0.025"/>
<circle cx="103.5" cy="37.5" r="2.5" fill="white" fill-opacity="0.025"/>
<circle cx="423.5" cy="37.5" r="2.5" fill="white" fill-opacity="0.025"/>
<circle cx="263.5" cy="37.5" r="2.5" fill="white" fill-opacity="0.025"/>
<circle cx="583.5" cy="37.5" r="2.5" fill="white" fill-opacity="0.025"/>
<circle cx="63.5" cy="37.5" r="2.5" fill="white" fill-opacity="0.025"/>
<circle cx="383.5" cy="37.5" r="2.5" fill="white" fill-opacity="0.025"/>
<circle cx="223.5" cy="37.5" r="2.5" fill="white" fill-opacity="0.025"/>
<circle cx="543.5" cy="37.5" r="2.5" fill="white" fill-opacity="0.025"/>
<circle cx="143.5" cy="37.5" r="2.5" fill="white" fill-opacity="0.025"/>
<circle cx="463.5" cy="37.5" r="2.5" fill="white" fill-opacity="0.025"/>
<circle cx="303.5" cy="37.5" r="2.5" fill="white" fill-opacity="0.025"/>
<circle cx="623.5" cy="37.5" r="2.5" fill="white" fill-opacity="0.025"/>
<circle cx="23.5" cy="57.5" r="2.5" fill="white" fill-opacity="0.025"/>
<circle cx="343.5" cy="57.5" r="2.5" fill="white" fill-opacity="0.025"/>
<circle cx="183.5" cy="57.5" r="2.5" fill="white" fill-opacity="0.025"/>
<circle cx="503.5" cy="57.5" r="2.5" fill="white" fill-opacity="0.025"/>
<circle cx="103.5" cy="57.5" r="2.5" fill="white" fill-opacity="0.025"/>
<circle cx="423.5" cy="57.5" r="2.5" fill="white" fill-opacity="0.025"/>
<circle cx="263.5" cy="57.5" r="2.5" fill="white" fill-opacity="0.025"/>
<circle cx="583.5" cy="57.5" r="2.5" fill="white" fill-opacity="0.025"/>
<circle cx="63.5" cy="57.5" r="2.5" fill="white" fill-opacity="0.025"/>
<circle cx="383.5" cy="57.5" r="2.5" fill="white" fill-opacity="0.025"/>
<circle cx="223.5" cy="57.5" r="2.5" fill="white" fill-opacity="0.025"/>
<circle cx="543.5" cy="57.5" r="2.5" fill="white" fill-opacity="0.025"/>
<circle cx="143.5" cy="57.5" r="2.5" fill="white" fill-opacity="0.025"/>
<circle cx="463.5" cy="57.5" r="2.5" fill="white" fill-opacity="0.025"/>
<circle cx="303.5" cy="57.5" r="2.5" fill="white" fill-opacity="0.025"/>
<circle cx="623.5" cy="57.5" r="2.5" fill="white" fill-opacity="0.025"/>
<circle cx="3.5" cy="47.5" r="2.5" fill="white" fill-opacity="0.025"/>
<circle cx="323.5" cy="47.5" r="2.5" fill="white" fill-opacity="0.025"/>
<circle cx="163.5" cy="47.5" r="2.5" fill="white" fill-opacity="0.025"/>
<circle cx="483.5" cy="47.5" r="2.5" fill="white" fill-opacity="0.025"/>
<circle cx="83.5" cy="47.5" r="2.5" fill="white" fill-opacity="0.025"/>
<circle cx="403.5" cy="47.5" r="2.5" fill="white" fill-opacity="0.025"/>
<circle cx="243.5" cy="47.5" r="2.5" fill="white" fill-opacity="0.025"/>
<circle cx="563.5" cy="47.5" r="2.5" fill="white" fill-opacity="0.025"/>
<circle cx="43.5" cy="47.5" r="2.5" fill="white" fill-opacity="0.025"/>
<circle cx="363.5" cy="47.5" r="2.5" fill="white" fill-opacity="0.025"/>
<circle cx="203.5" cy="47.5" r="2.5" fill="white" fill-opacity="0.025"/>
<circle cx="523.5" cy="47.5" r="2.5" fill="white" fill-opacity="0.025"/>
<circle cx="123.5" cy="47.5" r="2.5" fill="white" fill-opacity="0.025"/>
<circle cx="443.5" cy="47.5" r="2.5" fill="white" fill-opacity="0.025"/>
<circle cx="283.5" cy="47.5" r="2.5" fill="white" fill-opacity="0.025"/>
<circle cx="603.5" cy="47.5" r="2.5" fill="white" fill-opacity="0.025"/>
<circle cx="3.5" cy="67.5" r="2.5" fill="white" fill-opacity="0.025"/>
<circle cx="323.5" cy="67.5" r="2.5" fill="white" fill-opacity="0.025"/>
<circle cx="163.5" cy="67.5" r="2.5" fill="white" fill-opacity="0.025"/>
<circle cx="483.5" cy="67.5" r="2.5" fill="white" fill-opacity="0.025"/>
<circle cx="83.5" cy="67.5" r="2.5" fill="white" fill-opacity="0.025"/>
<circle cx="403.5" cy="67.5" r="2.5" fill="white" fill-opacity="0.025"/>
<circle cx="243.5" cy="67.5" r="2.5" fill="white" fill-opacity="0.025"/>
<circle cx="563.5" cy="67.5" r="2.5" fill="white" fill-opacity="0.025"/>
<circle cx="43.5" cy="67.5" r="2.5" fill="white" fill-opacity="0.025"/>
<circle cx="363.5" cy="67.5" r="2.5" fill="white" fill-opacity="0.025"/>
<circle cx="203.5" cy="67.5" r="2.5" fill="white" fill-opacity="0.025"/>
<circle cx="523.5" cy="67.5" r="2.5" fill="white" fill-opacity="0.025"/>
<circle cx="123.5" cy="67.5" r="2.5" fill="white" fill-opacity="0.025"/>
<circle cx="443.5" cy="67.5" r="2.5" fill="white" fill-opacity="0.025"/>
<circle cx="283.5" cy="67.5" r="2.5" fill="white" fill-opacity="0.025"/>
<circle cx="603.5" cy="67.5" r="2.5" fill="white" fill-opacity="0.025"/>
<circle cx="23.5" cy="47.5" r="2.5" fill="white" fill-opacity="0.025"/>
<circle cx="343.5" cy="47.5" r="2.5" fill="white" fill-opacity="0.025"/>
<circle cx="183.5" cy="47.5" r="2.5" fill="white" fill-opacity="0.025"/>
<circle cx="503.5" cy="47.5" r="2.5" fill="white" fill-opacity="0.025"/>
<circle cx="103.5" cy="47.5" r="2.5" fill="white" fill-opacity="0.025"/>
<circle cx="423.5" cy="47.5" r="2.5" fill="white" fill-opacity="0.025"/>
<circle cx="263.5" cy="47.5" r="2.5" fill="white" fill-opacity="0.025"/>
<circle cx="583.5" cy="47.5" r="2.5" fill="white" fill-opacity="0.025"/>
<circle cx="63.5" cy="47.5" r="2.5" fill="white" fill-opacity="0.025"/>
<circle cx="383.5" cy="47.5" r="2.5" fill="white" fill-opacity="0.025"/>
<circle cx="223.5" cy="47.5" r="2.5" fill="white" fill-opacity="0.025"/>
<circle cx="543.5" cy="47.5" r="2.5" fill="white" fill-opacity="0.025"/>
<circle cx="143.5" cy="47.5" r="2.5" fill="white" fill-opacity="0.025"/>
<circle cx="463.5" cy="47.5" r="2.5" fill="white" fill-opacity="0.025"/>
<circle cx="303.5" cy="47.5" r="2.5" fill="white" fill-opacity="0.025"/>
<circle cx="623.5" cy="47.5" r="2.5" fill="white" fill-opacity="0.025"/>
<circle cx="23.5" cy="67.5" r="2.5" fill="white" fill-opacity="0.025"/>
<circle cx="343.5" cy="67.5" r="2.5" fill="white" fill-opacity="0.025"/>
<circle cx="183.5" cy="67.5" r="2.5" fill="white" fill-opacity="0.025"/>
<circle cx="503.5" cy="67.5" r="2.5" fill="white" fill-opacity="0.025"/>
<circle cx="103.5" cy="67.5" r="2.5" fill="white" fill-opacity="0.025"/>
<circle cx="423.5" cy="67.5" r="2.5" fill="white" fill-opacity="0.025"/>
<circle cx="263.5" cy="67.5" r="2.5" fill="white" fill-opacity="0.025"/>
<circle cx="583.5" cy="67.5" r="2.5" fill="white" fill-opacity="0.025"/>
<circle cx="63.5" cy="67.5" r="2.5" fill="white" fill-opacity="0.025"/>
<circle cx="383.5" cy="67.5" r="2.5" fill="white" fill-opacity="0.025"/>
<circle cx="223.5" cy="67.5" r="2.5" fill="white" fill-opacity="0.025"/>
<circle cx="543.5" cy="67.5" r="2.5" fill="white" fill-opacity="0.025"/>
<circle cx="143.5" cy="67.5" r="2.5" fill="white" fill-opacity="0.025"/>
<circle cx="463.5" cy="67.5" r="2.5" fill="white" fill-opacity="0.025"/>
<circle cx="303.5" cy="67.5" r="2.5" fill="white" fill-opacity="0.025"/>
<circle cx="623.5" cy="67.5" r="2.5" fill="white" fill-opacity="0.025"/>
<circle cx="13.5" cy="47.5" r="2.5" fill="white" fill-opacity="0.025"/>
<circle cx="333.5" cy="47.5" r="2.5" fill="white" fill-opacity="0.025"/>
<circle cx="173.5" cy="47.5" r="2.5" fill="white" fill-opacity="0.025"/>
<circle cx="493.5" cy="47.5" r="2.5" fill="white" fill-opacity="0.025"/>
<circle cx="93.5" cy="47.5" r="2.5" fill="white" fill-opacity="0.025"/>
<circle cx="413.5" cy="47.5" r="2.5" fill="white" fill-opacity="0.025"/>
<circle cx="253.5" cy="47.5" r="2.5" fill="white" fill-opacity="0.025"/>
<circle cx="573.5" cy="47.5" r="2.5" fill="white" fill-opacity="0.025"/>
<circle cx="53.5" cy="47.5" r="2.5" fill="white" fill-opacity="0.025"/>
<circle cx="373.5" cy="47.5" r="2.5" fill="white" fill-opacity="0.025"/>
<circle cx="213.5" cy="47.5" r="2.5" fill="white" fill-opacity="0.025"/>
<circle cx="533.5" cy="47.5" r="2.5" fill="white" fill-opacity="0.025"/>
<circle cx="133.5" cy="47.5" r="2.5" fill="white" fill-opacity="0.025"/>
<circle cx="453.5" cy="47.5" r="2.5" fill="white" fill-opacity="0.025"/>
<circle cx="293.5" cy="47.5" r="2.5" fill="white" fill-opacity="0.025"/>
<circle cx="613.5" cy="47.5" r="2.5" fill="white" fill-opacity="0.025"/>
<circle cx="13.5" cy="67.5" r="2.5" fill="white" fill-opacity="0.025"/>
<circle cx="333.5" cy="67.5" r="2.5" fill="white" fill-opacity="0.025"/>
<circle cx="173.5" cy="67.5" r="2.5" fill="white" fill-opacity="0.025"/>
<circle cx="493.5" cy="67.5" r="2.5" fill="white" fill-opacity="0.025"/>
<circle cx="93.5" cy="67.5" r="2.5" fill="white" fill-opacity="0.025"/>
<circle cx="413.5" cy="67.5" r="2.5" fill="white" fill-opacity="0.025"/>
<circle cx="253.5" cy="67.5" r="2.5" fill="white" fill-opacity="0.025"/>
<circle cx="573.5" cy="67.5" r="2.5" fill="white" fill-opacity="0.025"/>
<circle cx="53.5" cy="67.5" r="2.5" fill="white" fill-opacity="0.025"/>
<circle cx="373.5" cy="67.5" r="2.5" fill="white" fill-opacity="0.025"/>
<circle cx="213.5" cy="67.5" r="2.5" fill="white" fill-opacity="0.025"/>
<circle cx="533.5" cy="67.5" r="2.5" fill="white" fill-opacity="0.025"/>
<circle cx="133.5" cy="67.5" r="2.5" fill="white" fill-opacity="0.025"/>
<circle cx="453.5" cy="67.5" r="2.5" fill="white" fill-opacity="0.025"/>
<circle cx="293.5" cy="67.5" r="2.5" fill="white" fill-opacity="0.025"/>
<circle cx="613.5" cy="67.5" r="2.5" fill="white" fill-opacity="0.025"/>
<circle cx="33.5" cy="47.5" r="2.5" fill="white" fill-opacity="0.025"/>
<circle cx="353.5" cy="47.5" r="2.5" fill="white" fill-opacity="0.025"/>
<circle cx="193.5" cy="47.5" r="2.5" fill="white" fill-opacity="0.025"/>
<circle cx="513.5" cy="47.5" r="2.5" fill="white" fill-opacity="0.025"/>
<circle cx="113.5" cy="47.5" r="2.5" fill="white" fill-opacity="0.025"/>
<circle cx="433.5" cy="47.5" r="2.5" fill="white" fill-opacity="0.025"/>
<circle cx="273.5" cy="47.5" r="2.5" fill="white" fill-opacity="0.025"/>
<circle cx="593.5" cy="47.5" r="2.5" fill="white" fill-opacity="0.025"/>
<circle cx="73.5" cy="47.5" r="2.5" fill="white" fill-opacity="0.025"/>
<circle cx="393.5" cy="47.5" r="2.5" fill="white" fill-opacity="0.025"/>
<circle cx="233.5" cy="47.5" r="2.5" fill="white" fill-opacity="0.025"/>
<circle cx="553.5" cy="47.5" r="2.5" fill="white" fill-opacity="0.025"/>
<circle cx="153.5" cy="47.5" r="2.5" fill="white" fill-opacity="0.025"/>
<circle cx="473.5" cy="47.5" r="2.5" fill="white" fill-opacity="0.025"/>
<circle cx="313.5" cy="47.5" r="2.5" fill="white" fill-opacity="0.025"/>
<circle cx="633.5" cy="47.5" r="2.5" fill="white" fill-opacity="0.025"/>
<circle cx="643.5" cy="47.5" r="2.5" fill="white" fill-opacity="0.025"/>
<circle cx="653.5" cy="47.5" r="2.5" fill="white" fill-opacity="0.025"/>
<circle cx="663.5" cy="47.5" r="2.5" fill="white" fill-opacity="0.025"/>
<circle cx="673.5" cy="47.5" r="2.5" fill="white" fill-opacity="0.025"/>
<circle cx="33.5" cy="67.5" r="2.5" fill="white" fill-opacity="0.025"/>
<circle cx="353.5" cy="67.5" r="2.5" fill="white" fill-opacity="0.025"/>
<circle cx="193.5" cy="67.5" r="2.5" fill="white" fill-opacity="0.025"/>
<circle cx="513.5" cy="67.5" r="2.5" fill="white" fill-opacity="0.025"/>
<circle cx="113.5" cy="67.5" r="2.5" fill="white" fill-opacity="0.025"/>
<circle cx="433.5" cy="67.5" r="2.5" fill="white" fill-opacity="0.025"/>
<circle cx="273.5" cy="67.5" r="2.5" fill="white" fill-opacity="0.025"/>
<circle cx="593.5" cy="67.5" r="2.5" fill="white" fill-opacity="0.025"/>
<circle cx="73.5" cy="67.5" r="2.5" fill="white" fill-opacity="0.025"/>
<circle cx="393.5" cy="67.5" r="2.5" fill="white" fill-opacity="0.025"/>
<circle cx="233.5" cy="67.5" r="2.5" fill="white" fill-opacity="0.025"/>
<circle cx="553.5" cy="67.5" r="2.5" fill="white" fill-opacity="0.025"/>
<circle cx="153.5" cy="67.5" r="2.5" fill="white" fill-opacity="0.025"/>
<circle cx="473.5" cy="67.5" r="2.5" fill="white" fill-opacity="0.025"/>
<circle cx="313.5" cy="67.5" r="2.5" fill="white" fill-opacity="0.025"/>
<circle cx="633.5" cy="67.5" r="2.5" fill="white" fill-opacity="0.025"/>
<circle cx="643.5" cy="67.5" r="2.5" fill="white" fill-opacity="0.025"/>
<circle cx="653.5" cy="67.5" r="2.5" fill="white" fill-opacity="0.025"/>
<circle cx="663.5" cy="67.5" r="2.5" fill="white" fill-opacity="0.025"/>
<circle cx="673.5" cy="67.5" r="2.5" fill="white" fill-opacity="0.025"/>
<circle cx="13.5" cy="37.5" r="2.5" fill="white" fill-opacity="0.025"/>
<circle cx="333.5" cy="37.5" r="2.5" fill="white" fill-opacity="0.025"/>
<circle cx="173.5" cy="37.5" r="2.5" fill="white" fill-opacity="0.025"/>
<circle cx="493.5" cy="37.5" r="2.5" fill="white" fill-opacity="0.025"/>
<circle cx="93.5" cy="37.5" r="2.5" fill="white" fill-opacity="0.025"/>
<circle cx="413.5" cy="37.5" r="2.5" fill="white" fill-opacity="0.025"/>
<circle cx="253.5" cy="37.5" r="2.5" fill="white" fill-opacity="0.025"/>
<circle cx="573.5" cy="37.5" r="2.5" fill="white" fill-opacity="0.025"/>
<circle cx="53.5" cy="37.5" r="2.5" fill="white" fill-opacity="0.025"/>
<circle cx="373.5" cy="37.5" r="2.5" fill="white" fill-opacity="0.025"/>
<circle cx="213.5" cy="37.5" r="2.5" fill="white" fill-opacity="0.025"/>
<circle cx="533.5" cy="37.5" r="2.5" fill="white" fill-opacity="0.025"/>
<circle cx="133.5" cy="37.5" r="2.5" fill="white" fill-opacity="0.025"/>
<circle cx="453.5" cy="37.5" r="2.5" fill="white" fill-opacity="0.025"/>
<circle cx="293.5" cy="37.5" r="2.5" fill="white" fill-opacity="0.025"/>
<circle cx="613.5" cy="37.5" r="2.5" fill="white" fill-opacity="0.025"/>
<circle cx="13.5" cy="57.5" r="2.5" fill="white" fill-opacity="0.025"/>
<circle cx="333.5" cy="57.5" r="2.5" fill="white" fill-opacity="0.025"/>
<circle cx="173.5" cy="57.5" r="2.5" fill="white" fill-opacity="0.025"/>
<circle cx="493.5" cy="57.5" r="2.5" fill="white" fill-opacity="0.025"/>
<circle cx="93.5" cy="57.5" r="2.5" fill="white" fill-opacity="0.025"/>
<circle cx="413.5" cy="57.5" r="2.5" fill="white" fill-opacity="0.025"/>
<circle cx="253.5" cy="57.5" r="2.5" fill="white" fill-opacity="0.025"/>
<circle cx="573.5" cy="57.5" r="2.5" fill="white" fill-opacity="0.025"/>
<circle cx="53.5" cy="57.5" r="2.5" fill="white" fill-opacity="0.025"/>
<circle cx="373.5" cy="57.5" r="2.5" fill="white" fill-opacity="0.025"/>
<circle cx="213.5" cy="57.5" r="2.5" fill="white" fill-opacity="0.025"/>
<circle cx="533.5" cy="57.5" r="2.5" fill="white" fill-opacity="0.025"/>
<circle cx="133.5" cy="57.5" r="2.5" fill="white" fill-opacity="0.025"/>
<circle cx="453.5" cy="57.5" r="2.5" fill="white" fill-opacity="0.025"/>
<circle cx="293.5" cy="57.5" r="2.5" fill="white" fill-opacity="0.025"/>
<circle cx="613.5" cy="57.5" r="2.5" fill="white" fill-opacity="0.025"/>
<circle cx="33.5" cy="37.5" r="2.5" fill="white" fill-opacity="0.025"/>
<circle cx="353.5" cy="37.5" r="2.5" fill="white" fill-opacity="0.025"/>
<circle cx="193.5" cy="37.5" r="2.5" fill="white" fill-opacity="0.025"/>
<circle cx="513.5" cy="37.5" r="2.5" fill="white" fill-opacity="0.025"/>
<circle cx="113.5" cy="37.5" r="2.5" fill="white" fill-opacity="0.025"/>
<circle cx="433.5" cy="37.5" r="2.5" fill="white" fill-opacity="0.025"/>
<circle cx="273.5" cy="37.5" r="2.5" fill="white" fill-opacity="0.025"/>
<circle cx="593.5" cy="37.5" r="2.5" fill="white" fill-opacity="0.025"/>
<circle cx="73.5" cy="37.5" r="2.5" fill="white" fill-opacity="0.025"/>
<circle cx="393.5" cy="37.5" r="2.5" fill="white" fill-opacity="0.025"/>
<circle cx="233.5" cy="37.5" r="2.5" fill="white" fill-opacity="0.025"/>
<circle cx="553.5" cy="37.5" r="2.5" fill="white" fill-opacity="0.025"/>
<circle cx="153.5" cy="37.5" r="2.5" fill="white" fill-opacity="0.025"/>
<circle cx="473.5" cy="37.5" r="2.5" fill="white" fill-opacity="0.025"/>
<circle cx="313.5" cy="37.5" r="2.5" fill="white" fill-opacity="0.025"/>
<circle cx="633.5" cy="37.5" r="2.5" fill="white" fill-opacity="0.025"/>
<circle cx="643.5" cy="37.5" r="2.5" fill="white" fill-opacity="0.025"/>
<circle cx="653.5" cy="37.5" r="2.5" fill="white" fill-opacity="0.025"/>
<circle cx="663.5" cy="37.5" r="2.5" fill="white" fill-opacity="0.025"/>
<circle cx="673.5" cy="37.5" r="2.5" fill="white" fill-opacity="0.025"/>
<circle cx="33.5" cy="57.5" r="2.5" fill="white" fill-opacity="0.025"/>
<circle cx="353.5" cy="57.5" r="2.5" fill="white" fill-opacity="0.025"/>
<circle cx="193.5" cy="57.5" r="2.5" fill="white" fill-opacity="0.025"/>
<circle cx="513.5" cy="57.5" r="2.5" fill="white" fill-opacity="0.025"/>
<circle cx="113.5" cy="57.5" r="2.5" fill="white" fill-opacity="0.025"/>
<circle cx="433.5" cy="57.5" r="2.5" fill="white" fill-opacity="0.025"/>
<circle cx="273.5" cy="57.5" r="2.5" fill="white" fill-opacity="0.025"/>
<circle cx="593.5" cy="57.5" r="2.5" fill="white" fill-opacity="0.025"/>
<circle cx="73.5" cy="57.5" r="2.5" fill="white" fill-opacity="0.025"/>
<circle cx="393.5" cy="57.5" r="2.5" fill="white" fill-opacity="0.025"/>
<circle cx="233.5" cy="57.5" r="2.5" fill="white" fill-opacity="0.025"/>
<circle cx="553.5" cy="57.5" r="2.5" fill="white" fill-opacity="0.025"/>
<circle cx="153.5" cy="57.5" r="2.5" fill="white" fill-opacity="0.025"/>
<circle cx="473.5" cy="57.5" r="2.5" fill="white" fill-opacity="0.025"/>
<circle cx="313.5" cy="57.5" r="2.5" fill="white" fill-opacity="0.025"/>
<circle cx="633.5" cy="57.5" r="2.5" fill="white" fill-opacity="0.025"/>
<circle cx="643.5" cy="57.5" r="2.5" fill="white" fill-opacity="0.025"/>
<circle cx="653.5" cy="57.5" r="2.5" fill="white" fill-opacity="0.025"/>
<circle cx="663.5" cy="57.5" r="2.5" fill="white" fill-opacity="0.025"/>
<circle cx="673.5" cy="57.5" r="2.5" fill="white" fill-opacity="0.025"/>
<line opacity="0.6" x1="218" y1="24.5" y2="24.5" stroke="#3dbef5"/>
<line y1="24.5" x2="14" y2="24.5" stroke="#3dbef5"/>
<line x1="16" y1="24.5" x2="51" y2="24.5" stroke="#3dbef5"/>
<line x1="55" y1="24.5" x2="127" y2="24.5" stroke="#3dbef5"/>
<line opacity="0.6" y1="-0.5" x2="218" y2="-0.5" transform="matrix(1 0 0 -1 460 25)" stroke="#3dbef5"/>
<line y1="-0.5" x2="14" y2="-0.5" transform="matrix(-1 0 0 1 678 26)" stroke="#3dbef5"/>
<line y1="-0.5" x2="35" y2="-0.5" transform="matrix(-1 0 0 1 662 26)" stroke="#3dbef5"/>
<line y1="-0.5" x2="72" y2="-0.5" transform="matrix(-1 0 0 1 623 26)" stroke="#3dbef5"/>
</svg>
