<svg width="1350" height="1767" viewBox="0 0 1350 1767" fill="none" xmlns="http://www.w3.org/2000/svg">
<g clip-path="url(#clip0)">
<rect width="1350" height="1767" fill="white"/>
<rect width="1350" height="1767" fill="black"/>
<mask id="mask0" mask-type="alpha" maskUnits="userSpaceOnUse" x="0" y="0" width="58" height="2100">
<path d="M51.5 303V57L50.5 0H44H0V2100H50.5L51 768L58 759V311L51.5 303Z" fill="#000A0F"/>
</mask>
<g mask="url(#mask0)">
<path d="M50.5 303V57.5V0H44H0V2100H50.5V768L57.5 759V311.5L50.5 303Z" fill="#000A0F"/>
<line x1="50.5" y1="57" x2="50.5" y2="303" stroke="#405C6B"/>
<line x1="50.5" y1="768" x2="50.5" y2="1262" stroke="#405C6B"/>
<line x1="57.5" y1="311" x2="57.5" y2="760" stroke="#405C6B"/>
<line x1="50.3947" y1="302.693" x2="57.3947" y2="311.693" stroke="#405C6B"/>
<line y1="-0.5" x2="11.4018" y2="-0.5" transform="matrix(0.613941 -0.789352 -0.789352 -0.613941 50 768)" stroke="#405C6B"/>
<g opacity="0.015">
<line y1="7" x2="1366" y2="7" stroke="white" stroke-width="2"/>
<line y1="15" x2="1366" y2="15" stroke="white" stroke-width="2"/>
<line y1="23" x2="1366" y2="23" stroke="white" stroke-width="2"/>
<line y1="31" x2="1366" y2="31" stroke="white" stroke-width="2"/>
<line y1="39" x2="1366" y2="39" stroke="white" stroke-width="2"/>
<line y1="47" x2="1366" y2="47" stroke="white" stroke-width="2"/>
<line y1="55" x2="1366" y2="55" stroke="white" stroke-width="2"/>
<line y1="63" x2="1366" y2="63" stroke="white" stroke-width="2"/>
<line y1="71" x2="1366" y2="71" stroke="white" stroke-width="2"/>
<line y1="79" x2="1366" y2="79" stroke="white" stroke-width="2"/>
<line y1="87" x2="1366" y2="87" stroke="white" stroke-width="2"/>
<line y1="95" x2="1366" y2="95" stroke="white" stroke-width="2"/>
<line y1="103" x2="1366" y2="103" stroke="white" stroke-width="2"/>
<line y1="111" x2="1366" y2="111" stroke="white" stroke-width="2"/>
<line y1="119" x2="1366" y2="119" stroke="white" stroke-width="2"/>
<line y1="127" x2="1366" y2="127" stroke="white" stroke-width="2"/>
<line y1="135" x2="1366" y2="135" stroke="white" stroke-width="2"/>
<line y1="143" x2="1366" y2="143" stroke="white" stroke-width="2"/>
<line y1="151" x2="1366" y2="151" stroke="white" stroke-width="2"/>
<line y1="159" x2="1366" y2="159" stroke="white" stroke-width="2"/>
<line y1="167" x2="1366" y2="167" stroke="white" stroke-width="2"/>
<line y1="175" x2="1366" y2="175" stroke="white" stroke-width="2"/>
<line y1="183" x2="1366" y2="183" stroke="white" stroke-width="2"/>
<line y1="191" x2="1366" y2="191" stroke="white" stroke-width="2"/>
<line y1="199" x2="1366" y2="199" stroke="white" stroke-width="2"/>
<line y1="207" x2="1366" y2="207" stroke="white" stroke-width="2"/>
<line y1="215" x2="1366" y2="215" stroke="white" stroke-width="2"/>
<line y1="223" x2="1366" y2="223" stroke="white" stroke-width="2"/>
<line y1="231" x2="1366" y2="231" stroke="white" stroke-width="2"/>
<line y1="239" x2="1366" y2="239" stroke="white" stroke-width="2"/>
<line y1="247" x2="1366" y2="247" stroke="white" stroke-width="2"/>
<line y1="255" x2="1366" y2="255" stroke="white" stroke-width="2"/>
<line y1="263" x2="1366" y2="263" stroke="white" stroke-width="2"/>
<line y1="271" x2="1366" y2="271" stroke="white" stroke-width="2"/>
<line y1="279" x2="1366" y2="279" stroke="white" stroke-width="2"/>
<line y1="287" x2="1366" y2="287" stroke="white" stroke-width="2"/>
<line y1="295" x2="1366" y2="295" stroke="white" stroke-width="2"/>
<line y1="303" x2="1366" y2="303" stroke="white" stroke-width="2"/>
<line y1="311" x2="1366" y2="311" stroke="white" stroke-width="2"/>
<line y1="319" x2="1366" y2="319" stroke="white" stroke-width="2"/>
<line y1="327" x2="1366" y2="327" stroke="white" stroke-width="2"/>
<line y1="335" x2="1366" y2="335" stroke="white" stroke-width="2"/>
<line y1="343" x2="1366" y2="343" stroke="white" stroke-width="2"/>
<line y1="351" x2="1366" y2="351" stroke="white" stroke-width="2"/>
<line y1="359" x2="1366" y2="359" stroke="white" stroke-width="2"/>
<line y1="367" x2="1366" y2="367" stroke="white" stroke-width="2"/>
<line y1="375" x2="1366" y2="375" stroke="white" stroke-width="2"/>
<line y1="383" x2="1366" y2="383" stroke="white" stroke-width="2"/>
<line y1="391" x2="1366" y2="391" stroke="white" stroke-width="2"/>
<line y1="399" x2="1366" y2="399" stroke="white" stroke-width="2"/>
<line y1="407" x2="1366" y2="407" stroke="white" stroke-width="2"/>
<line y1="415" x2="1366" y2="415" stroke="white" stroke-width="2"/>
<line y1="423" x2="1366" y2="423" stroke="white" stroke-width="2"/>
<line y1="431" x2="1366" y2="431" stroke="white" stroke-width="2"/>
<line y1="439" x2="1366" y2="439" stroke="white" stroke-width="2"/>
<line y1="447" x2="1366" y2="447" stroke="white" stroke-width="2"/>
<line y1="455" x2="1366" y2="455" stroke="white" stroke-width="2"/>
<line y1="463" x2="1366" y2="463" stroke="white" stroke-width="2"/>
<line y1="471" x2="1366" y2="471" stroke="white" stroke-width="2"/>
<line y1="479" x2="1366" y2="479" stroke="white" stroke-width="2"/>
<line y1="487" x2="1366" y2="487" stroke="white" stroke-width="2"/>
<line y1="495" x2="1366" y2="495" stroke="white" stroke-width="2"/>
<line y1="503" x2="1366" y2="503" stroke="white" stroke-width="2"/>
<line y1="511" x2="1366" y2="511" stroke="white" stroke-width="2"/>
<line y1="519" x2="1366" y2="519" stroke="white" stroke-width="2"/>
<line y1="527" x2="1366" y2="527" stroke="white" stroke-width="2"/>
<line y1="535" x2="1366" y2="535" stroke="white" stroke-width="2"/>
<line y1="543" x2="1366" y2="543" stroke="white" stroke-width="2"/>
<line y1="551" x2="1366" y2="551" stroke="white" stroke-width="2"/>
<line y1="559" x2="1366" y2="559" stroke="white" stroke-width="2"/>
<line y1="567" x2="1366" y2="567" stroke="white" stroke-width="2"/>
<line y1="575" x2="1366" y2="575" stroke="white" stroke-width="2"/>
<line y1="583" x2="1366" y2="583" stroke="white" stroke-width="2"/>
<line y1="591" x2="1366" y2="591" stroke="white" stroke-width="2"/>
<line y1="599" x2="1366" y2="599" stroke="white" stroke-width="2"/>
<line y1="607" x2="1366" y2="607" stroke="white" stroke-width="2"/>
<line y1="615" x2="1366" y2="615" stroke="white" stroke-width="2"/>
<line y1="623" x2="1366" y2="623" stroke="white" stroke-width="2"/>
<line y1="631" x2="1366" y2="631" stroke="white" stroke-width="2"/>
<line y1="639" x2="1366" y2="639" stroke="white" stroke-width="2"/>
<line y1="647" x2="1366" y2="647" stroke="white" stroke-width="2"/>
<line y1="655" x2="1366" y2="655" stroke="white" stroke-width="2"/>
<line y1="663" x2="1366" y2="663" stroke="white" stroke-width="2"/>
<line y1="671" x2="1366" y2="671" stroke="white" stroke-width="2"/>
<line y1="679" x2="1366" y2="679" stroke="white" stroke-width="2"/>
<line y1="687" x2="1366" y2="687" stroke="white" stroke-width="2"/>
<line y1="695" x2="1366" y2="695" stroke="white" stroke-width="2"/>
<line y1="703" x2="1366" y2="703" stroke="white" stroke-width="2"/>
<line y1="711" x2="1366" y2="711" stroke="white" stroke-width="2"/>
<line y1="719" x2="1366" y2="719" stroke="white" stroke-width="2"/>
<line y1="727" x2="1366" y2="727" stroke="white" stroke-width="2"/>
<line y1="735" x2="1366" y2="735" stroke="white" stroke-width="2"/>
<line y1="743" x2="1366" y2="743" stroke="white" stroke-width="2"/>
<line y1="751" x2="1366" y2="751" stroke="white" stroke-width="2"/>
<line y1="759" x2="1366" y2="759" stroke="white" stroke-width="2"/>
<line y1="767" x2="1366" y2="767" stroke="white" stroke-width="2"/>
<line y1="775" x2="1366" y2="775" stroke="white" stroke-width="2"/>
<line y1="783" x2="1366" y2="783" stroke="white" stroke-width="2"/>
<line y1="791" x2="1366" y2="791" stroke="white" stroke-width="2"/>
<line y1="799" x2="1366" y2="799" stroke="white" stroke-width="2"/>
<line y1="807" x2="1366" y2="807" stroke="white" stroke-width="2"/>
<line y1="815" x2="1366" y2="815" stroke="white" stroke-width="2"/>
<line y1="823" x2="1366" y2="823" stroke="white" stroke-width="2"/>
<line y1="831" x2="1366" y2="831" stroke="white" stroke-width="2"/>
<line y1="839" x2="1366" y2="839" stroke="white" stroke-width="2"/>
<line y1="847" x2="1366" y2="847" stroke="white" stroke-width="2"/>
<line y1="855" x2="1366" y2="855" stroke="white" stroke-width="2"/>
<line y1="863" x2="1366" y2="863" stroke="white" stroke-width="2"/>
<line y1="871" x2="1366" y2="871" stroke="white" stroke-width="2"/>
<line y1="879" x2="1366" y2="879" stroke="white" stroke-width="2"/>
<line y1="887" x2="1366" y2="887" stroke="white" stroke-width="2"/>
<line y1="895" x2="1366" y2="895" stroke="white" stroke-width="2"/>
<line y1="903" x2="1366" y2="903" stroke="white" stroke-width="2"/>
<line y1="911" x2="1366" y2="911" stroke="white" stroke-width="2"/>
<line y1="919" x2="1366" y2="919" stroke="white" stroke-width="2"/>
<line y1="927" x2="1366" y2="927" stroke="white" stroke-width="2"/>
<line y1="935" x2="1366" y2="935" stroke="white" stroke-width="2"/>
<line y1="943" x2="1366" y2="943" stroke="white" stroke-width="2"/>
<line y1="951" x2="1366" y2="951" stroke="white" stroke-width="2"/>
<line y1="959" x2="1366" y2="959" stroke="white" stroke-width="2"/>
<line y1="967" x2="1366" y2="967" stroke="white" stroke-width="2"/>
<line y1="975" x2="1366" y2="975" stroke="white" stroke-width="2"/>
<line y1="983" x2="1366" y2="983" stroke="white" stroke-width="2"/>
<line y1="991" x2="1366" y2="991" stroke="white" stroke-width="2"/>
<line y1="999" x2="1366" y2="999" stroke="white" stroke-width="2"/>
<line y1="1007" x2="1366" y2="1007" stroke="white" stroke-width="2"/>
<line y1="1015" x2="1366" y2="1015" stroke="white" stroke-width="2"/>
<line y1="1023" x2="1366" y2="1023" stroke="white" stroke-width="2"/>
<line y1="1031" x2="1366" y2="1031" stroke="white" stroke-width="2"/>
<line y1="1039" x2="1366" y2="1039" stroke="white" stroke-width="2"/>
<line y1="1047" x2="1366" y2="1047" stroke="white" stroke-width="2"/>
<line y1="1055" x2="1366" y2="1055" stroke="white" stroke-width="2"/>
<line y1="1063" x2="1366" y2="1063" stroke="white" stroke-width="2"/>
<line y1="1071" x2="1366" y2="1071" stroke="white" stroke-width="2"/>
<line y1="1079" x2="1366" y2="1079" stroke="white" stroke-width="2"/>
<line y1="1087" x2="1366" y2="1087" stroke="white" stroke-width="2"/>
<line y1="1095" x2="1366" y2="1095" stroke="white" stroke-width="2"/>
<line y1="1103" x2="1366" y2="1103" stroke="white" stroke-width="2"/>
<line y1="1111" x2="1366" y2="1111" stroke="white" stroke-width="2"/>
<line y1="1119" x2="1366" y2="1119" stroke="white" stroke-width="2"/>
<line y1="1127" x2="1366" y2="1127" stroke="white" stroke-width="2"/>
<line y1="1135" x2="1366" y2="1135" stroke="white" stroke-width="2"/>
<line y1="1143" x2="1366" y2="1143" stroke="white" stroke-width="2"/>
<line y1="1151" x2="1366" y2="1151" stroke="white" stroke-width="2"/>
<line y1="1159" x2="1366" y2="1159" stroke="white" stroke-width="2"/>
<line y1="1167" x2="1366" y2="1167" stroke="white" stroke-width="2"/>
<line y1="1175" x2="1366" y2="1175" stroke="white" stroke-width="2"/>
<line y1="1183" x2="1366" y2="1183" stroke="white" stroke-width="2"/>
<line y1="1191" x2="1366" y2="1191" stroke="white" stroke-width="2"/>
<line y1="1199" x2="1366" y2="1199" stroke="white" stroke-width="2"/>
<line y1="1207" x2="1366" y2="1207" stroke="white" stroke-width="2"/>
<line y1="1215" x2="1366" y2="1215" stroke="white" stroke-width="2"/>
<line y1="1223" x2="1366" y2="1223" stroke="white" stroke-width="2"/>
<line y1="1231" x2="1366" y2="1231" stroke="white" stroke-width="2"/>
<line y1="1239" x2="1366" y2="1239" stroke="white" stroke-width="2"/>
<line y1="1247" x2="1366" y2="1247" stroke="white" stroke-width="2"/>
<line y1="1255" x2="1366" y2="1255" stroke="white" stroke-width="2"/>
<line y1="1263" x2="1366" y2="1263" stroke="white" stroke-width="2"/>
<line y1="1271" x2="1366" y2="1271" stroke="white" stroke-width="2"/>
<line y1="1279" x2="1366" y2="1279" stroke="white" stroke-width="2"/>
<line y1="1287" x2="1366" y2="1287" stroke="white" stroke-width="2"/>
<line y1="1295" x2="1366" y2="1295" stroke="white" stroke-width="2"/>
<line y1="1303" x2="1366" y2="1303" stroke="white" stroke-width="2"/>
<line y1="1311" x2="1366" y2="1311" stroke="white" stroke-width="2"/>
<line y1="1319" x2="1366" y2="1319" stroke="white" stroke-width="2"/>
<line y1="1327" x2="1366" y2="1327" stroke="white" stroke-width="2"/>
</g>
</g>
<mask id="mask1" mask-type="alpha" maskUnits="userSpaceOnUse" x="1292" y="-20" width="59" height="2100">
<path d="M1299.5 603V36.5V-20H1350.5V2080H1299V1069.5L1292 1061.5L1292.5 612L1299.5 603Z" fill="#000A0F"/>
</mask>
<g mask="url(#mask1)">
<path d="M1299.5 604.5V37.5V-19H1350V2081H1299.5V1070.5L1292.5 1062V613L1299.5 604.5Z" fill="#000A0F"/>
<line x1="1293" y1="612" x2="1293" y2="1061" stroke="#405C6B"/>
<line x1="1292.89" y1="1060.69" x2="1299.89" y2="1069.69" stroke="#405C6B"/>
<line y1="-0.5" x2="11.4018" y2="-0.5" transform="matrix(0.613941 -0.789352 -0.789352 -0.613941 1292.5 612)" stroke="#405C6B"/>
<line x1="1300" y1="37" x2="1300" y2="604" stroke="#405C6B"/>
<line x1="1299.5" y1="1068" x2="1299.5" y2="1261" stroke="#405C6B"/>
<g opacity="0.015">
<line x1="-15.5" y1="3" x2="1350.5" y2="3" stroke="white" stroke-width="2"/>
<line x1="-15.5" y1="11" x2="1350.5" y2="11" stroke="white" stroke-width="2"/>
<line x1="-15.5" y1="19" x2="1350.5" y2="19" stroke="white" stroke-width="2"/>
<line x1="-15.5" y1="27" x2="1350.5" y2="27" stroke="white" stroke-width="2"/>
<line x1="-15.5" y1="35" x2="1350.5" y2="35" stroke="white" stroke-width="2"/>
<line x1="-15.5" y1="43" x2="1350.5" y2="43" stroke="white" stroke-width="2"/>
<line x1="-15.5" y1="51" x2="1350.5" y2="51" stroke="white" stroke-width="2"/>
<line x1="-15.5" y1="59" x2="1350.5" y2="59" stroke="white" stroke-width="2"/>
<line x1="-15.5" y1="67" x2="1350.5" y2="67" stroke="white" stroke-width="2"/>
<line x1="-15.5" y1="75" x2="1350.5" y2="75" stroke="white" stroke-width="2"/>
<line x1="-15.5" y1="83" x2="1350.5" y2="83" stroke="white" stroke-width="2"/>
<line x1="-15.5" y1="91" x2="1350.5" y2="91" stroke="white" stroke-width="2"/>
<line x1="-15.5" y1="99" x2="1350.5" y2="99" stroke="white" stroke-width="2"/>
<line x1="-15.5" y1="107" x2="1350.5" y2="107" stroke="white" stroke-width="2"/>
<line x1="-15.5" y1="115" x2="1350.5" y2="115" stroke="white" stroke-width="2"/>
<line x1="-15.5" y1="123" x2="1350.5" y2="123" stroke="white" stroke-width="2"/>
<line x1="-15.5" y1="131" x2="1350.5" y2="131" stroke="white" stroke-width="2"/>
<line x1="-15.5" y1="139" x2="1350.5" y2="139" stroke="white" stroke-width="2"/>
<line x1="-15.5" y1="147" x2="1350.5" y2="147" stroke="white" stroke-width="2"/>
<line x1="-15.5" y1="155" x2="1350.5" y2="155" stroke="white" stroke-width="2"/>
<line x1="-15.5" y1="163" x2="1350.5" y2="163" stroke="white" stroke-width="2"/>
<line x1="-15.5" y1="171" x2="1350.5" y2="171" stroke="white" stroke-width="2"/>
<line x1="-15.5" y1="179" x2="1350.5" y2="179" stroke="white" stroke-width="2"/>
<line x1="-15.5" y1="187" x2="1350.5" y2="187" stroke="white" stroke-width="2"/>
<line x1="-15.5" y1="195" x2="1350.5" y2="195" stroke="white" stroke-width="2"/>
<line x1="-15.5" y1="203" x2="1350.5" y2="203" stroke="white" stroke-width="2"/>
<line x1="-15.5" y1="211" x2="1350.5" y2="211" stroke="white" stroke-width="2"/>
<line x1="-15.5" y1="219" x2="1350.5" y2="219" stroke="white" stroke-width="2"/>
<line x1="-15.5" y1="227" x2="1350.5" y2="227" stroke="white" stroke-width="2"/>
<line x1="-15.5" y1="235" x2="1350.5" y2="235" stroke="white" stroke-width="2"/>
<line x1="-15.5" y1="243" x2="1350.5" y2="243" stroke="white" stroke-width="2"/>
<line x1="-15.5" y1="251" x2="1350.5" y2="251" stroke="white" stroke-width="2"/>
<line x1="-15.5" y1="259" x2="1350.5" y2="259" stroke="white" stroke-width="2"/>
<line x1="-15.5" y1="267" x2="1350.5" y2="267" stroke="white" stroke-width="2"/>
<line x1="-15.5" y1="275" x2="1350.5" y2="275" stroke="white" stroke-width="2"/>
<line x1="-15.5" y1="283" x2="1350.5" y2="283" stroke="white" stroke-width="2"/>
<line x1="-15.5" y1="291" x2="1350.5" y2="291" stroke="white" stroke-width="2"/>
<line x1="-15.5" y1="299" x2="1350.5" y2="299" stroke="white" stroke-width="2"/>
<line x1="-15.5" y1="307" x2="1350.5" y2="307" stroke="white" stroke-width="2"/>
<line x1="-15.5" y1="315" x2="1350.5" y2="315" stroke="white" stroke-width="2"/>
<line x1="-15.5" y1="323" x2="1350.5" y2="323" stroke="white" stroke-width="2"/>
<line x1="-15.5" y1="331" x2="1350.5" y2="331" stroke="white" stroke-width="2"/>
<line x1="-15.5" y1="339" x2="1350.5" y2="339" stroke="white" stroke-width="2"/>
<line x1="-15.5" y1="347" x2="1350.5" y2="347" stroke="white" stroke-width="2"/>
<line x1="-15.5" y1="355" x2="1350.5" y2="355" stroke="white" stroke-width="2"/>
<line x1="-15.5" y1="363" x2="1350.5" y2="363" stroke="white" stroke-width="2"/>
<line x1="-15.5" y1="371" x2="1350.5" y2="371" stroke="white" stroke-width="2"/>
<line x1="-15.5" y1="379" x2="1350.5" y2="379" stroke="white" stroke-width="2"/>
<line x1="-15.5" y1="387" x2="1350.5" y2="387" stroke="white" stroke-width="2"/>
<line x1="-15.5" y1="395" x2="1350.5" y2="395" stroke="white" stroke-width="2"/>
<line x1="-15.5" y1="403" x2="1350.5" y2="403" stroke="white" stroke-width="2"/>
<line x1="-15.5" y1="411" x2="1350.5" y2="411" stroke="white" stroke-width="2"/>
<line x1="-15.5" y1="419" x2="1350.5" y2="419" stroke="white" stroke-width="2"/>
<line x1="-15.5" y1="427" x2="1350.5" y2="427" stroke="white" stroke-width="2"/>
<line x1="-15.5" y1="435" x2="1350.5" y2="435" stroke="white" stroke-width="2"/>
<line x1="-15.5" y1="443" x2="1350.5" y2="443" stroke="white" stroke-width="2"/>
<line x1="-15.5" y1="451" x2="1350.5" y2="451" stroke="white" stroke-width="2"/>
<line x1="-15.5" y1="459" x2="1350.5" y2="459" stroke="white" stroke-width="2"/>
<line x1="-15.5" y1="467" x2="1350.5" y2="467" stroke="white" stroke-width="2"/>
<line x1="-15.5" y1="475" x2="1350.5" y2="475" stroke="white" stroke-width="2"/>
<line x1="-15.5" y1="483" x2="1350.5" y2="483" stroke="white" stroke-width="2"/>
<line x1="-15.5" y1="491" x2="1350.5" y2="491" stroke="white" stroke-width="2"/>
<line x1="-15.5" y1="499" x2="1350.5" y2="499" stroke="white" stroke-width="2"/>
<line x1="-15.5" y1="507" x2="1350.5" y2="507" stroke="white" stroke-width="2"/>
<line x1="-15.5" y1="515" x2="1350.5" y2="515" stroke="white" stroke-width="2"/>
<line x1="-15.5" y1="523" x2="1350.5" y2="523" stroke="white" stroke-width="2"/>
<line x1="-15.5" y1="531" x2="1350.5" y2="531" stroke="white" stroke-width="2"/>
<line x1="-15.5" y1="539" x2="1350.5" y2="539" stroke="white" stroke-width="2"/>
<line x1="-15.5" y1="547" x2="1350.5" y2="547" stroke="white" stroke-width="2"/>
<line x1="-15.5" y1="555" x2="1350.5" y2="555" stroke="white" stroke-width="2"/>
<line x1="-15.5" y1="563" x2="1350.5" y2="563" stroke="white" stroke-width="2"/>
<line x1="-15.5" y1="571" x2="1350.5" y2="571" stroke="white" stroke-width="2"/>
<line x1="-15.5" y1="579" x2="1350.5" y2="579" stroke="white" stroke-width="2"/>
<line x1="-15.5" y1="587" x2="1350.5" y2="587" stroke="white" stroke-width="2"/>
<line x1="-15.5" y1="595" x2="1350.5" y2="595" stroke="white" stroke-width="2"/>
<line x1="-15.5" y1="603" x2="1350.5" y2="603" stroke="white" stroke-width="2"/>
<line x1="-15.5" y1="611" x2="1350.5" y2="611" stroke="white" stroke-width="2"/>
<line x1="-15.5" y1="619" x2="1350.5" y2="619" stroke="white" stroke-width="2"/>
<line x1="-15.5" y1="627" x2="1350.5" y2="627" stroke="white" stroke-width="2"/>
<line x1="-15.5" y1="635" x2="1350.5" y2="635" stroke="white" stroke-width="2"/>
<line x1="-15.5" y1="643" x2="1350.5" y2="643" stroke="white" stroke-width="2"/>
<line x1="-15.5" y1="651" x2="1350.5" y2="651" stroke="white" stroke-width="2"/>
<line x1="-15.5" y1="659" x2="1350.5" y2="659" stroke="white" stroke-width="2"/>
<line x1="-15.5" y1="667" x2="1350.5" y2="667" stroke="white" stroke-width="2"/>
<line x1="-15.5" y1="675" x2="1350.5" y2="675" stroke="white" stroke-width="2"/>
<line x1="-15.5" y1="683" x2="1350.5" y2="683" stroke="white" stroke-width="2"/>
<line x1="-15.5" y1="691" x2="1350.5" y2="691" stroke="white" stroke-width="2"/>
<line x1="-15.5" y1="699" x2="1350.5" y2="699" stroke="white" stroke-width="2"/>
<line x1="-15.5" y1="707" x2="1350.5" y2="707" stroke="white" stroke-width="2"/>
<line x1="-15.5" y1="715" x2="1350.5" y2="715" stroke="white" stroke-width="2"/>
<line x1="-15.5" y1="723" x2="1350.5" y2="723" stroke="white" stroke-width="2"/>
<line x1="-15.5" y1="731" x2="1350.5" y2="731" stroke="white" stroke-width="2"/>
<line x1="-15.5" y1="739" x2="1350.5" y2="739" stroke="white" stroke-width="2"/>
<line x1="-15.5" y1="747" x2="1350.5" y2="747" stroke="white" stroke-width="2"/>
<line x1="-15.5" y1="755" x2="1350.5" y2="755" stroke="white" stroke-width="2"/>
<line x1="-15.5" y1="763" x2="1350.5" y2="763" stroke="white" stroke-width="2"/>
<line x1="-15.5" y1="771" x2="1350.5" y2="771" stroke="white" stroke-width="2"/>
<line x1="-15.5" y1="779" x2="1350.5" y2="779" stroke="white" stroke-width="2"/>
<line x1="-15.5" y1="787" x2="1350.5" y2="787" stroke="white" stroke-width="2"/>
<line x1="-15.5" y1="795" x2="1350.5" y2="795" stroke="white" stroke-width="2"/>
<line x1="-15.5" y1="803" x2="1350.5" y2="803" stroke="white" stroke-width="2"/>
<line x1="-15.5" y1="811" x2="1350.5" y2="811" stroke="white" stroke-width="2"/>
<line x1="-15.5" y1="819" x2="1350.5" y2="819" stroke="white" stroke-width="2"/>
<line x1="-15.5" y1="827" x2="1350.5" y2="827" stroke="white" stroke-width="2"/>
<line x1="-15.5" y1="835" x2="1350.5" y2="835" stroke="white" stroke-width="2"/>
<line x1="-15.5" y1="843" x2="1350.5" y2="843" stroke="white" stroke-width="2"/>
<line x1="-15.5" y1="851" x2="1350.5" y2="851" stroke="white" stroke-width="2"/>
<line x1="-15.5" y1="859" x2="1350.5" y2="859" stroke="white" stroke-width="2"/>
<line x1="-15.5" y1="867" x2="1350.5" y2="867" stroke="white" stroke-width="2"/>
<line x1="-15.5" y1="875" x2="1350.5" y2="875" stroke="white" stroke-width="2"/>
<line x1="-15.5" y1="883" x2="1350.5" y2="883" stroke="white" stroke-width="2"/>
<line x1="-15.5" y1="891" x2="1350.5" y2="891" stroke="white" stroke-width="2"/>
<line x1="-15.5" y1="899" x2="1350.5" y2="899" stroke="white" stroke-width="2"/>
<line x1="-15.5" y1="907" x2="1350.5" y2="907" stroke="white" stroke-width="2"/>
<line x1="-15.5" y1="915" x2="1350.5" y2="915" stroke="white" stroke-width="2"/>
<line x1="-15.5" y1="923" x2="1350.5" y2="923" stroke="white" stroke-width="2"/>
<line x1="-15.5" y1="931" x2="1350.5" y2="931" stroke="white" stroke-width="2"/>
<line x1="-15.5" y1="939" x2="1350.5" y2="939" stroke="white" stroke-width="2"/>
<line x1="-15.5" y1="947" x2="1350.5" y2="947" stroke="white" stroke-width="2"/>
<line x1="-15.5" y1="955" x2="1350.5" y2="955" stroke="white" stroke-width="2"/>
<line x1="-15.5" y1="963" x2="1350.5" y2="963" stroke="white" stroke-width="2"/>
<line x1="-15.5" y1="971" x2="1350.5" y2="971" stroke="white" stroke-width="2"/>
<line x1="-15.5" y1="979" x2="1350.5" y2="979" stroke="white" stroke-width="2"/>
<line x1="-15.5" y1="987" x2="1350.5" y2="987" stroke="white" stroke-width="2"/>
<line x1="-15.5" y1="995" x2="1350.5" y2="995" stroke="white" stroke-width="2"/>
<line x1="-15.5" y1="1003" x2="1350.5" y2="1003" stroke="white" stroke-width="2"/>
<line x1="-15.5" y1="1011" x2="1350.5" y2="1011" stroke="white" stroke-width="2"/>
<line x1="-15.5" y1="1019" x2="1350.5" y2="1019" stroke="white" stroke-width="2"/>
<line x1="-15.5" y1="1027" x2="1350.5" y2="1027" stroke="white" stroke-width="2"/>
<line x1="-15.5" y1="1035" x2="1350.5" y2="1035" stroke="white" stroke-width="2"/>
<line x1="-15.5" y1="1043" x2="1350.5" y2="1043" stroke="white" stroke-width="2"/>
<line x1="-15.5" y1="1051" x2="1350.5" y2="1051" stroke="white" stroke-width="2"/>
<line x1="-15.5" y1="1059" x2="1350.5" y2="1059" stroke="white" stroke-width="2"/>
<line x1="-15.5" y1="1067" x2="1350.5" y2="1067" stroke="white" stroke-width="2"/>
<line x1="-15.5" y1="1075" x2="1350.5" y2="1075" stroke="white" stroke-width="2"/>
<line x1="-15.5" y1="1083" x2="1350.5" y2="1083" stroke="white" stroke-width="2"/>
<line x1="-15.5" y1="1091" x2="1350.5" y2="1091" stroke="white" stroke-width="2"/>
<line x1="-15.5" y1="1099" x2="1350.5" y2="1099" stroke="white" stroke-width="2"/>
<line x1="-15.5" y1="1107" x2="1350.5" y2="1107" stroke="white" stroke-width="2"/>
<line x1="-15.5" y1="1115" x2="1350.5" y2="1115" stroke="white" stroke-width="2"/>
<line x1="-15.5" y1="1123" x2="1350.5" y2="1123" stroke="white" stroke-width="2"/>
<line x1="-15.5" y1="1131" x2="1350.5" y2="1131" stroke="white" stroke-width="2"/>
<line x1="-15.5" y1="1139" x2="1350.5" y2="1139" stroke="white" stroke-width="2"/>
<line x1="-15.5" y1="1147" x2="1350.5" y2="1147" stroke="white" stroke-width="2"/>
<line x1="-15.5" y1="1155" x2="1350.5" y2="1155" stroke="white" stroke-width="2"/>
<line x1="-15.5" y1="1163" x2="1350.5" y2="1163" stroke="white" stroke-width="2"/>
<line x1="-15.5" y1="1171" x2="1350.5" y2="1171" stroke="white" stroke-width="2"/>
<line x1="-15.5" y1="1179" x2="1350.5" y2="1179" stroke="white" stroke-width="2"/>
<line x1="-15.5" y1="1187" x2="1350.5" y2="1187" stroke="white" stroke-width="2"/>
<line x1="-15.5" y1="1195" x2="1350.5" y2="1195" stroke="white" stroke-width="2"/>
<line x1="-15.5" y1="1203" x2="1350.5" y2="1203" stroke="white" stroke-width="2"/>
<line x1="-15.5" y1="1211" x2="1350.5" y2="1211" stroke="white" stroke-width="2"/>
<line x1="-15.5" y1="1219" x2="1350.5" y2="1219" stroke="white" stroke-width="2"/>
<line x1="-15.5" y1="1227" x2="1350.5" y2="1227" stroke="white" stroke-width="2"/>
<line x1="-15.5" y1="1235" x2="1350.5" y2="1235" stroke="white" stroke-width="2"/>
<line x1="-15.5" y1="1243" x2="1350.5" y2="1243" stroke="white" stroke-width="2"/>
<line x1="-15.5" y1="1251" x2="1350.5" y2="1251" stroke="white" stroke-width="2"/>
<line x1="-15.5" y1="1259" x2="1350.5" y2="1259" stroke="white" stroke-width="2"/>
<line x1="-15.5" y1="1267" x2="1350.5" y2="1267" stroke="white" stroke-width="2"/>
<line x1="-15.5" y1="1275" x2="1350.5" y2="1275" stroke="white" stroke-width="2"/>
<line x1="-15.5" y1="1283" x2="1350.5" y2="1283" stroke="white" stroke-width="2"/>
<line x1="-15.5" y1="1291" x2="1350.5" y2="1291" stroke="white" stroke-width="2"/>
<line x1="-15.5" y1="1299" x2="1350.5" y2="1299" stroke="white" stroke-width="2"/>
<line x1="-15.5" y1="1307" x2="1350.5" y2="1307" stroke="white" stroke-width="2"/>
</g>
</g>
</g>
<defs>
<clipPath id="clip0">
<rect width="1350" height="1767" fill="white"/>
</clipPath>
</defs>
</svg>
