<svg width="678" height="70" viewBox="0 0 678 70" fill="none" xmlns="http://www.w3.org/2000/svg">
<circle cx="3.5" cy="37.5" r="2.5" fill="white" fill-opacity="0.025"/>
<circle cx="323.5" cy="37.5" r="2.5" fill="white" fill-opacity="0.025"/>
<circle cx="163.5" cy="37.5" r="2.5" fill="white" fill-opacity="0.025"/>
<circle cx="483.5" cy="37.5" r="2.5" fill="white" fill-opacity="0.025"/>
<circle cx="83.5" cy="37.5" r="2.5" fill="white" fill-opacity="0.025"/>
<circle cx="403.5" cy="37.5" r="2.5" fill="white" fill-opacity="0.025"/>
<circle cx="243.5" cy="37.5" r="2.5" fill="white" fill-opacity="0.025"/>
<circle cx="563.5" cy="37.5" r="2.5" fill="white" fill-opacity="0.025"/>
<circle cx="43.5" cy="37.5" r="2.5" fill="white" fill-opacity="0.025"/>
<circle cx="363.5" cy="37.5" r="2.5" fill="white" fill-opacity="0.025"/>
<circle cx="203.5" cy="37.5" r="2.5" fill="white" fill-opacity="0.025"/>
<circle cx="523.5" cy="37.5" r="2.5" fill="white" fill-opacity="0.025"/>
<circle cx="123.5" cy="37.5" r="2.5" fill="white" fill-opacity="0.025"/>
<circle cx="443.5" cy="37.5" r="2.5" fill="white" fill-opacity="0.025"/>
<circle cx="283.5" cy="37.5" r="2.5" fill="white" fill-opacity="0.025"/>
<circle cx="603.5" cy="37.5" r="2.5" fill="white" fill-opacity="0.025"/>
<circle cx="3.5" cy="57.5" r="2.5" fill="white" fill-opacity="0.025"/>
<circle cx="323.5" cy="57.5" r="2.5" fill="white" fill-opacity="0.025"/>
<circle cx="163.5" cy="57.5" r="2.5" fill="white" fill-opacity="0.025"/>
<circle cx="483.5" cy="57.5" r="2.5" fill="white" fill-opacity="0.025"/>
<circle cx="83.5" cy="57.5" r="2.5" fill="white" fill-opacity="0.025"/>
<circle cx="403.5" cy="57.5" r="2.5" fill="white" fill-opacity="0.025"/>
<circle cx="243.5" cy="57.5" r="2.5" fill="white" fill-opacity="0.025"/>
<circle cx="563.5" cy="57.5" r="2.5" fill="white" fill-opacity="0.025"/>
<circle cx="43.5" cy="57.5" r="2.5" fill="white" fill-opacity="0.025"/>
<circle cx="363.5" cy="57.5" r="2.5" fill="white" fill-opacity="0.025"/>
<circle cx="203.5" cy="57.5" r="2.5" fill="white" fill-opacity="0.025"/>
<circle cx="523.5" cy="57.5" r="2.5" fill="white" fill-opacity="0.025"/>
<circle cx="123.5" cy="57.5" r="2.5" fill="white" fill-opacity="0.025"/>
<circle cx="443.5" cy="57.5" r="2.5" fill="white" fill-opacity="0.025"/>
<circle cx="283.5" cy="57.5" r="2.5" fill="white" fill-opacity="0.025"/>
<circle cx="603.5" cy="57.5" r="2.5" fill="white" fill-opacity="0.025"/>
<circle cx="23.5" cy="37.5" r="2.5" fill="white" fill-opacity="0.025"/>
<circle cx="343.5" cy="37.5" r="2.5" fill="white" fill-opacity="0.025"/>
<circle cx="183.5" cy="37.5" r="2.5" fill="white" fill-opacity="0.025"/>
<circle cx="503.5" cy="37.5" r="2.5" fill="white" fill-opacity="0.025"/>
<circle cx="103.5" cy="37.5" r="2.5" fill="white" fill-opacity="0.025"/>
<circle cx="423.5" cy="37.5" r="2.5" fill="white" fill-opacity="0.025"/>
<circle cx="263.5" cy="37.5" r="2.5" fill="white" fill-opacity="0.025"/>
<circle cx="583.5" cy="37.5" r="2.5" fill="white" fill-opacity="0.025"/>
<circle cx="63.5" cy="37.5" r="2.5" fill="white" fill-opacity="0.025"/>
<circle cx="383.5" cy="37.5" r="2.5" fill="white" fill-opacity="0.025"/>
<circle cx="223.5" cy="37.5" r="2.5" fill="white" fill-opacity="0.025"/>
<circle cx="543.5" cy="37.5" r="2.5" fill="white" fill-opacity="0.025"/>
<circle cx="143.5" cy="37.5" r="2.5" fill="white" fill-opacity="0.025"/>
<circle cx="463.5" cy="37.5" r="2.5" fill="white" fill-opacity="0.025"/>
<circle cx="303.5" cy="37.5" r="2.5" fill="white" fill-opacity="0.025"/>
<circle cx="623.5" cy="37.5" r="2.5" fill="white" fill-opacity="0.025"/>
<circle cx="23.5" cy="57.5" r="2.5" fill="white" fill-opacity="0.025"/>
<circle cx="343.5" cy="57.5" r="2.5" fill="white" fill-opacity="0.025"/>
<circle cx="183.5" cy="57.5" r="2.5" fill="white" fill-opacity="0.025"/>
<circle cx="503.5" cy="57.5" r="2.5" fill="white" fill-opacity="0.025"/>
<circle cx="103.5" cy="57.5" r="2.5" fill="white" fill-opacity="0.025"/>
<circle cx="423.5" cy="57.5" r="2.5" fill="white" fill-opacity="0.025"/>
<circle cx="263.5" cy="57.5" r="2.5" fill="white" fill-opacity="0.025"/>
<circle cx="583.5" cy="57.5" r="2.5" fill="white" fill-opacity="0.025"/>
<circle cx="63.5" cy="57.5" r="2.5" fill="white" fill-opacity="0.025"/>
<circle cx="383.5" cy="57.5" r="2.5" fill="white" fill-opacity="0.025"/>
<circle cx="223.5" cy="57.5" r="2.5" fill="white" fill-opacity="0.025"/>
<circle cx="543.5" cy="57.5" r="2.5" fill="white" fill-opacity="0.025"/>
<circle cx="143.5" cy="57.5" r="2.5" fill="white" fill-opacity="0.025"/>
<circle cx="463.5" cy="57.5" r="2.5" fill="white" fill-opacity="0.025"/>
<circle cx="303.5" cy="57.5" r="2.5" fill="white" fill-opacity="0.025"/>
<circle cx="623.5" cy="57.5" r="2.5" fill="white" fill-opacity="0.025"/>
<circle cx="3.5" cy="47.5" r="2.5" fill="white" fill-opacity="0.025"/>
<circle cx="323.5" cy="47.5" r="2.5" fill="white" fill-opacity="0.025"/>
<circle cx="163.5" cy="47.5" r="2.5" fill="white" fill-opacity="0.025"/>
<circle cx="483.5" cy="47.5" r="2.5" fill="white" fill-opacity="0.025"/>
<circle cx="83.5" cy="47.5" r="2.5" fill="white" fill-opacity="0.025"/>
<circle cx="403.5" cy="47.5" r="2.5" fill="white" fill-opacity="0.025"/>
<circle cx="243.5" cy="47.5" r="2.5" fill="white" fill-opacity="0.025"/>
<circle cx="563.5" cy="47.5" r="2.5" fill="white" fill-opacity="0.025"/>
<circle cx="43.5" cy="47.5" r="2.5" fill="white" fill-opacity="0.025"/>
<circle cx="363.5" cy="47.5" r="2.5" fill="white" fill-opacity="0.025"/>
<circle cx="203.5" cy="47.5" r="2.5" fill="white" fill-opacity="0.025"/>
<circle cx="523.5" cy="47.5" r="2.5" fill="white" fill-opacity="0.025"/>
<circle cx="123.5" cy="47.5" r="2.5" fill="white" fill-opacity="0.025"/>
<circle cx="443.5" cy="47.5" r="2.5" fill="white" fill-opacity="0.025"/>
<circle cx="283.5" cy="47.5" r="2.5" fill="white" fill-opacity="0.025"/>
<circle cx="603.5" cy="47.5" r="2.5" fill="white" fill-opacity="0.025"/>
<circle cx="3.5" cy="67.5" r="2.5" fill="white" fill-opacity="0.025"/>
<circle cx="323.5" cy="67.5" r="2.5" fill="white" fill-opacity="0.025"/>
<circle cx="163.5" cy="67.5" r="2.5" fill="white" fill-opacity="0.025"/>
<circle cx="483.5" cy="67.5" r="2.5" fill="white" fill-opacity="0.025"/>
<circle cx="83.5" cy="67.5" r="2.5" fill="white" fill-opacity="0.025"/>
<circle cx="403.5" cy="67.5" r="2.5" fill="white" fill-opacity="0.025"/>
<circle cx="243.5" cy="67.5" r="2.5" fill="white" fill-opacity="0.025"/>
<circle cx="563.5" cy="67.5" r="2.5" fill="white" fill-opacity="0.025"/>
<circle cx="43.5" cy="67.5" r="2.5" fill="white" fill-opacity="0.025"/>
<circle cx="363.5" cy="67.5" r="2.5" fill="white" fill-opacity="0.025"/>
<circle cx="203.5" cy="67.5" r="2.5" fill="white" fill-opacity="0.025"/>
<circle cx="523.5" cy="67.5" r="2.5" fill="white" fill-opacity="0.025"/>
<circle cx="123.5" cy="67.5" r="2.5" fill="white" fill-opacity="0.025"/>
<circle cx="443.5" cy="67.5" r="2.5" fill="white" fill-opacity="0.025"/>
<circle cx="283.5" cy="67.5" r="2.5" fill="white" fill-opacity="0.025"/>
<circle cx="603.5" cy="67.5" r="2.5" fill="white" fill-opacity="0.025"/>
<circle cx="23.5" cy="47.5" r="2.5" fill="white" fill-opacity="0.025"/>
<circle cx="343.5" cy="47.5" r="2.5" fill="white" fill-opacity="0.025"/>
<circle cx="183.5" cy="47.5" r="2.5" fill="white" fill-opacity="0.025"/>
<circle cx="503.5" cy="47.5" r="2.5" fill="white" fill-opacity="0.025"/>
<circle cx="103.5" cy="47.5" r="2.5" fill="white" fill-opacity="0.025"/>
<circle cx="423.5" cy="47.5" r="2.5" fill="white" fill-opacity="0.025"/>
<circle cx="263.5" cy="47.5" r="2.5" fill="white" fill-opacity="0.025"/>
<circle cx="583.5" cy="47.5" r="2.5" fill="white" fill-opacity="0.025"/>
<circle cx="63.5" cy="47.5" r="2.5" fill="white" fill-opacity="0.025"/>
<circle cx="383.5" cy="47.5" r="2.5" fill="white" fill-opacity="0.025"/>
<circle cx="223.5" cy="47.5" r="2.5" fill="white" fill-opacity="0.025"/>
<circle cx="543.5" cy="47.5" r="2.5" fill="white" fill-opacity="0.025"/>
<circle cx="143.5" cy="47.5" r="2.5" fill="white" fill-opacity="0.025"/>
<circle cx="463.5" cy="47.5" r="2.5" fill="white" fill-opacity="0.025"/>
<circle cx="303.5" cy="47.5" r="2.5" fill="white" fill-opacity="0.025"/>
<circle cx="623.5" cy="47.5" r="2.5" fill="white" fill-opacity="0.025"/>
<circle cx="23.5" cy="67.5" r="2.5" fill="white" fill-opacity="0.025"/>
<circle cx="343.5" cy="67.5" r="2.5" fill="white" fill-opacity="0.025"/>
<circle cx="183.5" cy="67.5" r="2.5" fill="white" fill-opacity="0.025"/>
<circle cx="503.5" cy="67.5" r="2.5" fill="white" fill-opacity="0.025"/>
<circle cx="103.5" cy="67.5" r="2.5" fill="white" fill-opacity="0.025"/>
<circle cx="423.5" cy="67.5" r="2.5" fill="white" fill-opacity="0.025"/>
<circle cx="263.5" cy="67.5" r="2.5" fill="white" fill-opacity="0.025"/>
<circle cx="583.5" cy="67.5" r="2.5" fill="white" fill-opacity="0.025"/>
<circle cx="63.5" cy="67.5" r="2.5" fill="white" fill-opacity="0.025"/>
<circle cx="383.5" cy="67.5" r="2.5" fill="white" fill-opacity="0.025"/>
<circle cx="223.5" cy="67.5" r="2.5" fill="white" fill-opacity="0.025"/>
<circle cx="543.5" cy="67.5" r="2.5" fill="white" fill-opacity="0.025"/>
<circle cx="143.5" cy="67.5" r="2.5" fill="white" fill-opacity="0.025"/>
<circle cx="463.5" cy="67.5" r="2.5" fill="white" fill-opacity="0.025"/>
<circle cx="303.5" cy="67.5" r="2.5" fill="white" fill-opacity="0.025"/>
<circle cx="623.5" cy="67.5" r="2.5" fill="white" fill-opacity="0.025"/>
<circle cx="13.5" cy="47.5" r="2.5" fill="white" fill-opacity="0.025"/>
<circle cx="333.5" cy="47.5" r="2.5" fill="white" fill-opacity="0.025"/>
<circle cx="173.5" cy="47.5" r="2.5" fill="white" fill-opacity="0.025"/>
<circle cx="493.5" cy="47.5" r="2.5" fill="white" fill-opacity="0.025"/>
<circle cx="93.5" cy="47.5" r="2.5" fill="white" fill-opacity="0.025"/>
<circle cx="413.5" cy="47.5" r="2.5" fill="white" fill-opacity="0.025"/>
<circle cx="253.5" cy="47.5" r="2.5" fill="white" fill-opacity="0.025"/>
<circle cx="573.5" cy="47.5" r="2.5" fill="white" fill-opacity="0.025"/>
<circle cx="53.5" cy="47.5" r="2.5" fill="white" fill-opacity="0.025"/>
<circle cx="373.5" cy="47.5" r="2.5" fill="white" fill-opacity="0.025"/>
<circle cx="213.5" cy="47.5" r="2.5" fill="white" fill-opacity="0.025"/>
<circle cx="533.5" cy="47.5" r="2.5" fill="white" fill-opacity="0.025"/>
<circle cx="133.5" cy="47.5" r="2.5" fill="white" fill-opacity="0.025"/>
<circle cx="453.5" cy="47.5" r="2.5" fill="white" fill-opacity="0.025"/>
<circle cx="293.5" cy="47.5" r="2.5" fill="white" fill-opacity="0.025"/>
<circle cx="613.5" cy="47.5" r="2.5" fill="white" fill-opacity="0.025"/>
<circle cx="13.5" cy="67.5" r="2.5" fill="white" fill-opacity="0.025"/>
<circle cx="333.5" cy="67.5" r="2.5" fill="white" fill-opacity="0.025"/>
<circle cx="173.5" cy="67.5" r="2.5" fill="white" fill-opacity="0.025"/>
<circle cx="493.5" cy="67.5" r="2.5" fill="white" fill-opacity="0.025"/>
<circle cx="93.5" cy="67.5" r="2.5" fill="white" fill-opacity="0.025"/>
<circle cx="413.5" cy="67.5" r="2.5" fill="white" fill-opacity="0.025"/>
<circle cx="253.5" cy="67.5" r="2.5" fill="white" fill-opacity="0.025"/>
<circle cx="573.5" cy="67.5" r="2.5" fill="white" fill-opacity="0.025"/>
<circle cx="53.5" cy="67.5" r="2.5" fill="white" fill-opacity="0.025"/>
<circle cx="373.5" cy="67.5" r="2.5" fill="white" fill-opacity="0.025"/>
<circle cx="213.5" cy="67.5" r="2.5" fill="white" fill-opacity="0.025"/>
<circle cx="533.5" cy="67.5" r="2.5" fill="white" fill-opacity="0.025"/>
<circle cx="133.5" cy="67.5" r="2.5" fill="white" fill-opacity="0.025"/>
<circle cx="453.5" cy="67.5" r="2.5" fill="white" fill-opacity="0.025"/>
<circle cx="293.5" cy="67.5" r="2.5" fill="white" fill-opacity="0.025"/>
<circle cx="613.5" cy="67.5" r="2.5" fill="white" fill-opacity="0.025"/>
<circle cx="33.5" cy="47.5" r="2.5" fill="white" fill-opacity="0.025"/>
<circle cx="353.5" cy="47.5" r="2.5" fill="white" fill-opacity="0.025"/>
<circle cx="193.5" cy="47.5" r="2.5" fill="white" fill-opacity="0.025"/>
<circle cx="513.5" cy="47.5" r="2.5" fill="white" fill-opacity="0.025"/>
<circle cx="113.5" cy="47.5" r="2.5" fill="white" fill-opacity="0.025"/>
<circle cx="433.5" cy="47.5" r="2.5" fill="white" fill-opacity="0.025"/>
<circle cx="273.5" cy="47.5" r="2.5" fill="white" fill-opacity="0.025"/>
<circle cx="593.5" cy="47.5" r="2.5" fill="white" fill-opacity="0.025"/>
<circle cx="73.5" cy="47.5" r="2.5" fill="white" fill-opacity="0.025"/>
<circle cx="393.5" cy="47.5" r="2.5" fill="white" fill-opacity="0.025"/>
<circle cx="233.5" cy="47.5" r="2.5" fill="white" fill-opacity="0.025"/>
<circle cx="553.5" cy="47.5" r="2.5" fill="white" fill-opacity="0.025"/>
<circle cx="153.5" cy="47.5" r="2.5" fill="white" fill-opacity="0.025"/>
<circle cx="473.5" cy="47.5" r="2.5" fill="white" fill-opacity="0.025"/>
<circle cx="313.5" cy="47.5" r="2.5" fill="white" fill-opacity="0.025"/>
<circle cx="633.5" cy="47.5" r="2.5" fill="white" fill-opacity="0.025"/>
<circle cx="643.5" cy="47.5" r="2.5" fill="white" fill-opacity="0.025"/>
<circle cx="653.5" cy="47.5" r="2.5" fill="white" fill-opacity="0.025"/>
<circle cx="663.5" cy="47.5" r="2.5" fill="white" fill-opacity="0.025"/>
<circle cx="673.5" cy="47.5" r="2.5" fill="white" fill-opacity="0.025"/>
<circle cx="33.5" cy="67.5" r="2.5" fill="white" fill-opacity="0.025"/>
<circle cx="353.5" cy="67.5" r="2.5" fill="white" fill-opacity="0.025"/>
<circle cx="193.5" cy="67.5" r="2.5" fill="white" fill-opacity="0.025"/>
<circle cx="513.5" cy="67.5" r="2.5" fill="white" fill-opacity="0.025"/>
<circle cx="113.5" cy="67.5" r="2.5" fill="white" fill-opacity="0.025"/>
<circle cx="433.5" cy="67.5" r="2.5" fill="white" fill-opacity="0.025"/>
<circle cx="273.5" cy="67.5" r="2.5" fill="white" fill-opacity="0.025"/>
<circle cx="593.5" cy="67.5" r="2.5" fill="white" fill-opacity="0.025"/>
<circle cx="73.5" cy="67.5" r="2.5" fill="white" fill-opacity="0.025"/>
<circle cx="393.5" cy="67.5" r="2.5" fill="white" fill-opacity="0.025"/>
<circle cx="233.5" cy="67.5" r="2.5" fill="white" fill-opacity="0.025"/>
<circle cx="553.5" cy="67.5" r="2.5" fill="white" fill-opacity="0.025"/>
<circle cx="153.5" cy="67.5" r="2.5" fill="white" fill-opacity="0.025"/>
<circle cx="473.5" cy="67.5" r="2.5" fill="white" fill-opacity="0.025"/>
<circle cx="313.5" cy="67.5" r="2.5" fill="white" fill-opacity="0.025"/>
<circle cx="633.5" cy="67.5" r="2.5" fill="white" fill-opacity="0.025"/>
<circle cx="643.5" cy="67.5" r="2.5" fill="white" fill-opacity="0.025"/>
<circle cx="653.5" cy="67.5" r="2.5" fill="white" fill-opacity="0.025"/>
<circle cx="663.5" cy="67.5" r="2.5" fill="white" fill-opacity="0.025"/>
<circle cx="673.5" cy="67.5" r="2.5" fill="white" fill-opacity="0.025"/>
<circle cx="13.5" cy="37.5" r="2.5" fill="white" fill-opacity="0.025"/>
<circle cx="333.5" cy="37.5" r="2.5" fill="white" fill-opacity="0.025"/>
<circle cx="173.5" cy="37.5" r="2.5" fill="white" fill-opacity="0.025"/>
<circle cx="493.5" cy="37.5" r="2.5" fill="white" fill-opacity="0.025"/>
<circle cx="93.5" cy="37.5" r="2.5" fill="white" fill-opacity="0.025"/>
<circle cx="413.5" cy="37.5" r="2.5" fill="white" fill-opacity="0.025"/>
<circle cx="253.5" cy="37.5" r="2.5" fill="white" fill-opacity="0.025"/>
<circle cx="573.5" cy="37.5" r="2.5" fill="white" fill-opacity="0.025"/>
<circle cx="53.5" cy="37.5" r="2.5" fill="white" fill-opacity="0.025"/>
<circle cx="373.5" cy="37.5" r="2.5" fill="white" fill-opacity="0.025"/>
<circle cx="213.5" cy="37.5" r="2.5" fill="white" fill-opacity="0.025"/>
<circle cx="533.5" cy="37.5" r="2.5" fill="white" fill-opacity="0.025"/>
<circle cx="133.5" cy="37.5" r="2.5" fill="white" fill-opacity="0.025"/>
<circle cx="453.5" cy="37.5" r="2.5" fill="white" fill-opacity="0.025"/>
<circle cx="293.5" cy="37.5" r="2.5" fill="white" fill-opacity="0.025"/>
<circle cx="613.5" cy="37.5" r="2.5" fill="white" fill-opacity="0.025"/>
<circle cx="13.5" cy="57.5" r="2.5" fill="white" fill-opacity="0.025"/>
<circle cx="333.5" cy="57.5" r="2.5" fill="white" fill-opacity="0.025"/>
<circle cx="173.5" cy="57.5" r="2.5" fill="white" fill-opacity="0.025"/>
<circle cx="493.5" cy="57.5" r="2.5" fill="white" fill-opacity="0.025"/>
<circle cx="93.5" cy="57.5" r="2.5" fill="white" fill-opacity="0.025"/>
<circle cx="413.5" cy="57.5" r="2.5" fill="white" fill-opacity="0.025"/>
<circle cx="253.5" cy="57.5" r="2.5" fill="white" fill-opacity="0.025"/>
<circle cx="573.5" cy="57.5" r="2.5" fill="white" fill-opacity="0.025"/>
<circle cx="53.5" cy="57.5" r="2.5" fill="white" fill-opacity="0.025"/>
<circle cx="373.5" cy="57.5" r="2.5" fill="white" fill-opacity="0.025"/>
<circle cx="213.5" cy="57.5" r="2.5" fill="white" fill-opacity="0.025"/>
<circle cx="533.5" cy="57.5" r="2.5" fill="white" fill-opacity="0.025"/>
<circle cx="133.5" cy="57.5" r="2.5" fill="white" fill-opacity="0.025"/>
<circle cx="453.5" cy="57.5" r="2.5" fill="white" fill-opacity="0.025"/>
<circle cx="293.5" cy="57.5" r="2.5" fill="white" fill-opacity="0.025"/>
<circle cx="613.5" cy="57.5" r="2.5" fill="white" fill-opacity="0.025"/>
<circle cx="33.5" cy="37.5" r="2.5" fill="white" fill-opacity="0.025"/>
<circle cx="353.5" cy="37.5" r="2.5" fill="white" fill-opacity="0.025"/>
<circle cx="193.5" cy="37.5" r="2.5" fill="white" fill-opacity="0.025"/>
<circle cx="513.5" cy="37.5" r="2.5" fill="white" fill-opacity="0.025"/>
<circle cx="113.5" cy="37.5" r="2.5" fill="white" fill-opacity="0.025"/>
<circle cx="433.5" cy="37.5" r="2.5" fill="white" fill-opacity="0.025"/>
<circle cx="273.5" cy="37.5" r="2.5" fill="white" fill-opacity="0.025"/>
<circle cx="593.5" cy="37.5" r="2.5" fill="white" fill-opacity="0.025"/>
<circle cx="73.5" cy="37.5" r="2.5" fill="white" fill-opacity="0.025"/>
<circle cx="393.5" cy="37.5" r="2.5" fill="white" fill-opacity="0.025"/>
<circle cx="233.5" cy="37.5" r="2.5" fill="white" fill-opacity="0.025"/>
<circle cx="553.5" cy="37.5" r="2.5" fill="white" fill-opacity="0.025"/>
<circle cx="153.5" cy="37.5" r="2.5" fill="white" fill-opacity="0.025"/>
<circle cx="473.5" cy="37.5" r="2.5" fill="white" fill-opacity="0.025"/>
<circle cx="313.5" cy="37.5" r="2.5" fill="white" fill-opacity="0.025"/>
<circle cx="633.5" cy="37.5" r="2.5" fill="white" fill-opacity="0.025"/>
<circle cx="643.5" cy="37.5" r="2.5" fill="white" fill-opacity="0.025"/>
<circle cx="653.5" cy="37.5" r="2.5" fill="white" fill-opacity="0.025"/>
<circle cx="663.5" cy="37.5" r="2.5" fill="white" fill-opacity="0.025"/>
<circle cx="673.5" cy="37.5" r="2.5" fill="white" fill-opacity="0.025"/>
<circle cx="33.5" cy="57.5" r="2.5" fill="white" fill-opacity="0.025"/>
<circle cx="353.5" cy="57.5" r="2.5" fill="white" fill-opacity="0.025"/>
<circle cx="193.5" cy="57.5" r="2.5" fill="white" fill-opacity="0.025"/>
<circle cx="513.5" cy="57.5" r="2.5" fill="white" fill-opacity="0.025"/>
<circle cx="113.5" cy="57.5" r="2.5" fill="white" fill-opacity="0.025"/>
<circle cx="433.5" cy="57.5" r="2.5" fill="white" fill-opacity="0.025"/>
<circle cx="273.5" cy="57.5" r="2.5" fill="white" fill-opacity="0.025"/>
<circle cx="593.5" cy="57.5" r="2.5" fill="white" fill-opacity="0.025"/>
<circle cx="73.5" cy="57.5" r="2.5" fill="white" fill-opacity="0.025"/>
<circle cx="393.5" cy="57.5" r="2.5" fill="white" fill-opacity="0.025"/>
<circle cx="233.5" cy="57.5" r="2.5" fill="white" fill-opacity="0.025"/>
<circle cx="553.5" cy="57.5" r="2.5" fill="white" fill-opacity="0.025"/>
<circle cx="153.5" cy="57.5" r="2.5" fill="white" fill-opacity="0.025"/>
<circle cx="473.5" cy="57.5" r="2.5" fill="white" fill-opacity="0.025"/>
<circle cx="313.5" cy="57.5" r="2.5" fill="white" fill-opacity="0.025"/>
<circle cx="633.5" cy="57.5" r="2.5" fill="white" fill-opacity="0.025"/>
<circle cx="643.5" cy="57.5" r="2.5" fill="white" fill-opacity="0.025"/>
<circle cx="653.5" cy="57.5" r="2.5" fill="white" fill-opacity="0.025"/>
<circle cx="663.5" cy="57.5" r="2.5" fill="white" fill-opacity="0.025"/>
<circle cx="673.5" cy="57.5" r="2.5" fill="white" fill-opacity="0.025"/>
<mask id="mask0" mask-type="alpha" maskUnits="userSpaceOnUse" x="261" y="0" width="159" height="50">
<path fill-rule="evenodd" clip-rule="evenodd" d="M261 20.3252V8.94309H261.488H265.756V4.06504H271.772V0H409.171V4.06504H415.431V9.14634H419.943V20.5285V29.6748V41.0569H415.431V46.3415H409.659V50H271.772V46.5447H265.756V40.6504H261V29.2683V20.3252Z" fill="#BAEAFF"/>
</mask>
<g mask="url(#mask0)">
<path d="M261 40.6504V20.3252H265.756V15.4472H271.772V11.3821H409.171V15.4472H415.431V20.5285H419.943V41.0569H415.431V46.3415H409.659V50H271.772V46.5447H265.756V40.6504H261Z" fill="#00425E"/>
<path d="M261 29.2683V8.94309H265.756V4.06504H271.772V0H409.171V4.06504H415.431V9.14634H419.943V29.6748H415.431V34.9594H409.659V38.6179H271.772V35.1626H265.756V29.2683H261Z" fill="#3dbef5"/>
<path opacity="0.5" d="M320.553 3.86178V0.203247H305.553V3.86178H303.561V6.30081H315.065V3.86178H320.553Z" fill="#BAEAFF"/>
<path opacity="0.5" d="M301.813 8.53659H299.293H288.276V11.9919H279.008V14.6342H274.008V20.7317H264.74V22.561L261.488 21.9512V28.252L266.244 28.8618V30.8943H277.016V17.0732H289.293H290.797V14.6342H296.041V11.9919H301.813V8.53659Z" fill="#BAEAFF"/>
<path d="M270.512 8.94309H261.488V22.9675H265.228V20.7317H274.496V14.8374H279.74V11.7886H288.52V8.53658H300.797V5.0813H270.512V8.94309Z" fill="#BAEAFF"/>
<g opacity="0.025">
<line x1="-344" x2="1022" stroke="white" stroke-width="2"/>
<line x1="-344" y1="8" x2="1022" y2="8" stroke="white" stroke-width="2"/>
<line x1="-344" y1="16" x2="1022" y2="16" stroke="white" stroke-width="2"/>
<line x1="-344" y1="24" x2="1022" y2="24" stroke="white" stroke-width="2"/>
<line x1="-344" y1="32" x2="1022" y2="32" stroke="white" stroke-width="2"/>
<line x1="-344" y1="40" x2="1022" y2="40" stroke="white" stroke-width="2"/>
<line x1="-344" y1="48" x2="1022" y2="48" stroke="white" stroke-width="2"/>
</g>
</g>
<line opacity="0.6" x1="218" y1="24.5" y2="24.5" stroke="#3dbef5"/>
<line y1="24.5" x2="14" y2="24.5" stroke="#3dbef5"/>
<line x1="16" y1="24.5" x2="51" y2="24.5" stroke="#3dbef5"/>
<line x1="55" y1="24.5" x2="127" y2="24.5" stroke="#3dbef5"/>
<line opacity="0.6" y1="-0.5" x2="218" y2="-0.5" transform="matrix(1 0 0 -1 460 25)" stroke="#3dbef5"/>
<line y1="-0.5" x2="14" y2="-0.5" transform="matrix(-1 0 0 1 678 26)" stroke="#3dbef5"/>
<line y1="-0.5" x2="35" y2="-0.5" transform="matrix(-1 0 0 1 662 26)" stroke="#3dbef5"/>
<line y1="-0.5" x2="72" y2="-0.5" transform="matrix(-1 0 0 1 623 26)" stroke="#3dbef5"/>
<path d="M288.836 17.1133H289.52V18.4805H288.152V17.7969H287.469V17.1133H284.734V17.7969H284.051V19.1641H284.734V19.8477H288.152V20.5312H288.836V21.2148H289.52V23.9492H288.836V24.6328H288.152V25.3164H284.051V24.6328H283.367V23.9492H282.684V22.582H284.051V23.2656H284.734V23.9492H287.469V23.2656H288.152V21.8984H287.469V21.2148H284.051V20.5312H283.367V19.8477H282.684V17.1133H283.367V16.4297H284.051V15.7461H288.152V16.4297H288.836V17.1133ZM297.723 15.7461V17.1133H292.254V19.8477H296.355V21.2148H292.254V23.9492H297.723V25.3164H290.887V15.7461H297.723ZM305.926 15.7461V17.1133H300.457V19.8477H304.559V21.2148H300.457V23.9492H305.926V25.3164H299.09V15.7461H305.926ZM316.863 21.2148H320.965V19.1641H320.281V18.4805H319.598V17.7969H318.23V18.4805H317.547V19.1641H316.863V21.2148ZM316.863 25.3164H315.496V18.4805H316.18V17.7969H316.863V17.1133H317.547V16.4297H318.23V15.7461H319.598V16.4297H320.281V17.1133H320.965V17.7969H321.648V18.4805H322.332V25.3164H320.965V22.582H316.863V25.3164ZM323.699 25.3164V15.7461H325.066V23.9492H330.535V25.3164H323.699ZM331.902 25.3164V15.7461H333.27V23.9492H338.738V25.3164H331.902ZM355.145 15.7461V17.1133H349.676V19.8477H353.777V21.2148H349.676V23.9492H355.145V25.3164H348.309V15.7461H355.145ZM357.195 22.582H356.512V15.7461H357.879V21.8984H358.562V22.582H359.246V23.2656H360.613V22.582H361.297V21.8984H361.98V15.7461H363.348V22.582H362.664V23.2656H361.98V23.9492H361.297V24.6328H360.613V25.3164H359.246V24.6328H358.562V23.9492H357.879V23.2656H357.195V22.582ZM371.551 15.7461V17.1133H366.082V19.8477H370.184V21.2148H366.082V23.9492H371.551V25.3164H364.715V15.7461H371.551ZM374.285 19.8477V25.3164H372.918V15.7461H374.285V17.7969H374.969V18.4805H375.652V19.1641H376.336V19.8477H377.02V20.5312H377.703V21.2148H378.387V15.7461H379.754V25.3164H378.387V23.2656H377.703V22.582H377.02V21.8984H376.336V21.2148H375.652V20.5312H374.969V19.8477H374.285ZM383.855 17.1133H381.121V15.7461H387.957V17.1133H385.223V25.3164H383.855V17.1133ZM395.477 17.1133H396.16V18.4805H394.793V17.7969H394.109V17.1133H391.375V17.7969H390.691V19.1641H391.375V19.8477H394.793V20.5312H395.477V21.2148H396.16V23.9492H395.477V24.6328H394.793V25.3164H390.691V24.6328H390.008V23.9492H389.324V22.582H390.691V23.2656H391.375V23.9492H394.109V23.2656H394.793V21.8984H394.109V21.2148H390.691V20.5312H390.008V19.8477H389.324V17.1133H390.008V16.4297H390.691V15.7461H394.793V16.4297H395.477V17.1133Z" fill="#131C20"/>
</svg>
