<svg width="299" height="11" viewBox="0 0 299 11" fill="none" xmlns="http://www.w3.org/2000/svg">
<path d="M146.172 8.55556V9.77778H145V7.33333H146.172V6.11111H147.344V4.88889H146.172V3.66667H145V1.22222H146.172V2.44444H147.344V3.66667H148.516V0H150.859V3.66667H152.031V2.44444H153.203V1.22222H154.375V3.66667H153.203V4.88889H152.031V6.11111H153.203V7.33333H154.375V9.77778H153.203V8.55556H152.031V7.33333H150.859V11H148.516V7.33333H147.344V8.55556H146.172Z" fill="#3dbef5"/>
<path opacity="0.6" fillRule="evenodd" clipRule="evenodd" d="M0 4.95408L127 4.95408V5.99704L0 5.99704V4.95408Z" fill="#3dbef5"/>
<path fillRule="evenodd" clipRule="evenodd" d="M14 5.99703H0V4.95407H14V5.99703Z" fill="#3dbef5"/>
<path fillRule="evenodd" clipRule="evenodd" d="M51 5.99703H16V4.95407H51V5.99703Z" fill="#3dbef5"/>
<path fillRule="evenodd" clipRule="evenodd" d="M127 5.99703H55V4.95407H127V5.99703Z" fill="#3dbef5"/>
<path opacity="0.6" fillRule="evenodd" clipRule="evenodd" d="M299 4.95408L172 4.95408V5.99704L299 5.99704V4.95408Z" fill="#3dbef5"/>
<path fillRule="evenodd" clipRule="evenodd" d="M285 5.99703H299V4.95407H285V5.99703Z" fill="#3dbef5"/>
<path fillRule="evenodd" clipRule="evenodd" d="M248 5.99703H283V4.95407H248V5.99703Z" fill="#3dbef5"/>
<path fillRule="evenodd" clipRule="evenodd" d="M172 5.99703H244V4.95407H172V5.99703Z" fill="#3dbef5"/>
</svg>
