<svg width="255" height="60" viewBox="0 0 255 60" fill="none" xmlns="http://www.w3.org/2000/svg">
<path fill-rule="evenodd" clip-rule="evenodd" d="M75.7227 3.92169H55.9565V7.21934H52.6409V33.4414H55.9565V36.7074H75.7227V33.4414H79.0061V7.21934H75.7227V3.92169ZM72.4389 17.0485V30.1437H59.2404V10.4844H72.4389V17.048V17.0485ZM106.595 7.18721H103.279V3.88957H83.5132V36.6752H103.279V33.4092H106.595V30.1116H109.878V10.4527H106.595V7.18675V7.18721ZM103.279 17.0145V30.1097H90.1127V10.4527H103.279V17.0159V17.0145ZM134.153 3.8891H114.386V36.6748H140.751V30.1111H120.985V23.5796H134.153V20.2819H137.468V17.0159H120.984V10.4527H140.75V3.8891H134.153ZM168.341 3.92121H145.257V36.7069H151.857V26.8796H165.024V23.582H168.339V20.3164H171.623V7.21886H168.339V3.92169L168.341 3.92121ZM158.46 20.316H151.857V10.4887H165.024V20.316H158.456H158.46ZM199.215 7.22077H195.931V3.92169H182.729V7.21934H179.445V10.4849H176.13V36.7069H182.729V26.8796H195.928V36.7069H202.495V10.4849H199.212V7.21934L199.215 7.22077ZM195.963 20.2838H182.762V13.749H186.045V10.4513H192.644V13.749H195.96V20.2805L195.963 20.2838Z" fill="#00425E"/>
<path fill-rule="evenodd" clip-rule="evenodd" d="M39.5685 3.79572H5.68418V9.44903H0V54.4004H5.68418V59.999H39.5685V54.4004H45.1978V43.1499H33.8844V48.748H11.3129V15.0477H33.8844V20.7001H45.1978V9.44903H39.5685V3.79572Z" fill="#00425E"/>
<path fill-rule="evenodd" clip-rule="evenodd" d="M249.371 9.44903H243.687V3.79572H209.802V60H243.687V54.4004H249.371V48.748H255V15.0477H249.371V9.44903ZM243.687 26.2992V48.748H221.115V15.0477H243.687V26.2992Z" fill="#00425E"/>
<path fill-rule="evenodd" clip-rule="evenodd" d="M52.8014 49.8881H202.307V59.7993H52.8014V49.8881Z" fill="#00425E"/>
<path fill-rule="evenodd" clip-rule="evenodd" d="M75.7227 0.125495H55.9565V3.42314H52.6409V29.6452H55.9565V32.9112H75.7227V29.6452H79.0061V3.42314H75.7227V0.125495ZM72.4389 13.2523V26.3475H59.2404V6.68867H72.4389V13.2523ZM106.595 3.39103H103.279V0.0933838H83.5132V32.8791H103.279V29.613H106.595V26.3154H109.878V6.65655H106.595V3.39103ZM103.279 13.2183V26.3135H90.1127V6.65655H103.279V13.2216V13.2183ZM134.153 0.0933838H114.386V32.8791H140.751V26.3154H120.985V19.7839H134.153V16.4862H137.468V13.2216H120.984V6.65655H140.75V0.0933838H134.153ZM168.341 0.125495H145.257V32.9112H151.857V23.0839H165.024V19.7863H168.339V16.5207H171.623V3.42314H168.339V0.125495H168.341ZM158.46 16.5203H151.857V6.69299H165.024V16.5203H158.456H158.46ZM199.215 3.42506H195.931V0.127412H182.729V3.42506H179.445V6.69059H176.13V32.9126H182.729V23.0853H195.928V32.9126H202.495V6.69059H199.212V3.42314L199.215 3.42506ZM195.963 16.4881H182.762V9.95468H186.045V6.65655H192.644V9.95468H195.96V16.4862L195.963 16.4881Z" fill="#35A4D3"/>
<path fill-rule="evenodd" clip-rule="evenodd" d="M39.5685 0H5.68418V5.65331H0V50.6056H5.68418V56.2043H39.5685V50.6056H45.1978V39.3541H33.8844V44.9523H11.3129V11.252H33.8844V16.9053H45.1978V5.65331H39.5685V0Z" fill="#35A4D3"/>
<path fill-rule="evenodd" clip-rule="evenodd" d="M249.371 5.65331H243.687V0H209.802V56.2043H243.687V50.6056H249.371V44.9523H255V11.252H249.371V5.65331ZM243.687 22.5035V44.9523H221.115V11.252H243.687V22.5035Z" fill="#35A4D3"/>
<path fill-rule="evenodd" clip-rule="evenodd" d="M52.8014 46.0922H202.307V56.0034H52.8014V46.0922Z" fill="#35A4D3"/>
<path fill-rule="evenodd" clip-rule="evenodd" d="M55.8227 48.0956H190.142V50.3098H55.8227V48.0956ZM192.924 48.0956H199.897V50.3098H192.924V48.0956ZM213.57 2.07233H239.887V5.44619H213.57V2.07233ZM9.17651 2.07233H35.4935V5.44619H22.335H9.17651V2.07233ZM184.43 1.75594H193.839V4.07565H184.43V1.75594ZM147.418 1.75594H165.971V4.07565H147.418L147.418 1.75594ZM85.5599 1.75594H101.514V4.07565H85.5599V1.75594ZM57.8639 1.33408H73.1027V3.65379H57.8635V1.33313L57.8639 1.33408ZM116.582 1.7823H138.858V4.04928H116.582L116.582 1.7823Z" fill="#BAEAFF"/>
</svg>
