<svg width="366" height="1700" viewBox="0 0 366 1700" fill="none" xmlns="http://www.w3.org/2000/svg">
<mask id="mask0" mask-type="alpha" maskUnits="userSpaceOnUse" x="0" y="1" width="21" height="1696">
<path d="M12.8551 245.988L12.4567 47.3633L11.3589 1.34259L4.82275 1.3557L0.800537 1.36377L4.20118 1696.94L14.7595 1696.92L13.1053 621.437L20.1296 614.156L19.4041 252.434L12.8551 245.988Z" fill="#000A0F"/>
</mask>
<g mask="url(#mask0)">
<path d="M11.8495 245.99L11.4519 47.7691L11.3588 1.34261L4.82272 1.35572L-39.4216 1.44446L-36.021 1697.02L14.7595 1696.92L12.6025 621.438L19.6268 614.158L18.9021 252.839L11.8495 245.99Z" fill="#000A0F"/>
<line x1="11.4485" y1="47.3655" x2="11.8468" y2="245.99" stroke="#405C6B"/>
<line x1="12.5999" y1="621.438" x2="13.3998" y2="1020.3" stroke="#405C6B"/>
<line x1="18.8982" y1="252.435" x2="19.6253" y2="614.965" stroke="#405C6B"/>
<line y1="-0.5" x2="10.1169" y2="-0.5" transform="matrix(0.697194 0.716882 -0.847116 0.531408 11.3467 245.991)" stroke="#405C6B"/>
<line y1="-0.5" x2="10.1169" y2="-0.5" transform="matrix(0.694313 -0.719673 -0.849241 -0.528005 12.0999 621.439)" stroke="#405C6B"/>
<g opacity="0.015">
<line x1="-39.4236" y1="0.44446" x2="1334.16" y2="-2.3104" stroke="white" stroke-width="2"/>
<line x1="-39.4107" y1="6.90381" x2="1334.18" y2="4.14895" stroke="white" stroke-width="2"/>
<line x1="-39.3978" y1="13.363" x2="1334.19" y2="10.6082" stroke="white" stroke-width="2"/>
<line x1="-39.3848" y1="19.8224" x2="1334.2" y2="17.0675" stroke="white" stroke-width="2"/>
<line x1="-39.3719" y1="26.2817" x2="1334.21" y2="23.5269" stroke="white" stroke-width="2"/>
<line x1="-39.3589" y1="32.741" x2="1334.23" y2="29.9861" stroke="white" stroke-width="2"/>
<line x1="-39.346" y1="39.2004" x2="1334.24" y2="36.4456" stroke="white" stroke-width="2"/>
<line x1="-39.3331" y1="45.6598" x2="1334.25" y2="42.9049" stroke="white" stroke-width="2"/>
<line x1="-39.3199" y1="52.1191" x2="1334.27" y2="49.3643" stroke="white" stroke-width="2"/>
<line x1="-39.3069" y1="58.5785" x2="1334.28" y2="55.8236" stroke="white" stroke-width="2"/>
<line x1="-39.294" y1="65.0378" x2="1334.29" y2="62.283" stroke="white" stroke-width="2"/>
<line x1="-39.2811" y1="71.4971" x2="1334.3" y2="68.7422" stroke="white" stroke-width="2"/>
<line x1="-39.2681" y1="77.9564" x2="1334.32" y2="75.2016" stroke="white" stroke-width="2"/>
<line x1="-39.2552" y1="84.4158" x2="1334.33" y2="81.6609" stroke="white" stroke-width="2"/>
<line x1="-39.2422" y1="90.8751" x2="1334.34" y2="88.1203" stroke="white" stroke-width="2"/>
<line x1="-39.2293" y1="97.3344" x2="1334.36" y2="94.5795" stroke="white" stroke-width="2"/>
<line x1="-39.2164" y1="103.794" x2="1334.37" y2="101.039" stroke="white" stroke-width="2"/>
<line x1="-39.2034" y1="110.253" x2="1334.38" y2="107.498" stroke="white" stroke-width="2"/>
<line x1="-39.1905" y1="116.712" x2="1334.4" y2="113.958" stroke="white" stroke-width="2"/>
<line x1="-39.1775" y1="123.172" x2="1334.41" y2="120.417" stroke="white" stroke-width="2"/>
<line x1="-39.1646" y1="129.631" x2="1334.42" y2="126.876" stroke="white" stroke-width="2"/>
<line x1="-39.1517" y1="136.09" x2="1334.43" y2="133.336" stroke="white" stroke-width="2"/>
<line x1="-39.1387" y1="142.55" x2="1334.45" y2="139.795" stroke="white" stroke-width="2"/>
<line x1="-39.1258" y1="149.009" x2="1334.46" y2="146.254" stroke="white" stroke-width="2"/>
<line x1="-39.1126" y1="155.468" x2="1334.47" y2="152.714" stroke="white" stroke-width="2"/>
<line x1="-39.0997" y1="161.928" x2="1334.49" y2="159.173" stroke="white" stroke-width="2"/>
<line x1="-39.0867" y1="168.387" x2="1334.5" y2="165.632" stroke="white" stroke-width="2"/>
<line x1="-39.0738" y1="174.846" x2="1334.51" y2="172.091" stroke="white" stroke-width="2"/>
<line x1="-39.0608" y1="181.306" x2="1334.53" y2="178.551" stroke="white" stroke-width="2"/>
<line x1="-39.0479" y1="187.765" x2="1334.54" y2="185.01" stroke="white" stroke-width="2"/>
<line x1="-39.035" y1="194.224" x2="1334.55" y2="191.469" stroke="white" stroke-width="2"/>
<line x1="-39.022" y1="200.684" x2="1334.56" y2="197.929" stroke="white" stroke-width="2"/>
<line x1="-39.0091" y1="207.143" x2="1334.58" y2="204.388" stroke="white" stroke-width="2"/>
<line x1="-38.9961" y1="213.602" x2="1334.59" y2="210.847" stroke="white" stroke-width="2"/>
<line x1="-38.9832" y1="220.062" x2="1334.6" y2="217.307" stroke="white" stroke-width="2"/>
<line x1="-38.9703" y1="226.521" x2="1334.62" y2="223.766" stroke="white" stroke-width="2"/>
<line x1="-38.9573" y1="232.98" x2="1334.63" y2="230.225" stroke="white" stroke-width="2"/>
<line x1="-38.9444" y1="239.44" x2="1334.64" y2="236.685" stroke="white" stroke-width="2"/>
<line x1="-38.9314" y1="245.899" x2="1334.65" y2="243.144" stroke="white" stroke-width="2"/>
<line x1="-38.9185" y1="252.358" x2="1334.67" y2="249.604" stroke="white" stroke-width="2"/>
<line x1="-38.9053" y1="258.818" x2="1334.68" y2="256.063" stroke="white" stroke-width="2"/>
<line x1="-38.8924" y1="265.277" x2="1334.69" y2="262.522" stroke="white" stroke-width="2"/>
<line x1="-38.8794" y1="271.736" x2="1334.71" y2="268.981" stroke="white" stroke-width="2"/>
<line x1="-38.8665" y1="278.196" x2="1334.72" y2="275.441" stroke="white" stroke-width="2"/>
<line x1="-38.8536" y1="284.655" x2="1334.73" y2="281.9" stroke="white" stroke-width="2"/>
<line x1="-38.8406" y1="291.115" x2="1334.75" y2="288.36" stroke="white" stroke-width="2"/>
<line x1="-38.8277" y1="297.574" x2="1334.76" y2="294.819" stroke="white" stroke-width="2"/>
<line x1="-38.8147" y1="304.033" x2="1334.77" y2="301.278" stroke="white" stroke-width="2"/>
<line x1="-38.8018" y1="310.492" x2="1334.78" y2="307.738" stroke="white" stroke-width="2"/>
<line x1="-38.7889" y1="316.952" x2="1334.8" y2="314.197" stroke="white" stroke-width="2"/>
<line x1="-38.7759" y1="323.411" x2="1334.81" y2="320.656" stroke="white" stroke-width="2"/>
<line x1="-38.763" y1="329.87" x2="1334.82" y2="327.116" stroke="white" stroke-width="2"/>
<line x1="-38.7501" y1="336.33" x2="1334.84" y2="333.575" stroke="white" stroke-width="2"/>
<line x1="-38.7371" y1="342.789" x2="1334.85" y2="340.034" stroke="white" stroke-width="2"/>
<line x1="-38.7242" y1="349.248" x2="1334.86" y2="346.493" stroke="white" stroke-width="2"/>
<line x1="-38.7112" y1="355.708" x2="1334.87" y2="352.953" stroke="white" stroke-width="2"/>
<line x1="-38.6981" y1="362.167" x2="1334.89" y2="359.412" stroke="white" stroke-width="2"/>
<line x1="-38.6851" y1="368.626" x2="1334.9" y2="365.871" stroke="white" stroke-width="2"/>
<line x1="-38.6722" y1="375.086" x2="1334.91" y2="372.331" stroke="white" stroke-width="2"/>
<line x1="-38.6592" y1="381.545" x2="1334.93" y2="378.79" stroke="white" stroke-width="2"/>
<line x1="-38.6463" y1="388.004" x2="1334.94" y2="385.249" stroke="white" stroke-width="2"/>
<line x1="-38.6334" y1="394.464" x2="1334.95" y2="391.709" stroke="white" stroke-width="2"/>
<line x1="-38.6204" y1="400.923" x2="1334.97" y2="398.168" stroke="white" stroke-width="2"/>
<line x1="-38.6075" y1="407.382" x2="1334.98" y2="404.627" stroke="white" stroke-width="2"/>
<line x1="-38.5945" y1="413.842" x2="1334.99" y2="411.087" stroke="white" stroke-width="2"/>
<line x1="-38.5816" y1="420.301" x2="1335" y2="417.546" stroke="white" stroke-width="2"/>
<line x1="-38.5687" y1="426.76" x2="1335.02" y2="424.005" stroke="white" stroke-width="2"/>
<line x1="-38.5557" y1="433.22" x2="1335.03" y2="430.465" stroke="white" stroke-width="2"/>
<line x1="-38.5428" y1="439.679" x2="1335.04" y2="436.924" stroke="white" stroke-width="2"/>
<line x1="-38.5298" y1="446.138" x2="1335.06" y2="443.384" stroke="white" stroke-width="2"/>
<line x1="-38.5169" y1="452.598" x2="1335.07" y2="449.843" stroke="white" stroke-width="2"/>
<line x1="-38.504" y1="459.057" x2="1335.08" y2="456.302" stroke="white" stroke-width="2"/>
<line x1="-38.4908" y1="465.516" x2="1335.1" y2="462.762" stroke="white" stroke-width="2"/>
<line x1="-38.4778" y1="471.976" x2="1335.11" y2="469.221" stroke="white" stroke-width="2"/>
<line x1="-38.4649" y1="478.435" x2="1335.12" y2="475.68" stroke="white" stroke-width="2"/>
<line x1="-38.452" y1="484.894" x2="1335.13" y2="482.139" stroke="white" stroke-width="2"/>
<line x1="-38.439" y1="491.354" x2="1335.15" y2="488.599" stroke="white" stroke-width="2"/>
<line x1="-38.4261" y1="497.813" x2="1335.16" y2="495.058" stroke="white" stroke-width="2"/>
<line x1="-38.4131" y1="504.272" x2="1335.17" y2="501.518" stroke="white" stroke-width="2"/>
<line x1="-38.4002" y1="510.731" x2="1335.19" y2="507.977" stroke="white" stroke-width="2"/>
<line x1="-38.3873" y1="517.191" x2="1335.2" y2="514.436" stroke="white" stroke-width="2"/>
<line x1="-38.3743" y1="523.65" x2="1335.21" y2="520.895" stroke="white" stroke-width="2"/>
<line x1="-38.3614" y1="530.11" x2="1335.22" y2="527.355" stroke="white" stroke-width="2"/>
<line x1="-38.3484" y1="536.569" x2="1335.24" y2="533.814" stroke="white" stroke-width="2"/>
<line x1="-38.3355" y1="543.028" x2="1335.25" y2="540.273" stroke="white" stroke-width="2"/>
<line x1="-38.3226" y1="549.487" x2="1335.26" y2="546.732" stroke="white" stroke-width="2"/>
<line x1="-38.3096" y1="555.947" x2="1335.28" y2="553.192" stroke="white" stroke-width="2"/>
<line x1="-38.2967" y1="562.406" x2="1335.29" y2="559.651" stroke="white" stroke-width="2"/>
<line x1="-38.2835" y1="568.866" x2="1335.3" y2="566.111" stroke="white" stroke-width="2"/>
<line x1="-38.2706" y1="575.325" x2="1335.32" y2="572.57" stroke="white" stroke-width="2"/>
<line x1="-38.2576" y1="581.784" x2="1335.33" y2="579.03" stroke="white" stroke-width="2"/>
<line x1="-38.2447" y1="588.244" x2="1335.34" y2="585.489" stroke="white" stroke-width="2"/>
<line x1="-38.2317" y1="594.703" x2="1335.35" y2="591.948" stroke="white" stroke-width="2"/>
<line x1="-38.2188" y1="601.162" x2="1335.37" y2="598.407" stroke="white" stroke-width="2"/>
<line x1="-38.2059" y1="607.622" x2="1335.38" y2="604.867" stroke="white" stroke-width="2"/>
<line x1="-38.1929" y1="614.081" x2="1335.39" y2="611.326" stroke="white" stroke-width="2"/>
<line x1="-38.18" y1="620.54" x2="1335.41" y2="617.785" stroke="white" stroke-width="2"/>
<line x1="-38.167" y1="627" x2="1335.42" y2="624.245" stroke="white" stroke-width="2"/>
<line x1="-38.1541" y1="633.459" x2="1335.43" y2="630.704" stroke="white" stroke-width="2"/>
<line x1="-38.1412" y1="639.918" x2="1335.44" y2="637.163" stroke="white" stroke-width="2"/>
<line x1="-38.1282" y1="646.378" x2="1335.46" y2="643.623" stroke="white" stroke-width="2"/>
<line x1="-38.1153" y1="652.837" x2="1335.47" y2="650.082" stroke="white" stroke-width="2"/>
<line x1="-38.1023" y1="659.296" x2="1335.48" y2="656.541" stroke="white" stroke-width="2"/>
<line x1="-38.0894" y1="665.755" x2="1335.5" y2="663" stroke="white" stroke-width="2"/>
<line x1="-38.0762" y1="672.215" x2="1335.51" y2="669.46" stroke="white" stroke-width="2"/>
<line x1="-38.0633" y1="678.674" x2="1335.52" y2="675.919" stroke="white" stroke-width="2"/>
<line x1="-38.0503" y1="685.134" x2="1335.54" y2="682.379" stroke="white" stroke-width="2"/>
<line x1="-38.0374" y1="691.593" x2="1335.55" y2="688.838" stroke="white" stroke-width="2"/>
<line x1="-38.0245" y1="698.052" x2="1335.56" y2="695.297" stroke="white" stroke-width="2"/>
<line x1="-38.0115" y1="704.511" x2="1335.57" y2="701.756" stroke="white" stroke-width="2"/>
<line x1="-37.9986" y1="710.971" x2="1335.59" y2="708.216" stroke="white" stroke-width="2"/>
<line x1="-37.9856" y1="717.43" x2="1335.6" y2="714.675" stroke="white" stroke-width="2"/>
<line x1="-37.9727" y1="723.889" x2="1335.61" y2="721.135" stroke="white" stroke-width="2"/>
<line x1="-37.9598" y1="730.349" x2="1335.63" y2="727.594" stroke="white" stroke-width="2"/>
<line x1="-37.9468" y1="736.808" x2="1335.64" y2="734.053" stroke="white" stroke-width="2"/>
<line x1="-37.9339" y1="743.268" x2="1335.65" y2="740.513" stroke="white" stroke-width="2"/>
<line x1="-37.921" y1="749.727" x2="1335.67" y2="746.972" stroke="white" stroke-width="2"/>
<line x1="-37.908" y1="756.186" x2="1335.68" y2="753.431" stroke="white" stroke-width="2"/>
<line x1="-37.8951" y1="762.646" x2="1335.69" y2="759.891" stroke="white" stroke-width="2"/>
<line x1="-37.8821" y1="769.105" x2="1335.7" y2="766.35" stroke="white" stroke-width="2"/>
<line x1="-37.8689" y1="775.564" x2="1335.72" y2="772.809" stroke="white" stroke-width="2"/>
<line x1="-37.856" y1="782.023" x2="1335.73" y2="779.269" stroke="white" stroke-width="2"/>
<line x1="-37.8431" y1="788.483" x2="1335.74" y2="785.728" stroke="white" stroke-width="2"/>
<line x1="-37.8301" y1="794.942" x2="1335.76" y2="792.187" stroke="white" stroke-width="2"/>
<line x1="-37.8172" y1="801.401" x2="1335.77" y2="798.646" stroke="white" stroke-width="2"/>
<line x1="-37.8043" y1="807.861" x2="1335.78" y2="805.106" stroke="white" stroke-width="2"/>
<line x1="-37.7913" y1="814.32" x2="1335.79" y2="811.565" stroke="white" stroke-width="2"/>
<line x1="-37.7784" y1="820.78" x2="1335.81" y2="818.025" stroke="white" stroke-width="2"/>
<line x1="-37.7654" y1="827.239" x2="1335.82" y2="824.484" stroke="white" stroke-width="2"/>
<line x1="-37.7525" y1="833.698" x2="1335.83" y2="830.943" stroke="white" stroke-width="2"/>
<line x1="-37.7396" y1="840.157" x2="1335.85" y2="837.402" stroke="white" stroke-width="2"/>
<line x1="-37.7266" y1="846.617" x2="1335.86" y2="843.862" stroke="white" stroke-width="2"/>
<line x1="-37.7137" y1="853.076" x2="1335.87" y2="850.321" stroke="white" stroke-width="2"/>
<line x1="-37.7007" y1="859.535" x2="1335.89" y2="856.781" stroke="white" stroke-width="2"/>
<line x1="-37.6878" y1="865.995" x2="1335.9" y2="863.24" stroke="white" stroke-width="2"/>
<line x1="-37.6746" y1="872.454" x2="1335.91" y2="869.699" stroke="white" stroke-width="2"/>
<line x1="-37.6617" y1="878.914" x2="1335.92" y2="876.159" stroke="white" stroke-width="2"/>
<line x1="-37.6487" y1="885.373" x2="1335.94" y2="882.618" stroke="white" stroke-width="2"/>
<line x1="-37.6358" y1="891.832" x2="1335.95" y2="889.077" stroke="white" stroke-width="2"/>
<line x1="-37.6229" y1="898.292" x2="1335.96" y2="895.537" stroke="white" stroke-width="2"/>
<line x1="-37.6099" y1="904.751" x2="1335.98" y2="901.996" stroke="white" stroke-width="2"/>
<line x1="-37.597" y1="911.21" x2="1335.99" y2="908.455" stroke="white" stroke-width="2"/>
<line x1="-37.584" y1="917.669" x2="1336" y2="914.915" stroke="white" stroke-width="2"/>
<line x1="-37.5711" y1="924.129" x2="1336.01" y2="921.374" stroke="white" stroke-width="2"/>
<line x1="-37.5582" y1="930.588" x2="1336.03" y2="927.833" stroke="white" stroke-width="2"/>
<line x1="-37.5452" y1="937.047" x2="1336.04" y2="934.292" stroke="white" stroke-width="2"/>
<line x1="-37.5323" y1="943.507" x2="1336.05" y2="940.752" stroke="white" stroke-width="2"/>
<line x1="-37.5193" y1="949.966" x2="1336.07" y2="947.211" stroke="white" stroke-width="2"/>
<line x1="-37.5064" y1="956.425" x2="1336.08" y2="953.67" stroke="white" stroke-width="2"/>
<line x1="-37.4935" y1="962.885" x2="1336.09" y2="960.13" stroke="white" stroke-width="2"/>
<line x1="-37.4805" y1="969.344" x2="1336.11" y2="966.589" stroke="white" stroke-width="2"/>
<line x1="-37.4673" y1="975.803" x2="1336.12" y2="973.049" stroke="white" stroke-width="2"/>
<line x1="-37.4544" y1="982.263" x2="1336.13" y2="979.508" stroke="white" stroke-width="2"/>
<line x1="-37.4415" y1="988.722" x2="1336.14" y2="985.968" stroke="white" stroke-width="2"/>
<line x1="-37.4285" y1="995.181" x2="1336.16" y2="992.427" stroke="white" stroke-width="2"/>
<line x1="-37.4156" y1="1001.64" x2="1336.17" y2="998.886" stroke="white" stroke-width="2"/>
<line x1="-37.4026" y1="1008.1" x2="1336.18" y2="1005.35" stroke="white" stroke-width="2"/>
<line x1="-37.3897" y1="1014.56" x2="1336.2" y2="1011.8" stroke="white" stroke-width="2"/>
<line x1="-37.3768" y1="1021.02" x2="1336.21" y2="1018.26" stroke="white" stroke-width="2"/>
<line x1="-37.3638" y1="1027.48" x2="1336.22" y2="1024.72" stroke="white" stroke-width="2"/>
<line x1="-37.3509" y1="1033.94" x2="1336.24" y2="1031.18" stroke="white" stroke-width="2"/>
<line x1="-37.3379" y1="1040.4" x2="1336.25" y2="1037.64" stroke="white" stroke-width="2"/>
<line x1="-37.325" y1="1046.86" x2="1336.26" y2="1044.1" stroke="white" stroke-width="2"/>
<line x1="-37.3121" y1="1053.32" x2="1336.27" y2="1050.56" stroke="white" stroke-width="2"/>
<line x1="-37.2991" y1="1059.77" x2="1336.29" y2="1057.02" stroke="white" stroke-width="2"/>
<line x1="-37.2862" y1="1066.23" x2="1336.3" y2="1063.48" stroke="white" stroke-width="2"/>
<line x1="-37.2732" y1="1072.69" x2="1336.31" y2="1069.94" stroke="white" stroke-width="2"/>
</g>
</g>
<mask id="mask1" mask-type="alpha" maskUnits="userSpaceOnUse" x="342" y="1" width="24" height="1698">
<path d="M351.244 506.105L350.326 48.7034L350.235 3.08443L361.796 1.85011L365.197 1697.42L353.133 1698.66L351.497 882.766L344.445 876.32L344.22 513.386L351.244 506.105Z" fill="#000A0F"/>
</mask>
<g mask="url(#mask1)">
<path d="M351.247 507.317L350.328 49.5118L350.237 3.89274L381.912 3.82922L385.312 1699.4L353.638 1699.47L352.001 883.573L344.949 876.724L344.221 514.194L351.247 507.317Z" fill="#000A0F"/>
<line x1="344.72" y1="513.385" x2="345.447" y2="875.915" stroke="#405C6B"/>
<line y1="-0.5" x2="10.1169" y2="-0.5" transform="matrix(0.697194 0.716882 -0.847116 0.531408 344.947 875.917)" stroke="#405C6B"/>
<line y1="-0.5" x2="10.1169" y2="-0.5" transform="matrix(0.694313 -0.719673 -0.849241 -0.528005 344.22 513.386)" stroke="#405C6B"/>
<line x1="350.827" y1="49.107" x2="351.746" y2="506.912" stroke="#405C6B"/>
<line x1="351.994" y1="881.554" x2="352.307" y2="1037.39" stroke="#405C6B"/>
<g opacity="0.015">
<line x1="-964.805" y1="5.01074" x2="401.192" y2="2.2711" stroke="white" stroke-width="2"/>
<line x1="-964.789" y1="13.0107" x2="401.208" y2="10.2711" stroke="white" stroke-width="2"/>
<line x1="-964.773" y1="21.0107" x2="401.224" y2="18.2711" stroke="white" stroke-width="2"/>
<line x1="-964.757" y1="29.0107" x2="401.24" y2="26.2711" stroke="white" stroke-width="2"/>
<line x1="-964.741" y1="37.0106" x2="401.256" y2="34.271" stroke="white" stroke-width="2"/>
<line x1="-964.725" y1="45.0106" x2="401.272" y2="42.271" stroke="white" stroke-width="2"/>
<line x1="-964.709" y1="53.0106" x2="401.288" y2="50.271" stroke="white" stroke-width="2"/>
<line x1="-964.693" y1="61.0106" x2="401.304" y2="58.271" stroke="white" stroke-width="2"/>
<line x1="-964.677" y1="69.0106" x2="401.32" y2="66.271" stroke="white" stroke-width="2"/>
<line x1="-964.661" y1="77.0106" x2="401.336" y2="74.271" stroke="white" stroke-width="2"/>
<line x1="-964.645" y1="85.0106" x2="401.352" y2="82.271" stroke="white" stroke-width="2"/>
<line x1="-964.629" y1="93.0106" x2="401.368" y2="90.271" stroke="white" stroke-width="2"/>
<line x1="-964.613" y1="101.011" x2="401.384" y2="98.2709" stroke="white" stroke-width="2"/>
<line x1="-964.597" y1="109.011" x2="401.4" y2="106.271" stroke="white" stroke-width="2"/>
<line x1="-964.581" y1="117.011" x2="401.416" y2="114.271" stroke="white" stroke-width="2"/>
<line x1="-964.565" y1="125.011" x2="401.432" y2="122.271" stroke="white" stroke-width="2"/>
<line x1="-964.549" y1="133.011" x2="401.449" y2="130.271" stroke="white" stroke-width="2"/>
<line x1="-964.533" y1="141.011" x2="401.464" y2="138.271" stroke="white" stroke-width="2"/>
<line x1="-964.517" y1="149.011" x2="401.481" y2="146.271" stroke="white" stroke-width="2"/>
<line x1="-964.501" y1="157.01" x2="401.497" y2="154.271" stroke="white" stroke-width="2"/>
<line x1="-964.485" y1="165.01" x2="401.513" y2="162.271" stroke="white" stroke-width="2"/>
<line x1="-964.469" y1="173.01" x2="401.529" y2="170.271" stroke="white" stroke-width="2"/>
<line x1="-964.452" y1="181.01" x2="401.545" y2="178.271" stroke="white" stroke-width="2"/>
<line x1="-964.436" y1="189.01" x2="401.561" y2="186.271" stroke="white" stroke-width="2"/>
<line x1="-964.42" y1="197.01" x2="401.577" y2="194.271" stroke="white" stroke-width="2"/>
<line x1="-964.404" y1="205.01" x2="401.593" y2="202.271" stroke="white" stroke-width="2"/>
<line x1="-964.388" y1="213.01" x2="401.609" y2="210.271" stroke="white" stroke-width="2"/>
<line x1="-964.372" y1="221.01" x2="401.625" y2="218.271" stroke="white" stroke-width="2"/>
<line x1="-964.356" y1="229.01" x2="401.641" y2="226.271" stroke="white" stroke-width="2"/>
<line x1="-964.34" y1="237.01" x2="401.657" y2="234.271" stroke="white" stroke-width="2"/>
<line x1="-964.324" y1="245.01" x2="401.673" y2="242.271" stroke="white" stroke-width="2"/>
<line x1="-964.308" y1="253.01" x2="401.689" y2="250.271" stroke="white" stroke-width="2"/>
<line x1="-964.292" y1="261.01" x2="401.705" y2="258.271" stroke="white" stroke-width="2"/>
<line x1="-964.276" y1="269.01" x2="401.721" y2="266.271" stroke="white" stroke-width="2"/>
<line x1="-964.26" y1="277.01" x2="401.737" y2="274.271" stroke="white" stroke-width="2"/>
<line x1="-964.244" y1="285.01" x2="401.753" y2="282.271" stroke="white" stroke-width="2"/>
<line x1="-964.228" y1="293.01" x2="401.769" y2="290.271" stroke="white" stroke-width="2"/>
<line x1="-964.212" y1="301.01" x2="401.786" y2="298.271" stroke="white" stroke-width="2"/>
<line x1="-964.196" y1="309.01" x2="401.801" y2="306.27" stroke="white" stroke-width="2"/>
<line x1="-964.18" y1="317.01" x2="401.818" y2="314.27" stroke="white" stroke-width="2"/>
<line x1="-964.164" y1="325.01" x2="401.834" y2="322.27" stroke="white" stroke-width="2"/>
<line x1="-964.148" y1="333.01" x2="401.849" y2="330.27" stroke="white" stroke-width="2"/>
<line x1="-964.132" y1="341.01" x2="401.866" y2="338.27" stroke="white" stroke-width="2"/>
<line x1="-964.116" y1="349.01" x2="401.882" y2="346.27" stroke="white" stroke-width="2"/>
<line x1="-964.099" y1="357.01" x2="401.898" y2="354.27" stroke="white" stroke-width="2"/>
<line x1="-964.084" y1="365.01" x2="401.914" y2="362.27" stroke="white" stroke-width="2"/>
<line x1="-964.067" y1="373.01" x2="401.93" y2="370.27" stroke="white" stroke-width="2"/>
<line x1="-964.051" y1="381.01" x2="401.946" y2="378.27" stroke="white" stroke-width="2"/>
<line x1="-964.035" y1="389.01" x2="401.962" y2="386.27" stroke="white" stroke-width="2"/>
<line x1="-964.019" y1="397.01" x2="401.978" y2="394.27" stroke="white" stroke-width="2"/>
<line x1="-964.003" y1="405.01" x2="401.994" y2="402.27" stroke="white" stroke-width="2"/>
<line x1="-963.987" y1="413.01" x2="402.01" y2="410.27" stroke="white" stroke-width="2"/>
<line x1="-963.971" y1="421.01" x2="402.026" y2="418.27" stroke="white" stroke-width="2"/>
<line x1="-963.955" y1="429.01" x2="402.042" y2="426.27" stroke="white" stroke-width="2"/>
<line x1="-963.939" y1="437.01" x2="402.058" y2="434.27" stroke="white" stroke-width="2"/>
<line x1="-963.923" y1="445.01" x2="402.074" y2="442.27" stroke="white" stroke-width="2"/>
<line x1="-963.907" y1="453.01" x2="402.09" y2="450.27" stroke="white" stroke-width="2"/>
<line x1="-963.891" y1="461.01" x2="402.106" y2="458.27" stroke="white" stroke-width="2"/>
<line x1="-963.875" y1="469.01" x2="402.122" y2="466.27" stroke="white" stroke-width="2"/>
<line x1="-963.859" y1="477.01" x2="402.138" y2="474.27" stroke="white" stroke-width="2"/>
<line x1="-963.843" y1="485.01" x2="402.154" y2="482.27" stroke="white" stroke-width="2"/>
<line x1="-963.827" y1="493.01" x2="402.171" y2="490.27" stroke="white" stroke-width="2"/>
<line x1="-963.811" y1="501.01" x2="402.187" y2="498.27" stroke="white" stroke-width="2"/>
<line x1="-963.795" y1="509.01" x2="402.203" y2="506.27" stroke="white" stroke-width="2"/>
<line x1="-963.779" y1="517.01" x2="402.219" y2="514.27" stroke="white" stroke-width="2"/>
<line x1="-963.763" y1="525.01" x2="402.235" y2="522.27" stroke="white" stroke-width="2"/>
<line x1="-963.747" y1="533.01" x2="402.251" y2="530.27" stroke="white" stroke-width="2"/>
<line x1="-963.731" y1="541.01" x2="402.267" y2="538.27" stroke="white" stroke-width="2"/>
<line x1="-963.714" y1="549.01" x2="402.283" y2="546.27" stroke="white" stroke-width="2"/>
<line x1="-963.698" y1="557.01" x2="402.299" y2="554.27" stroke="white" stroke-width="2"/>
<line x1="-963.682" y1="565.01" x2="402.315" y2="562.27" stroke="white" stroke-width="2"/>
<line x1="-963.666" y1="573.01" x2="402.331" y2="570.27" stroke="white" stroke-width="2"/>
<line x1="-963.65" y1="581.01" x2="402.347" y2="578.27" stroke="white" stroke-width="2"/>
<line x1="-963.634" y1="589.01" x2="402.363" y2="586.27" stroke="white" stroke-width="2"/>
<line x1="-963.618" y1="597.01" x2="402.379" y2="594.27" stroke="white" stroke-width="2"/>
<line x1="-963.602" y1="605.01" x2="402.395" y2="602.27" stroke="white" stroke-width="2"/>
<line x1="-963.586" y1="613.01" x2="402.411" y2="610.27" stroke="white" stroke-width="2"/>
<line x1="-963.57" y1="621.01" x2="402.427" y2="618.27" stroke="white" stroke-width="2"/>
<line x1="-963.554" y1="629.01" x2="402.443" y2="626.27" stroke="white" stroke-width="2"/>
<line x1="-963.538" y1="637.01" x2="402.459" y2="634.27" stroke="white" stroke-width="2"/>
<line x1="-963.522" y1="645.01" x2="402.475" y2="642.27" stroke="white" stroke-width="2"/>
<line x1="-963.506" y1="653.01" x2="402.491" y2="650.27" stroke="white" stroke-width="2"/>
<line x1="-963.49" y1="661.01" x2="402.507" y2="658.27" stroke="white" stroke-width="2"/>
<line x1="-963.474" y1="669.009" x2="402.524" y2="666.27" stroke="white" stroke-width="2"/>
<line x1="-963.458" y1="677.009" x2="402.539" y2="674.27" stroke="white" stroke-width="2"/>
<line x1="-963.442" y1="685.009" x2="402.556" y2="682.27" stroke="white" stroke-width="2"/>
<line x1="-963.426" y1="693.009" x2="402.572" y2="690.27" stroke="white" stroke-width="2"/>
<line x1="-963.409" y1="701.009" x2="402.588" y2="698.27" stroke="white" stroke-width="2"/>
<line x1="-963.394" y1="709.009" x2="402.604" y2="706.27" stroke="white" stroke-width="2"/>
<line x1="-963.377" y1="717.009" x2="402.62" y2="714.27" stroke="white" stroke-width="2"/>
<line x1="-963.361" y1="725.009" x2="402.636" y2="722.27" stroke="white" stroke-width="2"/>
<line x1="-963.346" y1="733.009" x2="402.652" y2="730.27" stroke="white" stroke-width="2"/>
<line x1="-963.329" y1="741.009" x2="402.668" y2="738.27" stroke="white" stroke-width="2"/>
<line x1="-963.313" y1="749.009" x2="402.684" y2="746.27" stroke="white" stroke-width="2"/>
<line x1="-963.297" y1="757.009" x2="402.7" y2="754.27" stroke="white" stroke-width="2"/>
<line x1="-963.281" y1="765.009" x2="402.716" y2="762.27" stroke="white" stroke-width="2"/>
<line x1="-963.265" y1="773.009" x2="402.732" y2="770.27" stroke="white" stroke-width="2"/>
<line x1="-963.249" y1="781.009" x2="402.748" y2="778.27" stroke="white" stroke-width="2"/>
<line x1="-963.233" y1="789.009" x2="402.764" y2="786.269" stroke="white" stroke-width="2"/>
<line x1="-963.217" y1="797.009" x2="402.78" y2="794.269" stroke="white" stroke-width="2"/>
<line x1="-963.201" y1="805.009" x2="402.796" y2="802.269" stroke="white" stroke-width="2"/>
<line x1="-963.185" y1="813.009" x2="402.812" y2="810.269" stroke="white" stroke-width="2"/>
<line x1="-963.169" y1="821.009" x2="402.828" y2="818.269" stroke="white" stroke-width="2"/>
<line x1="-963.153" y1="829.009" x2="402.844" y2="826.269" stroke="white" stroke-width="2"/>
<line x1="-963.137" y1="837.009" x2="402.86" y2="834.269" stroke="white" stroke-width="2"/>
<line x1="-963.121" y1="845.009" x2="402.877" y2="842.269" stroke="white" stroke-width="2"/>
<line x1="-963.105" y1="853.009" x2="402.892" y2="850.269" stroke="white" stroke-width="2"/>
<line x1="-963.089" y1="861.009" x2="402.909" y2="858.269" stroke="white" stroke-width="2"/>
<line x1="-963.073" y1="869.009" x2="402.925" y2="866.269" stroke="white" stroke-width="2"/>
<line x1="-963.057" y1="877.009" x2="402.941" y2="874.269" stroke="white" stroke-width="2"/>
<line x1="-963.041" y1="885.009" x2="402.957" y2="882.269" stroke="white" stroke-width="2"/>
<line x1="-963.024" y1="893.009" x2="402.973" y2="890.269" stroke="white" stroke-width="2"/>
<line x1="-963.008" y1="901.009" x2="402.989" y2="898.269" stroke="white" stroke-width="2"/>
<line x1="-962.992" y1="909.009" x2="403.005" y2="906.269" stroke="white" stroke-width="2"/>
<line x1="-962.976" y1="917.009" x2="403.021" y2="914.269" stroke="white" stroke-width="2"/>
<line x1="-962.96" y1="925.009" x2="403.037" y2="922.269" stroke="white" stroke-width="2"/>
<line x1="-962.944" y1="933.009" x2="403.053" y2="930.269" stroke="white" stroke-width="2"/>
<line x1="-962.928" y1="941.009" x2="403.069" y2="938.269" stroke="white" stroke-width="2"/>
<line x1="-962.912" y1="949.009" x2="403.085" y2="946.269" stroke="white" stroke-width="2"/>
<line x1="-962.896" y1="957.009" x2="403.101" y2="954.269" stroke="white" stroke-width="2"/>
<line x1="-962.88" y1="965.009" x2="403.117" y2="962.269" stroke="white" stroke-width="2"/>
<line x1="-962.864" y1="973.009" x2="403.133" y2="970.269" stroke="white" stroke-width="2"/>
<line x1="-962.848" y1="981.009" x2="403.149" y2="978.269" stroke="white" stroke-width="2"/>
<line x1="-962.832" y1="989.009" x2="403.165" y2="986.269" stroke="white" stroke-width="2"/>
<line x1="-962.816" y1="997.009" x2="403.181" y2="994.269" stroke="white" stroke-width="2"/>
<line x1="-962.8" y1="1005.01" x2="403.197" y2="1002.27" stroke="white" stroke-width="2"/>
<line x1="-962.784" y1="1013.01" x2="403.214" y2="1010.27" stroke="white" stroke-width="2"/>
<line x1="-962.768" y1="1021.01" x2="403.229" y2="1018.27" stroke="white" stroke-width="2"/>
<line x1="-962.752" y1="1029.01" x2="403.245" y2="1026.27" stroke="white" stroke-width="2"/>
<line x1="-962.736" y1="1037.01" x2="403.262" y2="1034.27" stroke="white" stroke-width="2"/>
<line x1="-962.72" y1="1045.01" x2="403.278" y2="1042.27" stroke="white" stroke-width="2"/>
<line x1="-962.704" y1="1053.01" x2="403.294" y2="1050.27" stroke="white" stroke-width="2"/>
<line x1="-962.688" y1="1061.01" x2="403.31" y2="1058.27" stroke="white" stroke-width="2"/>
<line x1="-962.671" y1="1069.01" x2="403.326" y2="1066.27" stroke="white" stroke-width="2"/>
<line x1="-962.656" y1="1077.01" x2="403.342" y2="1074.27" stroke="white" stroke-width="2"/>
<line x1="-962.639" y1="1085.01" x2="403.358" y2="1082.27" stroke="white" stroke-width="2"/>
<line x1="-962.623" y1="1093.01" x2="403.374" y2="1090.27" stroke="white" stroke-width="2"/>
<line x1="-962.607" y1="1101.01" x2="403.39" y2="1098.27" stroke="white" stroke-width="2"/>
<line x1="-962.591" y1="1109.01" x2="403.406" y2="1106.27" stroke="white" stroke-width="2"/>
<line x1="-962.575" y1="1117.01" x2="403.422" y2="1114.27" stroke="white" stroke-width="2"/>
<line x1="-962.559" y1="1125.01" x2="403.438" y2="1122.27" stroke="white" stroke-width="2"/>
<line x1="-962.543" y1="1133.01" x2="403.454" y2="1130.27" stroke="white" stroke-width="2"/>
<line x1="-962.527" y1="1141.01" x2="403.47" y2="1138.27" stroke="white" stroke-width="2"/>
<line x1="-962.511" y1="1149.01" x2="403.486" y2="1146.27" stroke="white" stroke-width="2"/>
<line x1="-962.495" y1="1157.01" x2="403.502" y2="1154.27" stroke="white" stroke-width="2"/>
<line x1="-962.479" y1="1165.01" x2="403.518" y2="1162.27" stroke="white" stroke-width="2"/>
<line x1="-962.463" y1="1173.01" x2="403.534" y2="1170.27" stroke="white" stroke-width="2"/>
<line x1="-962.447" y1="1181.01" x2="403.55" y2="1178.27" stroke="white" stroke-width="2"/>
<line x1="-962.431" y1="1189.01" x2="403.566" y2="1186.27" stroke="white" stroke-width="2"/>
<line x1="-962.415" y1="1197.01" x2="403.582" y2="1194.27" stroke="white" stroke-width="2"/>
<line x1="-962.399" y1="1205.01" x2="403.599" y2="1202.27" stroke="white" stroke-width="2"/>
<line x1="-962.383" y1="1213.01" x2="403.615" y2="1210.27" stroke="white" stroke-width="2"/>
<line x1="-962.367" y1="1221.01" x2="403.63" y2="1218.27" stroke="white" stroke-width="2"/>
<line x1="-962.351" y1="1229.01" x2="403.647" y2="1226.27" stroke="white" stroke-width="2"/>
<line x1="-962.335" y1="1237.01" x2="403.663" y2="1234.27" stroke="white" stroke-width="2"/>
<line x1="-962.318" y1="1245.01" x2="403.679" y2="1242.27" stroke="white" stroke-width="2"/>
<line x1="-962.303" y1="1253.01" x2="403.695" y2="1250.27" stroke="white" stroke-width="2"/>
<line x1="-962.286" y1="1261.01" x2="403.711" y2="1258.27" stroke="white" stroke-width="2"/>
<line x1="-962.27" y1="1269.01" x2="403.727" y2="1266.27" stroke="white" stroke-width="2"/>
<line x1="-962.254" y1="1277.01" x2="403.743" y2="1274.27" stroke="white" stroke-width="2"/>
<line x1="-962.238" y1="1285.01" x2="403.759" y2="1282.27" stroke="white" stroke-width="2"/>
<line x1="-962.222" y1="1293.01" x2="403.775" y2="1290.27" stroke="white" stroke-width="2"/>
<line x1="-962.206" y1="1301.01" x2="403.791" y2="1298.27" stroke="white" stroke-width="2"/>
<line x1="-962.19" y1="1309.01" x2="403.807" y2="1306.27" stroke="white" stroke-width="2"/>
<line x1="-962.174" y1="1317.01" x2="403.823" y2="1314.27" stroke="white" stroke-width="2"/>
<line x1="-962.158" y1="1325.01" x2="403.839" y2="1322.27" stroke="white" stroke-width="2"/>
<line x1="-962.142" y1="1333.01" x2="403.855" y2="1330.27" stroke="white" stroke-width="2"/>
</g>
</g>
<path d="M14.4716 73.6003L11.7189 75.8197L0.695646 75.8418L0.364014 34.4688L361.86 33.7437L361.943 74.922L350.882 74.9442L347.358 72.7373L323.728 72.7847L311.427 79.9763L50.7342 80.4992L38.6536 73.5518L14.4716 73.6003Z" fill="#000A0F"/>
<line y1="-0.5" x2="3.77086" y2="-0.5" transform="matrix(0.778485 -0.627663 -0.780997 -0.624535 11.2859 75.5643)" stroke="#405C6B"/>
<line y1="-0.5" x2="4.69454" y2="-0.5" transform="matrix(-0.857687 -0.514173 0.68113 -0.732162 350.882 74.9441)" stroke="#405C6B"/>
<line x1="14.2226" y1="73.5045" x2="23.4132" y2="73.4861" stroke="#405C6B"/>
<line y1="-0.5" x2="14.8918" y2="-0.5" transform="matrix(-0.86499 -0.50179 0.669081 -0.743189 51.0315 80.6216)" stroke="#405C6B"/>
<path d="M311.287 79.843L324.231 72.979" stroke="#405C6B"/>
<line x1="22.0617" y1="73.4888" x2="38.6047" y2="73.4556" stroke="#405C6B"/>
<line x1="50.7502" y1="80.2943" x2="88.6153" y2="80.2184" stroke="#405C6B"/>
<line x1="63.3032" y1="80.2692" x2="311.675" y2="79.771" stroke="#405C6B"/>
<line x1="323.728" y1="72.8838" x2="339.817" y2="72.8515" stroke="#405C6B"/>
<line x1="337.805" y1="72.8556" x2="347.364" y2="72.8364" stroke="#405C6B"/>
<path d="M306.404 710.473L53.0043 710.981L2.22388 711.083L2.24412 721.175L363.741 720.45L363.72 710.358L312.94 710.46L306.404 710.473Z" fill="#000A0F"/>
</svg>
