<svg xmlns="http://www.w3.org/2000/svg" width="366" height="1700" fill="none" viewBox="0 0 366 1700"><mask id="mask0" width="21" height="1696" x="0" y="1" mask-type="alpha" maskUnits="userSpaceOnUse"><path fill="#000A0F" d="M12.8551 245.988L12.4567 47.3633L11.3589 1.34259L4.82275 1.3557L0.800537 1.36377L4.20118 1696.94L14.7595 1696.92L13.1053 621.437L20.1296 614.156L19.4041 252.434L12.8551 245.988Z"/></mask><g mask="url(#mask0)"><path fill="#000A0F" d="M11.8495 245.99L11.4519 47.7691L11.3588 1.34261L4.82272 1.35572L-39.4216 1.44446L-36.021 1697.02L14.7595 1696.92L12.6025 621.438L19.6268 614.158L18.9021 252.839L11.8495 245.99Z"/><line x1="11.448" x2="11.847" y1="47.365" y2="245.99" stroke="#405C6B"/><line x1="12.6" x2="13.4" y1="621.438" y2="1020.3" stroke="#405C6B"/><line x1="18.898" x2="19.625" y1="252.435" y2="614.965" stroke="#405C6B"/><line x2="10.117" y1="-.5" y2="-.5" stroke="#405C6B" transform="matrix(0.697194 0.716882 -0.847116 0.531408 11.3467 245.991)"/><line x2="10.117" y1="-.5" y2="-.5" stroke="#405C6B" transform="matrix(0.694313 -0.719673 -0.849241 -0.528005 12.0999 621.439)"/><g opacity=".015"><line x1="-39.424" x2="1334.16" y1=".444" y2="-2.31" stroke="#fff" stroke-width="2"/><line x1="-39.411" x2="1334.18" y1="6.904" y2="4.149" stroke="#fff" stroke-width="2"/><line x1="-39.398" x2="1334.19" y1="13.363" y2="10.608" stroke="#fff" stroke-width="2"/><line x1="-39.385" x2="1334.2" y1="19.822" y2="17.067" stroke="#fff" stroke-width="2"/><line x1="-39.372" x2="1334.21" y1="26.282" y2="23.527" stroke="#fff" stroke-width="2"/><line x1="-39.359" x2="1334.23" y1="32.741" y2="29.986" stroke="#fff" stroke-width="2"/><line x1="-39.346" x2="1334.24" y1="39.2" y2="36.446" stroke="#fff" stroke-width="2"/><line x1="-39.333" x2="1334.25" y1="45.66" y2="42.905" stroke="#fff" stroke-width="2"/><line x1="-39.32" x2="1334.27" y1="52.119" y2="49.364" stroke="#fff" stroke-width="2"/><line x1="-39.307" x2="1334.28" y1="58.578" y2="55.824" stroke="#fff" stroke-width="2"/><line x1="-39.294" x2="1334.29" y1="65.038" y2="62.283" stroke="#fff" stroke-width="2"/><line x1="-39.281" x2="1334.3" y1="71.497" y2="68.742" stroke="#fff" stroke-width="2"/><line x1="-39.268" x2="1334.32" y1="77.956" y2="75.202" stroke="#fff" stroke-width="2"/><line x1="-39.255" x2="1334.33" y1="84.416" y2="81.661" stroke="#fff" stroke-width="2"/><line x1="-39.242" x2="1334.34" y1="90.875" y2="88.12" stroke="#fff" stroke-width="2"/><line x1="-39.229" x2="1334.36" y1="97.334" y2="94.579" stroke="#fff" stroke-width="2"/><line x1="-39.216" x2="1334.37" y1="103.794" y2="101.039" stroke="#fff" stroke-width="2"/><line x1="-39.203" x2="1334.38" y1="110.253" y2="107.498" stroke="#fff" stroke-width="2"/><line x1="-39.191" x2="1334.4" y1="116.712" y2="113.958" stroke="#fff" stroke-width="2"/><line x1="-39.178" x2="1334.41" y1="123.172" y2="120.417" stroke="#fff" stroke-width="2"/><line x1="-39.165" x2="1334.42" y1="129.631" y2="126.876" stroke="#fff" stroke-width="2"/><line x1="-39.152" x2="1334.43" y1="136.09" y2="133.336" stroke="#fff" stroke-width="2"/><line x1="-39.139" x2="1334.45" y1="142.55" y2="139.795" stroke="#fff" stroke-width="2"/><line x1="-39.126" x2="1334.46" y1="149.009" y2="146.254" stroke="#fff" stroke-width="2"/><line x1="-39.113" x2="1334.47" y1="155.468" y2="152.714" stroke="#fff" stroke-width="2"/><line x1="-39.1" x2="1334.49" y1="161.928" y2="159.173" stroke="#fff" stroke-width="2"/><line x1="-39.087" x2="1334.5" y1="168.387" y2="165.632" stroke="#fff" stroke-width="2"/><line x1="-39.074" x2="1334.51" y1="174.846" y2="172.091" stroke="#fff" stroke-width="2"/><line x1="-39.061" x2="1334.53" y1="181.306" y2="178.551" stroke="#fff" stroke-width="2"/><line x1="-39.048" x2="1334.54" y1="187.765" y2="185.01" stroke="#fff" stroke-width="2"/><line x1="-39.035" x2="1334.55" y1="194.224" y2="191.469" stroke="#fff" stroke-width="2"/><line x1="-39.022" x2="1334.56" y1="200.684" y2="197.929" stroke="#fff" stroke-width="2"/><line x1="-39.009" x2="1334.58" y1="207.143" y2="204.388" stroke="#fff" stroke-width="2"/><line x1="-38.996" x2="1334.59" y1="213.602" y2="210.847" stroke="#fff" stroke-width="2"/><line x1="-38.983" x2="1334.6" y1="220.062" y2="217.307" stroke="#fff" stroke-width="2"/><line x1="-38.97" x2="1334.62" y1="226.521" y2="223.766" stroke="#fff" stroke-width="2"/><line x1="-38.957" x2="1334.63" y1="232.98" y2="230.225" stroke="#fff" stroke-width="2"/><line x1="-38.944" x2="1334.64" y1="239.44" y2="236.685" stroke="#fff" stroke-width="2"/><line x1="-38.931" x2="1334.65" y1="245.899" y2="243.144" stroke="#fff" stroke-width="2"/><line x1="-38.919" x2="1334.67" y1="252.358" y2="249.604" stroke="#fff" stroke-width="2"/><line x1="-38.905" x2="1334.68" y1="258.818" y2="256.063" stroke="#fff" stroke-width="2"/><line x1="-38.892" x2="1334.69" y1="265.277" y2="262.522" stroke="#fff" stroke-width="2"/><line x1="-38.879" x2="1334.71" y1="271.736" y2="268.981" stroke="#fff" stroke-width="2"/><line x1="-38.867" x2="1334.72" y1="278.196" y2="275.441" stroke="#fff" stroke-width="2"/><line x1="-38.854" x2="1334.73" y1="284.655" y2="281.9" stroke="#fff" stroke-width="2"/><line x1="-38.841" x2="1334.75" y1="291.115" y2="288.36" stroke="#fff" stroke-width="2"/><line x1="-38.828" x2="1334.76" y1="297.574" y2="294.819" stroke="#fff" stroke-width="2"/><line x1="-38.815" x2="1334.77" y1="304.033" y2="301.278" stroke="#fff" stroke-width="2"/><line x1="-38.802" x2="1334.78" y1="310.492" y2="307.738" stroke="#fff" stroke-width="2"/><line x1="-38.789" x2="1334.8" y1="316.952" y2="314.197" stroke="#fff" stroke-width="2"/><line x1="-38.776" x2="1334.81" y1="323.411" y2="320.656" stroke="#fff" stroke-width="2"/><line x1="-38.763" x2="1334.82" y1="329.87" y2="327.116" stroke="#fff" stroke-width="2"/><line x1="-38.75" x2="1334.84" y1="336.33" y2="333.575" stroke="#fff" stroke-width="2"/><line x1="-38.737" x2="1334.85" y1="342.789" y2="340.034" stroke="#fff" stroke-width="2"/><line x1="-38.724" x2="1334.86" y1="349.248" y2="346.493" stroke="#fff" stroke-width="2"/><line x1="-38.711" x2="1334.87" y1="355.708" y2="352.953" stroke="#fff" stroke-width="2"/><line x1="-38.698" x2="1334.89" y1="362.167" y2="359.412" stroke="#fff" stroke-width="2"/><line x1="-38.685" x2="1334.9" y1="368.626" y2="365.871" stroke="#fff" stroke-width="2"/><line x1="-38.672" x2="1334.91" y1="375.086" y2="372.331" stroke="#fff" stroke-width="2"/><line x1="-38.659" x2="1334.93" y1="381.545" y2="378.79" stroke="#fff" stroke-width="2"/><line x1="-38.646" x2="1334.94" y1="388.004" y2="385.249" stroke="#fff" stroke-width="2"/><line x1="-38.633" x2="1334.95" y1="394.464" y2="391.709" stroke="#fff" stroke-width="2"/><line x1="-38.62" x2="1334.97" y1="400.923" y2="398.168" stroke="#fff" stroke-width="2"/><line x1="-38.608" x2="1334.98" y1="407.382" y2="404.627" stroke="#fff" stroke-width="2"/><line x1="-38.594" x2="1334.99" y1="413.842" y2="411.087" stroke="#fff" stroke-width="2"/><line x1="-38.582" x2="1335" y1="420.301" y2="417.546" stroke="#fff" stroke-width="2"/><line x1="-38.569" x2="1335.02" y1="426.76" y2="424.005" stroke="#fff" stroke-width="2"/><line x1="-38.556" x2="1335.03" y1="433.22" y2="430.465" stroke="#fff" stroke-width="2"/><line x1="-38.543" x2="1335.04" y1="439.679" y2="436.924" stroke="#fff" stroke-width="2"/><line x1="-38.53" x2="1335.06" y1="446.138" y2="443.384" stroke="#fff" stroke-width="2"/><line x1="-38.517" x2="1335.07" y1="452.598" y2="449.843" stroke="#fff" stroke-width="2"/><line x1="-38.504" x2="1335.08" y1="459.057" y2="456.302" stroke="#fff" stroke-width="2"/><line x1="-38.491" x2="1335.1" y1="465.516" y2="462.762" stroke="#fff" stroke-width="2"/><line x1="-38.478" x2="1335.11" y1="471.976" y2="469.221" stroke="#fff" stroke-width="2"/><line x1="-38.465" x2="1335.12" y1="478.435" y2="475.68" stroke="#fff" stroke-width="2"/><line x1="-38.452" x2="1335.13" y1="484.894" y2="482.139" stroke="#fff" stroke-width="2"/><line x1="-38.439" x2="1335.15" y1="491.354" y2="488.599" stroke="#fff" stroke-width="2"/><line x1="-38.426" x2="1335.16" y1="497.813" y2="495.058" stroke="#fff" stroke-width="2"/><line x1="-38.413" x2="1335.17" y1="504.272" y2="501.518" stroke="#fff" stroke-width="2"/><line x1="-38.4" x2="1335.19" y1="510.731" y2="507.977" stroke="#fff" stroke-width="2"/><line x1="-38.387" x2="1335.2" y1="517.191" y2="514.436" stroke="#fff" stroke-width="2"/><line x1="-38.374" x2="1335.21" y1="523.65" y2="520.895" stroke="#fff" stroke-width="2"/><line x1="-38.361" x2="1335.22" y1="530.11" y2="527.355" stroke="#fff" stroke-width="2"/><line x1="-38.348" x2="1335.24" y1="536.569" y2="533.814" stroke="#fff" stroke-width="2"/><line x1="-38.336" x2="1335.25" y1="543.028" y2="540.273" stroke="#fff" stroke-width="2"/><line x1="-38.323" x2="1335.26" y1="549.487" y2="546.732" stroke="#fff" stroke-width="2"/><line x1="-38.31" x2="1335.28" y1="555.947" y2="553.192" stroke="#fff" stroke-width="2"/><line x1="-38.297" x2="1335.29" y1="562.406" y2="559.651" stroke="#fff" stroke-width="2"/><line x1="-38.283" x2="1335.3" y1="568.866" y2="566.111" stroke="#fff" stroke-width="2"/><line x1="-38.271" x2="1335.32" y1="575.325" y2="572.57" stroke="#fff" stroke-width="2"/><line x1="-38.258" x2="1335.33" y1="581.784" y2="579.03" stroke="#fff" stroke-width="2"/><line x1="-38.245" x2="1335.34" y1="588.244" y2="585.489" stroke="#fff" stroke-width="2"/><line x1="-38.232" x2="1335.35" y1="594.703" y2="591.948" stroke="#fff" stroke-width="2"/><line x1="-38.219" x2="1335.37" y1="601.162" y2="598.407" stroke="#fff" stroke-width="2"/><line x1="-38.206" x2="1335.38" y1="607.622" y2="604.867" stroke="#fff" stroke-width="2"/><line x1="-38.193" x2="1335.39" y1="614.081" y2="611.326" stroke="#fff" stroke-width="2"/><line x1="-38.18" x2="1335.41" y1="620.54" y2="617.785" stroke="#fff" stroke-width="2"/><line x1="-38.167" x2="1335.42" y1="627" y2="624.245" stroke="#fff" stroke-width="2"/><line x1="-38.154" x2="1335.43" y1="633.459" y2="630.704" stroke="#fff" stroke-width="2"/><line x1="-38.141" x2="1335.44" y1="639.918" y2="637.163" stroke="#fff" stroke-width="2"/><line x1="-38.128" x2="1335.46" y1="646.378" y2="643.623" stroke="#fff" stroke-width="2"/><line x1="-38.115" x2="1335.47" y1="652.837" y2="650.082" stroke="#fff" stroke-width="2"/><line x1="-38.102" x2="1335.48" y1="659.296" y2="656.541" stroke="#fff" stroke-width="2"/><line x1="-38.089" x2="1335.5" y1="665.755" y2="663" stroke="#fff" stroke-width="2"/><line x1="-38.076" x2="1335.51" y1="672.215" y2="669.46" stroke="#fff" stroke-width="2"/><line x1="-38.063" x2="1335.52" y1="678.674" y2="675.919" stroke="#fff" stroke-width="2"/><line x1="-38.05" x2="1335.54" y1="685.134" y2="682.379" stroke="#fff" stroke-width="2"/><line x1="-38.037" x2="1335.55" y1="691.593" y2="688.838" stroke="#fff" stroke-width="2"/><line x1="-38.025" x2="1335.56" y1="698.052" y2="695.297" stroke="#fff" stroke-width="2"/><line x1="-38.011" x2="1335.57" y1="704.511" y2="701.756" stroke="#fff" stroke-width="2"/><line x1="-37.999" x2="1335.59" y1="710.971" y2="708.216" stroke="#fff" stroke-width="2"/><line x1="-37.986" x2="1335.6" y1="717.43" y2="714.675" stroke="#fff" stroke-width="2"/><line x1="-37.973" x2="1335.61" y1="723.889" y2="721.135" stroke="#fff" stroke-width="2"/><line x1="-37.96" x2="1335.63" y1="730.349" y2="727.594" stroke="#fff" stroke-width="2"/><line x1="-37.947" x2="1335.64" y1="736.808" y2="734.053" stroke="#fff" stroke-width="2"/><line x1="-37.934" x2="1335.65" y1="743.268" y2="740.513" stroke="#fff" stroke-width="2"/><line x1="-37.921" x2="1335.67" y1="749.727" y2="746.972" stroke="#fff" stroke-width="2"/><line x1="-37.908" x2="1335.68" y1="756.186" y2="753.431" stroke="#fff" stroke-width="2"/><line x1="-37.895" x2="1335.69" y1="762.646" y2="759.891" stroke="#fff" stroke-width="2"/><line x1="-37.882" x2="1335.7" y1="769.105" y2="766.35" stroke="#fff" stroke-width="2"/><line x1="-37.869" x2="1335.72" y1="775.564" y2="772.809" stroke="#fff" stroke-width="2"/><line x1="-37.856" x2="1335.73" y1="782.023" y2="779.269" stroke="#fff" stroke-width="2"/><line x1="-37.843" x2="1335.74" y1="788.483" y2="785.728" stroke="#fff" stroke-width="2"/><line x1="-37.83" x2="1335.76" y1="794.942" y2="792.187" stroke="#fff" stroke-width="2"/><line x1="-37.817" x2="1335.77" y1="801.401" y2="798.646" stroke="#fff" stroke-width="2"/><line x1="-37.804" x2="1335.78" y1="807.861" y2="805.106" stroke="#fff" stroke-width="2"/><line x1="-37.791" x2="1335.79" y1="814.32" y2="811.565" stroke="#fff" stroke-width="2"/><line x1="-37.778" x2="1335.81" y1="820.78" y2="818.025" stroke="#fff" stroke-width="2"/><line x1="-37.765" x2="1335.82" y1="827.239" y2="824.484" stroke="#fff" stroke-width="2"/><line x1="-37.752" x2="1335.83" y1="833.698" y2="830.943" stroke="#fff" stroke-width="2"/><line x1="-37.74" x2="1335.85" y1="840.157" y2="837.402" stroke="#fff" stroke-width="2"/><line x1="-37.727" x2="1335.86" y1="846.617" y2="843.862" stroke="#fff" stroke-width="2"/><line x1="-37.714" x2="1335.87" y1="853.076" y2="850.321" stroke="#fff" stroke-width="2"/><line x1="-37.701" x2="1335.89" y1="859.535" y2="856.781" stroke="#fff" stroke-width="2"/><line x1="-37.688" x2="1335.9" y1="865.995" y2="863.24" stroke="#fff" stroke-width="2"/><line x1="-37.675" x2="1335.91" y1="872.454" y2="869.699" stroke="#fff" stroke-width="2"/><line x1="-37.662" x2="1335.92" y1="878.914" y2="876.159" stroke="#fff" stroke-width="2"/><line x1="-37.649" x2="1335.94" y1="885.373" y2="882.618" stroke="#fff" stroke-width="2"/><line x1="-37.636" x2="1335.95" y1="891.832" y2="889.077" stroke="#fff" stroke-width="2"/><line x1="-37.623" x2="1335.96" y1="898.292" y2="895.537" stroke="#fff" stroke-width="2"/><line x1="-37.61" x2="1335.98" y1="904.751" y2="901.996" stroke="#fff" stroke-width="2"/><line x1="-37.597" x2="1335.99" y1="911.21" y2="908.455" stroke="#fff" stroke-width="2"/><line x1="-37.584" x2="1336" y1="917.669" y2="914.915" stroke="#fff" stroke-width="2"/><line x1="-37.571" x2="1336.01" y1="924.129" y2="921.374" stroke="#fff" stroke-width="2"/><line x1="-37.558" x2="1336.03" y1="930.588" y2="927.833" stroke="#fff" stroke-width="2"/><line x1="-37.545" x2="1336.04" y1="937.047" y2="934.292" stroke="#fff" stroke-width="2"/><line x1="-37.532" x2="1336.05" y1="943.507" y2="940.752" stroke="#fff" stroke-width="2"/><line x1="-37.519" x2="1336.07" y1="949.966" y2="947.211" stroke="#fff" stroke-width="2"/><line x1="-37.506" x2="1336.08" y1="956.425" y2="953.67" stroke="#fff" stroke-width="2"/><line x1="-37.493" x2="1336.09" y1="962.885" y2="960.13" stroke="#fff" stroke-width="2"/><line x1="-37.48" x2="1336.11" y1="969.344" y2="966.589" stroke="#fff" stroke-width="2"/><line x1="-37.467" x2="1336.12" y1="975.803" y2="973.049" stroke="#fff" stroke-width="2"/><line x1="-37.454" x2="1336.13" y1="982.263" y2="979.508" stroke="#fff" stroke-width="2"/><line x1="-37.441" x2="1336.14" y1="988.722" y2="985.968" stroke="#fff" stroke-width="2"/><line x1="-37.428" x2="1336.16" y1="995.181" y2="992.427" stroke="#fff" stroke-width="2"/><line x1="-37.416" x2="1336.17" y1="1001.64" y2="998.886" stroke="#fff" stroke-width="2"/><line x1="-37.403" x2="1336.18" y1="1008.1" y2="1005.35" stroke="#fff" stroke-width="2"/><line x1="-37.39" x2="1336.2" y1="1014.56" y2="1011.8" stroke="#fff" stroke-width="2"/><line x1="-37.377" x2="1336.21" y1="1021.02" y2="1018.26" stroke="#fff" stroke-width="2"/><line x1="-37.364" x2="1336.22" y1="1027.48" y2="1024.72" stroke="#fff" stroke-width="2"/><line x1="-37.351" x2="1336.24" y1="1033.94" y2="1031.18" stroke="#fff" stroke-width="2"/><line x1="-37.338" x2="1336.25" y1="1040.4" y2="1037.64" stroke="#fff" stroke-width="2"/><line x1="-37.325" x2="1336.26" y1="1046.86" y2="1044.1" stroke="#fff" stroke-width="2"/><line x1="-37.312" x2="1336.27" y1="1053.32" y2="1050.56" stroke="#fff" stroke-width="2"/><line x1="-37.299" x2="1336.29" y1="1059.77" y2="1057.02" stroke="#fff" stroke-width="2"/><line x1="-37.286" x2="1336.3" y1="1066.23" y2="1063.48" stroke="#fff" stroke-width="2"/><line x1="-37.273" x2="1336.31" y1="1072.69" y2="1069.94" stroke="#fff" stroke-width="2"/></g></g><mask id="mask1" width="24" height="1698" x="342" y="1" mask-type="alpha" maskUnits="userSpaceOnUse"><path fill="#000A0F" d="M351.244 506.105L350.326 48.7034L350.235 3.08443L361.796 1.85011L365.197 1697.42L353.133 1698.66L351.497 882.766L344.445 876.32L344.22 513.386L351.244 506.105Z"/></mask><g mask="url(#mask1)"><path fill="#000A0F" d="M351.247 507.317L350.328 49.5118L350.237 3.89274L381.912 3.82922L385.312 1699.4L353.638 1699.47L352.001 883.573L344.949 876.724L344.221 514.194L351.247 507.317Z"/><line x1="344.72" x2="345.447" y1="513.385" y2="875.915" stroke="#405C6B"/><line x2="10.117" y1="-.5" y2="-.5" stroke="#405C6B" transform="matrix(0.697194 0.716882 -0.847116 0.531408 344.947 875.917)"/><line x2="10.117" y1="-.5" y2="-.5" stroke="#405C6B" transform="matrix(0.694313 -0.719673 -0.849241 -0.528005 344.22 513.386)"/><line x1="350.827" x2="351.746" y1="49.107" y2="506.912" stroke="#405C6B"/><line x1="351.994" x2="352.307" y1="881.554" y2="1037.39" stroke="#405C6B"/><g opacity=".015"><line x1="-964.805" x2="401.192" y1="5.011" y2="2.271" stroke="#fff" stroke-width="2"/><line x1="-964.789" x2="401.208" y1="13.011" y2="10.271" stroke="#fff" stroke-width="2"/><line x1="-964.773" x2="401.224" y1="21.011" y2="18.271" stroke="#fff" stroke-width="2"/><line x1="-964.757" x2="401.24" y1="29.011" y2="26.271" stroke="#fff" stroke-width="2"/><line x1="-964.741" x2="401.256" y1="37.011" y2="34.271" stroke="#fff" stroke-width="2"/><line x1="-964.725" x2="401.272" y1="45.011" y2="42.271" stroke="#fff" stroke-width="2"/><line x1="-964.709" x2="401.288" y1="53.011" y2="50.271" stroke="#fff" stroke-width="2"/><line x1="-964.693" x2="401.304" y1="61.011" y2="58.271" stroke="#fff" stroke-width="2"/><line x1="-964.677" x2="401.32" y1="69.011" y2="66.271" stroke="#fff" stroke-width="2"/><line x1="-964.661" x2="401.336" y1="77.011" y2="74.271" stroke="#fff" stroke-width="2"/><line x1="-964.645" x2="401.352" y1="85.011" y2="82.271" stroke="#fff" stroke-width="2"/><line x1="-964.629" x2="401.368" y1="93.011" y2="90.271" stroke="#fff" stroke-width="2"/><line x1="-964.613" x2="401.384" y1="101.011" y2="98.271" stroke="#fff" stroke-width="2"/><line x1="-964.597" x2="401.4" y1="109.011" y2="106.271" stroke="#fff" stroke-width="2"/><line x1="-964.581" x2="401.416" y1="117.011" y2="114.271" stroke="#fff" stroke-width="2"/><line x1="-964.565" x2="401.432" y1="125.011" y2="122.271" stroke="#fff" stroke-width="2"/><line x1="-964.549" x2="401.449" y1="133.011" y2="130.271" stroke="#fff" stroke-width="2"/><line x1="-964.533" x2="401.464" y1="141.011" y2="138.271" stroke="#fff" stroke-width="2"/><line x1="-964.517" x2="401.481" y1="149.011" y2="146.271" stroke="#fff" stroke-width="2"/><line x1="-964.501" x2="401.497" y1="157.01" y2="154.271" stroke="#fff" stroke-width="2"/><line x1="-964.485" x2="401.513" y1="165.01" y2="162.271" stroke="#fff" stroke-width="2"/><line x1="-964.469" x2="401.529" y1="173.01" y2="170.271" stroke="#fff" stroke-width="2"/><line x1="-964.452" x2="401.545" y1="181.01" y2="178.271" stroke="#fff" stroke-width="2"/><line x1="-964.436" x2="401.561" y1="189.01" y2="186.271" stroke="#fff" stroke-width="2"/><line x1="-964.42" x2="401.577" y1="197.01" y2="194.271" stroke="#fff" stroke-width="2"/><line x1="-964.404" x2="401.593" y1="205.01" y2="202.271" stroke="#fff" stroke-width="2"/><line x1="-964.388" x2="401.609" y1="213.01" y2="210.271" stroke="#fff" stroke-width="2"/><line x1="-964.372" x2="401.625" y1="221.01" y2="218.271" stroke="#fff" stroke-width="2"/><line x1="-964.356" x2="401.641" y1="229.01" y2="226.271" stroke="#fff" stroke-width="2"/><line x1="-964.34" x2="401.657" y1="237.01" y2="234.271" stroke="#fff" stroke-width="2"/><line x1="-964.324" x2="401.673" y1="245.01" y2="242.271" stroke="#fff" stroke-width="2"/><line x1="-964.308" x2="401.689" y1="253.01" y2="250.271" stroke="#fff" stroke-width="2"/><line x1="-964.292" x2="401.705" y1="261.01" y2="258.271" stroke="#fff" stroke-width="2"/><line x1="-964.276" x2="401.721" y1="269.01" y2="266.271" stroke="#fff" stroke-width="2"/><line x1="-964.26" x2="401.737" y1="277.01" y2="274.271" stroke="#fff" stroke-width="2"/><line x1="-964.244" x2="401.753" y1="285.01" y2="282.271" stroke="#fff" stroke-width="2"/><line x1="-964.228" x2="401.769" y1="293.01" y2="290.271" stroke="#fff" stroke-width="2"/><line x1="-964.212" x2="401.786" y1="301.01" y2="298.271" stroke="#fff" stroke-width="2"/><line x1="-964.196" x2="401.801" y1="309.01" y2="306.27" stroke="#fff" stroke-width="2"/><line x1="-964.18" x2="401.818" y1="317.01" y2="314.27" stroke="#fff" stroke-width="2"/><line x1="-964.164" x2="401.834" y1="325.01" y2="322.27" stroke="#fff" stroke-width="2"/><line x1="-964.148" x2="401.849" y1="333.01" y2="330.27" stroke="#fff" stroke-width="2"/><line x1="-964.132" x2="401.866" y1="341.01" y2="338.27" stroke="#fff" stroke-width="2"/><line x1="-964.116" x2="401.882" y1="349.01" y2="346.27" stroke="#fff" stroke-width="2"/><line x1="-964.099" x2="401.898" y1="357.01" y2="354.27" stroke="#fff" stroke-width="2"/><line x1="-964.084" x2="401.914" y1="365.01" y2="362.27" stroke="#fff" stroke-width="2"/><line x1="-964.067" x2="401.93" y1="373.01" y2="370.27" stroke="#fff" stroke-width="2"/><line x1="-964.051" x2="401.946" y1="381.01" y2="378.27" stroke="#fff" stroke-width="2"/><line x1="-964.035" x2="401.962" y1="389.01" y2="386.27" stroke="#fff" stroke-width="2"/><line x1="-964.019" x2="401.978" y1="397.01" y2="394.27" stroke="#fff" stroke-width="2"/><line x1="-964.003" x2="401.994" y1="405.01" y2="402.27" stroke="#fff" stroke-width="2"/><line x1="-963.987" x2="402.01" y1="413.01" y2="410.27" stroke="#fff" stroke-width="2"/><line x1="-963.971" x2="402.026" y1="421.01" y2="418.27" stroke="#fff" stroke-width="2"/><line x1="-963.955" x2="402.042" y1="429.01" y2="426.27" stroke="#fff" stroke-width="2"/><line x1="-963.939" x2="402.058" y1="437.01" y2="434.27" stroke="#fff" stroke-width="2"/><line x1="-963.923" x2="402.074" y1="445.01" y2="442.27" stroke="#fff" stroke-width="2"/><line x1="-963.907" x2="402.09" y1="453.01" y2="450.27" stroke="#fff" stroke-width="2"/><line x1="-963.891" x2="402.106" y1="461.01" y2="458.27" stroke="#fff" stroke-width="2"/><line x1="-963.875" x2="402.122" y1="469.01" y2="466.27" stroke="#fff" stroke-width="2"/><line x1="-963.859" x2="402.138" y1="477.01" y2="474.27" stroke="#fff" stroke-width="2"/><line x1="-963.843" x2="402.154" y1="485.01" y2="482.27" stroke="#fff" stroke-width="2"/><line x1="-963.827" x2="402.171" y1="493.01" y2="490.27" stroke="#fff" stroke-width="2"/><line x1="-963.811" x2="402.187" y1="501.01" y2="498.27" stroke="#fff" stroke-width="2"/><line x1="-963.795" x2="402.203" y1="509.01" y2="506.27" stroke="#fff" stroke-width="2"/><line x1="-963.779" x2="402.219" y1="517.01" y2="514.27" stroke="#fff" stroke-width="2"/><line x1="-963.763" x2="402.235" y1="525.01" y2="522.27" stroke="#fff" stroke-width="2"/><line x1="-963.747" x2="402.251" y1="533.01" y2="530.27" stroke="#fff" stroke-width="2"/><line x1="-963.731" x2="402.267" y1="541.01" y2="538.27" stroke="#fff" stroke-width="2"/><line x1="-963.714" x2="402.283" y1="549.01" y2="546.27" stroke="#fff" stroke-width="2"/><line x1="-963.698" x2="402.299" y1="557.01" y2="554.27" stroke="#fff" stroke-width="2"/><line x1="-963.682" x2="402.315" y1="565.01" y2="562.27" stroke="#fff" stroke-width="2"/><line x1="-963.666" x2="402.331" y1="573.01" y2="570.27" stroke="#fff" stroke-width="2"/><line x1="-963.65" x2="402.347" y1="581.01" y2="578.27" stroke="#fff" stroke-width="2"/><line x1="-963.634" x2="402.363" y1="589.01" y2="586.27" stroke="#fff" stroke-width="2"/><line x1="-963.618" x2="402.379" y1="597.01" y2="594.27" stroke="#fff" stroke-width="2"/><line x1="-963.602" x2="402.395" y1="605.01" y2="602.27" stroke="#fff" stroke-width="2"/><line x1="-963.586" x2="402.411" y1="613.01" y2="610.27" stroke="#fff" stroke-width="2"/><line x1="-963.57" x2="402.427" y1="621.01" y2="618.27" stroke="#fff" stroke-width="2"/><line x1="-963.554" x2="402.443" y1="629.01" y2="626.27" stroke="#fff" stroke-width="2"/><line x1="-963.538" x2="402.459" y1="637.01" y2="634.27" stroke="#fff" stroke-width="2"/><line x1="-963.522" x2="402.475" y1="645.01" y2="642.27" stroke="#fff" stroke-width="2"/><line x1="-963.506" x2="402.491" y1="653.01" y2="650.27" stroke="#fff" stroke-width="2"/><line x1="-963.49" x2="402.507" y1="661.01" y2="658.27" stroke="#fff" stroke-width="2"/><line x1="-963.474" x2="402.524" y1="669.009" y2="666.27" stroke="#fff" stroke-width="2"/><line x1="-963.458" x2="402.539" y1="677.009" y2="674.27" stroke="#fff" stroke-width="2"/><line x1="-963.442" x2="402.556" y1="685.009" y2="682.27" stroke="#fff" stroke-width="2"/><line x1="-963.426" x2="402.572" y1="693.009" y2="690.27" stroke="#fff" stroke-width="2"/><line x1="-963.409" x2="402.588" y1="701.009" y2="698.27" stroke="#fff" stroke-width="2"/><line x1="-963.394" x2="402.604" y1="709.009" y2="706.27" stroke="#fff" stroke-width="2"/><line x1="-963.377" x2="402.62" y1="717.009" y2="714.27" stroke="#fff" stroke-width="2"/><line x1="-963.361" x2="402.636" y1="725.009" y2="722.27" stroke="#fff" stroke-width="2"/><line x1="-963.346" x2="402.652" y1="733.009" y2="730.27" stroke="#fff" stroke-width="2"/><line x1="-963.329" x2="402.668" y1="741.009" y2="738.27" stroke="#fff" stroke-width="2"/><line x1="-963.313" x2="402.684" y1="749.009" y2="746.27" stroke="#fff" stroke-width="2"/><line x1="-963.297" x2="402.7" y1="757.009" y2="754.27" stroke="#fff" stroke-width="2"/><line x1="-963.281" x2="402.716" y1="765.009" y2="762.27" stroke="#fff" stroke-width="2"/><line x1="-963.265" x2="402.732" y1="773.009" y2="770.27" stroke="#fff" stroke-width="2"/><line x1="-963.249" x2="402.748" y1="781.009" y2="778.27" stroke="#fff" stroke-width="2"/><line x1="-963.233" x2="402.764" y1="789.009" y2="786.269" stroke="#fff" stroke-width="2"/><line x1="-963.217" x2="402.78" y1="797.009" y2="794.269" stroke="#fff" stroke-width="2"/><line x1="-963.201" x2="402.796" y1="805.009" y2="802.269" stroke="#fff" stroke-width="2"/><line x1="-963.185" x2="402.812" y1="813.009" y2="810.269" stroke="#fff" stroke-width="2"/><line x1="-963.169" x2="402.828" y1="821.009" y2="818.269" stroke="#fff" stroke-width="2"/><line x1="-963.153" x2="402.844" y1="829.009" y2="826.269" stroke="#fff" stroke-width="2"/><line x1="-963.137" x2="402.86" y1="837.009" y2="834.269" stroke="#fff" stroke-width="2"/><line x1="-963.121" x2="402.877" y1="845.009" y2="842.269" stroke="#fff" stroke-width="2"/><line x1="-963.105" x2="402.892" y1="853.009" y2="850.269" stroke="#fff" stroke-width="2"/><line x1="-963.089" x2="402.909" y1="861.009" y2="858.269" stroke="#fff" stroke-width="2"/><line x1="-963.073" x2="402.925" y1="869.009" y2="866.269" stroke="#fff" stroke-width="2"/><line x1="-963.057" x2="402.941" y1="877.009" y2="874.269" stroke="#fff" stroke-width="2"/><line x1="-963.041" x2="402.957" y1="885.009" y2="882.269" stroke="#fff" stroke-width="2"/><line x1="-963.024" x2="402.973" y1="893.009" y2="890.269" stroke="#fff" stroke-width="2"/><line x1="-963.008" x2="402.989" y1="901.009" y2="898.269" stroke="#fff" stroke-width="2"/><line x1="-962.992" x2="403.005" y1="909.009" y2="906.269" stroke="#fff" stroke-width="2"/><line x1="-962.976" x2="403.021" y1="917.009" y2="914.269" stroke="#fff" stroke-width="2"/><line x1="-962.96" x2="403.037" y1="925.009" y2="922.269" stroke="#fff" stroke-width="2"/><line x1="-962.944" x2="403.053" y1="933.009" y2="930.269" stroke="#fff" stroke-width="2"/><line x1="-962.928" x2="403.069" y1="941.009" y2="938.269" stroke="#fff" stroke-width="2"/><line x1="-962.912" x2="403.085" y1="949.009" y2="946.269" stroke="#fff" stroke-width="2"/><line x1="-962.896" x2="403.101" y1="957.009" y2="954.269" stroke="#fff" stroke-width="2"/><line x1="-962.88" x2="403.117" y1="965.009" y2="962.269" stroke="#fff" stroke-width="2"/><line x1="-962.864" x2="403.133" y1="973.009" y2="970.269" stroke="#fff" stroke-width="2"/><line x1="-962.848" x2="403.149" y1="981.009" y2="978.269" stroke="#fff" stroke-width="2"/><line x1="-962.832" x2="403.165" y1="989.009" y2="986.269" stroke="#fff" stroke-width="2"/><line x1="-962.816" x2="403.181" y1="997.009" y2="994.269" stroke="#fff" stroke-width="2"/><line x1="-962.8" x2="403.197" y1="1005.01" y2="1002.27" stroke="#fff" stroke-width="2"/><line x1="-962.784" x2="403.214" y1="1013.01" y2="1010.27" stroke="#fff" stroke-width="2"/><line x1="-962.768" x2="403.229" y1="1021.01" y2="1018.27" stroke="#fff" stroke-width="2"/><line x1="-962.752" x2="403.245" y1="1029.01" y2="1026.27" stroke="#fff" stroke-width="2"/><line x1="-962.736" x2="403.262" y1="1037.01" y2="1034.27" stroke="#fff" stroke-width="2"/><line x1="-962.72" x2="403.278" y1="1045.01" y2="1042.27" stroke="#fff" stroke-width="2"/><line x1="-962.704" x2="403.294" y1="1053.01" y2="1050.27" stroke="#fff" stroke-width="2"/><line x1="-962.688" x2="403.31" y1="1061.01" y2="1058.27" stroke="#fff" stroke-width="2"/><line x1="-962.671" x2="403.326" y1="1069.01" y2="1066.27" stroke="#fff" stroke-width="2"/><line x1="-962.656" x2="403.342" y1="1077.01" y2="1074.27" stroke="#fff" stroke-width="2"/><line x1="-962.639" x2="403.358" y1="1085.01" y2="1082.27" stroke="#fff" stroke-width="2"/><line x1="-962.623" x2="403.374" y1="1093.01" y2="1090.27" stroke="#fff" stroke-width="2"/><line x1="-962.607" x2="403.39" y1="1101.01" y2="1098.27" stroke="#fff" stroke-width="2"/><line x1="-962.591" x2="403.406" y1="1109.01" y2="1106.27" stroke="#fff" stroke-width="2"/><line x1="-962.575" x2="403.422" y1="1117.01" y2="1114.27" stroke="#fff" stroke-width="2"/><line x1="-962.559" x2="403.438" y1="1125.01" y2="1122.27" stroke="#fff" stroke-width="2"/><line x1="-962.543" x2="403.454" y1="1133.01" y2="1130.27" stroke="#fff" stroke-width="2"/><line x1="-962.527" x2="403.47" y1="1141.01" y2="1138.27" stroke="#fff" stroke-width="2"/><line x1="-962.511" x2="403.486" y1="1149.01" y2="1146.27" stroke="#fff" stroke-width="2"/><line x1="-962.495" x2="403.502" y1="1157.01" y2="1154.27" stroke="#fff" stroke-width="2"/><line x1="-962.479" x2="403.518" y1="1165.01" y2="1162.27" stroke="#fff" stroke-width="2"/><line x1="-962.463" x2="403.534" y1="1173.01" y2="1170.27" stroke="#fff" stroke-width="2"/><line x1="-962.447" x2="403.55" y1="1181.01" y2="1178.27" stroke="#fff" stroke-width="2"/><line x1="-962.431" x2="403.566" y1="1189.01" y2="1186.27" stroke="#fff" stroke-width="2"/><line x1="-962.415" x2="403.582" y1="1197.01" y2="1194.27" stroke="#fff" stroke-width="2"/><line x1="-962.399" x2="403.599" y1="1205.01" y2="1202.27" stroke="#fff" stroke-width="2"/><line x1="-962.383" x2="403.615" y1="1213.01" y2="1210.27" stroke="#fff" stroke-width="2"/><line x1="-962.367" x2="403.63" y1="1221.01" y2="1218.27" stroke="#fff" stroke-width="2"/><line x1="-962.351" x2="403.647" y1="1229.01" y2="1226.27" stroke="#fff" stroke-width="2"/><line x1="-962.335" x2="403.663" y1="1237.01" y2="1234.27" stroke="#fff" stroke-width="2"/><line x1="-962.318" x2="403.679" y1="1245.01" y2="1242.27" stroke="#fff" stroke-width="2"/><line x1="-962.303" x2="403.695" y1="1253.01" y2="1250.27" stroke="#fff" stroke-width="2"/><line x1="-962.286" x2="403.711" y1="1261.01" y2="1258.27" stroke="#fff" stroke-width="2"/><line x1="-962.27" x2="403.727" y1="1269.01" y2="1266.27" stroke="#fff" stroke-width="2"/><line x1="-962.254" x2="403.743" y1="1277.01" y2="1274.27" stroke="#fff" stroke-width="2"/><line x1="-962.238" x2="403.759" y1="1285.01" y2="1282.27" stroke="#fff" stroke-width="2"/><line x1="-962.222" x2="403.775" y1="1293.01" y2="1290.27" stroke="#fff" stroke-width="2"/><line x1="-962.206" x2="403.791" y1="1301.01" y2="1298.27" stroke="#fff" stroke-width="2"/><line x1="-962.19" x2="403.807" y1="1309.01" y2="1306.27" stroke="#fff" stroke-width="2"/><line x1="-962.174" x2="403.823" y1="1317.01" y2="1314.27" stroke="#fff" stroke-width="2"/><line x1="-962.158" x2="403.839" y1="1325.01" y2="1322.27" stroke="#fff" stroke-width="2"/><line x1="-962.142" x2="403.855" y1="1333.01" y2="1330.27" stroke="#fff" stroke-width="2"/></g></g><path fill="#000A0F" d="M14.4716 73.6003L11.7189 75.8197L0.695646 75.8418L0.364014 34.4688L361.86 33.7437L361.943 74.922L350.882 74.9442L347.358 72.7373L323.728 72.7847L311.427 79.9763L50.7342 80.4992L38.6536 73.5518L14.4716 73.6003Z"/><line x2="3.771" y1="-.5" y2="-.5" stroke="#405C6B" transform="matrix(0.778485 -0.627663 -0.780997 -0.624535 11.2859 75.5643)"/><line x2="4.695" y1="-.5" y2="-.5" stroke="#405C6B" transform="matrix(-0.857687 -0.514173 0.68113 -0.732162 350.882 74.9441)"/><line x1="14.223" x2="23.413" y1="73.504" y2="73.486" stroke="#405C6B"/><line x2="14.892" y1="-.5" y2="-.5" stroke="#405C6B" transform="matrix(-0.86499 -0.50179 0.669081 -0.743189 51.0315 80.6216)"/><path stroke="#405C6B" d="M311.287 79.843L324.231 72.979"/><line x1="22.062" x2="38.605" y1="73.489" y2="73.456" stroke="#405C6B"/><line x1="50.75" x2="88.615" y1="80.294" y2="80.218" stroke="#405C6B"/><line x1="63.303" x2="311.675" y1="80.269" y2="79.771" stroke="#405C6B"/><line x1="323.728" x2="339.817" y1="72.884" y2="72.852" stroke="#405C6B"/><line x1="337.805" x2="347.364" y1="72.856" y2="72.836" stroke="#405C6B"/><path fill="#000A0F" d="M306.404 710.473L53.0043 710.981L2.22388 711.083L2.24412 721.175L363.741 720.45L363.72 710.358L312.94 710.46L306.404 710.473Z"/></svg>